<svg width="301" height="410" fill="none" xmlns="http://www.w3.org/2000/svg"><path d="M272.254 499.074c-4.311.451-8.405.24-12.448-1.406-3.9-1.586-8.004-2.569-11.543-5.067-3.597-2.554-7.409-4.81-11.205-7.057-5.856-3.481-10.136-8.637-14.655-13.532-2.535-2.74-5.045-5.542-7.232-8.558-6.809-9.346-11.949-19.603-16.05-30.392-3.814-10.036-6.11-20.493-8.681-30.876-2.189-8.854-4.727-17.642-8.448-26.015-.966-2.189-2.24-4.056-4.151-5.57-1.287-1.02-2.185-2.482-3.335-3.679-3.06-3.175-6.133-6.348-9.257-9.45-.597-.599-1.441-1.175-2.251-1.31-2.32-.363-4.753-.991-6.989-.618-8.678 1.425-16.514-.991-24.176-4.593-5.164-2.415-10.202-5.047-14.744-8.557-3.103-2.39-6.189-4.827-9.462-6.961-5.863-3.817-12.1-6.93-18.743-9.201-5.467-1.87-10.991-2.007-16.517-.316-1.184.36-2.301.969-3.901 1.665.153-.899.078-1.597.378-2.001 2.906-3.803 6.522-6.742 10.88-8.753 1.877-.869 3.676-1.872 5.588-2.666 1.974-.824 3.966-1.893 6.04-2.138 6.621-.804 13.086-.201 19.373 2.42 5.275 2.202 10.446 4.488 15.104 7.854 6.841 4.949 13.697 9.85 20.557 14.765.471.338 1.002.59 1.857.628-2.053-3.093-3.934-6.332-6.208-9.254-2.655-3.396-5.693-6.493-8.488-9.782-8.996-10.631-20.145-18.322-32.75-23.991-5.119-2.3-10.58-3.566-16.027-4.892-4.65-1.132-9.508-1.617-13.826-3.977-2.11-1.151-4.033-2.451-5.145-4.657-.297-.582-.423-1.265-.612-1.862 1.614-1.276 2.996-.423 4.234.258 1.441.81 2.81 1.822 4.057 2.909 4.285 3.705 9.284 5.925 14.745 7.037 6.622 1.349 12.716 4.035 18.73 6.897 7.68 3.668 14.451 8.776 20.859 14.262 3.923 3.352 7.054 7.634 10.537 11.498.242.273.503.513 1.253.579-1.027-3.411-1.929-6.883-3.136-10.232-1.656-4.606-3.421-9.198-5.408-13.674a639.753 639.753 0 00-10.142-21.889c-3.032-6.222-7.254-11.633-11.811-16.827-3.626-4.135-7.743-7.478-12.682-9.84-.887-.424-1.713-.934-2.552-1.441-.117-.067-.118-.334-.226-.685.433-.116.884-.377 1.303-.335 3.986.437 7.973.931 11.957 1.411.581.069 1.161.237 1.745.264 10.184.31 19.08 4.369 27.392 9.768 3.182 2.059 5.893 4.878 8.622 7.551 3.63 3.572 7.371 7.086 10.127 11.44 3.867 6.083 6.892 12.489 8.665 19.527 1.49 5.875 1.87 11.809 2.238 17.802.114 1.897.479 3.783.821 6.266.434-.848.641-1.072.673-1.32.622-4.767 1.24-9.548 1.806-14.314.621-5.245-.488-10.378-1.26-15.518-1.204-8.118-4.113-15.667-7.335-23.175-3.064-7.128-7.3-13.435-11.828-19.622-2.773-3.787-5.673-7.47-8.407-11.267-1.371-1.912-2.578-3.952-3.681-6.02-1.617-3.042-1.28-4.778 1.34-6.971.68 1.07 1.583 2.024 1.938 3.138.595 1.853.921 3.805 1.24 5.732.493 3.047 1.484 5.694 3.537 8.211 5.453 6.698 10.767 13.617 14.514 21.406 2.955 6.144 5.943 12.307 7.806 18.997 1.648 5.89 2.172 11.939 3.504 17.857.067.25.134.499.273.912.267-.367.482-.565.557-.81.39-1.118.723-2.234 1.113-3.352 1.887-5.401 2.848-11.005 3.716-16.64.211-1.365.498-2.708.785-4.051 1.869-8.618.927-17.229-.095-25.819-.452-3.789-.972-7.618-1.947-11.31-1.704-6.465-3.975-12.736-9.455-17.486 1.66-.895 2.979-.278 4.097.323 4.519 2.377 8.972 4.87 13.434 7.346 5.184 2.86 8.542 7.517 11.639 12.301 6.331 9.769 10.55 20.316 11.855 32.009.986 8.88 1.048 17.671-1.335 26.314-1.382 5.027-3.461 9.763-6.211 14.256-4.138 6.764-9.631 12.358-14.746 18.315-2.027 2.358-3.699 5.043-5.423 7.643-.823 1.234-.69 2.465.154 3.828 2.749 4.483 2.892 9.481 2.439 14.513-.234 2.538-.772 5.046-1.105 7.583-.258 1.926.038 3.606 1.687 5.035.99.86 1.469 2.28 2.236 3.411 4.915 7.264 7.774 15.362 9.868 23.805a230.84 230.84 0 002.782 10.228c1.681 5.641 3.515 11.227 5.904 16.623.675 1.521 1.216 3.121 1.658 4.719 1.915 7.041 4.875 13.677 8.426 19.999 2.633 4.682 5.373 9.393 9.17 13.327.953.983 1.656 2.188 2.521 3.264 7.154 8.902 15.152 16.959 24.212 23.943a16.35 16.35 0 002.21 1.476c5.709 3.085 11.408 6.186 17.945 7.22.764.119 1.527.393 2.266.631.447.148.876.384 1.321.575l-.059-.012zm-21.32-6.795c.674 1.114 1.665 1.716 2.974 1.806-.986-.58-1.984-1.157-2.986-1.746-3.983-3.154-8.153-6.116-11.922-9.524-5.901-5.327-11.41-11.082-16.234-17.428-3.563-4.687-7.126-9.374-10.321-14.314-2.166-3.359-3.909-7.028-5.412-10.748-2.129-5.268-3.875-10.68-5.775-16.038-2-5.626-4.052-11.238-5.947-16.893a81.734 81.734 0 01-2.413-8.793c-1.175-5.383-2.934-10.582-5.049-15.642-.57-1.339-1.346-2.608-2.066-3.878-.717-1.257-1.47-2.491-2.213-3.741-.135.599-.025 1.062.151 1.507 3.709 9.221 6.387 18.745 8.689 28.384 2.135 8.967 4.09 17.995 7.534 26.597 3.613 9.021 7.618 17.824 12.932 26.051 3.009 4.667 6.579 8.803 10.111 13.006 3.982 4.729 8.176 9.303 13.338 12.816 4.215 2.866 8.533 5.592 12.851 8.318.46.298 1.196.158 1.797.25l-.039.01zM102.18 328.128c1.186.329 2.372.659 3.561 1.001 7.932 2.25 15.102 6.168 21.944 10.595 4.595 2.975 9.519 5.074 14.634 6.785 1.979.665 4.035 1.198 6.435.963-2.828-1.888-5.427-3.555-7.955-5.325-7.726-5.415-15.614-10.546-24.403-14.1-1.958-.798-3.923-1.566-5.887-2.334.469-.351.935-.447 1.323-.312 2.062.657 4.139 1.268 6.134 2.099 7.843 3.23 15.067 7.611 21.953 12.519 3.69 2.641 7.514 4.993 11.659 6.809 1.165.517 2.474.729 3.706 1.075-.452-1.216-1.074-1.963-1.784-2.617-7.793-7.24-16.491-13.294-25.165-19.411-5.724-4.038-11.516-7.747-18.14-10.207-6.253-2.334-12.56-3.135-19.102-2.141-1.621.251-3.234.796-4.729 1.464-2.051.901-4.01 2.045-6.006 3.101-3.558 1.895-5.89 3.224-7.923 6.399.622-.096 1.221-.116 1.786-.267 4.927-1.405 9.737-.78 14.497.758 6.96 2.243 13.488 5.446 19.603 9.421 3.357 2.182 6.479 4.75 9.687 7.168 4.571 3.46 9.586 6.112 14.772 8.507 5.944 2.754 12.116 4.576 18.706 4.653 3.231.034 6.093-1.098 9.008-3.188-1.551-.33-2.782-.83-4.002-.813-3.908.063-7.54-1.257-11.275-2.071-8.397-1.83-15.64-6.178-22.787-10.693-5.25-3.32-10.797-6.012-16.736-7.91-1.246-.397-2.329-1.289-3.495-1.962l-.018.09-.001-.056zm25.89-68.192c.586-.805 1.172-.455 1.702.05 3.202 3.025 6.573 5.892 9.525 9.139 4.668 5.136 7.651 11.385 10.633 17.578 1.653 3.44 3.438 6.845 4.655 10.444 3.059 9 3.62 18.445 4.513 27.815.546 5.818 1.542 11.531 5.839 15.965 1.979 2.03 4.091 3.926 6.207 5.835.314.282.895.295 1.799.573-.813-.935-1.437-1.373-1.678-1.956-1.447-3.565-4.268-6.636-3.963-10.854.033-.558-.25-1.143-.388-1.711-1.565-6.418-2.604-12.921-2.669-19.516-.128-13.499-3.898-25.784-12.128-36.494-2.976-3.859-6.632-7.213-10.082-10.692-7.002-7.071-15.293-12.025-25.052-14.109-5.747-1.232-11.621-1.838-17.44-2.713-.38-.053-.784.07-1.534.158 1.344.92 2.284 1.597 3.267 2.219 3.756 2.413 6.961 5.395 9.693 8.925 2.397 3.115 5.151 5.992 7.218 9.293 5.636 9.013 9.949 18.705 13.945 28.523 2.104 5.176 4.576 10.254 6.077 15.592 2.655 9.488 7.219 17.804 13.743 25.088 1.001 1.111 2.219 2.036 3.334 3.046-.007-.814-.286-1.33-.624-1.803-3.454-5.067-6.29-10.455-8.096-16.302-1.733-5.628-3.151-11.34-4.739-17.006-2.403-8.599-4.885-17.177-10.08-24.648-.317-.45-.442-1.021-.652-1.542 1.973 2.271 3.681 4.655 4.971 7.264 3.368 6.793 5.736 13.953 7.577 21.296 2.007 8.015 4.191 15.956 8.102 23.307 1.42 2.672 4.046 6.119 6.063 7.506-.95-2.235-1.827-4.195-2.616-6.193-.75-1.909-1.587-3.823-2.062-5.806a870.9 870.9 0 01-4.638-20.986c-1.596-7.634-5.153-14.348-9.356-20.791-.284-.43-.47-.915-.705-1.372 1.094.776 1.712 1.82 2.303 2.871 2.369 4.276 5.28 8.363 6.958 12.894 2.2 5.953 3.584 12.222 4.994 18.428 1.3 5.744 2.304 11.538 5.187 16.787 1.017 1.852 1.576 2.729 3.119 3.709-.552-1.85-1.147-3.491-1.532-5.189-.618-2.676-1.306-5.348-1.612-8.066-.621-5.362-.817-10.768-1.504-16.113-.934-7.319-2.426-14.516-6.005-21.098-1.167-2.149-2.226-4.37-3.344-6.546-3.032-5.856-6.257-11.591-11.113-16.17-2.466-2.322-5.155-4.429-7.756-6.63l-.026.007-.03-.006zm41.408 74.836c.105-.028.223-.06.332-.075.169-2.521.013-5.097.569-7.539 2.237-9.87 4.97-19.621 8.86-28.992 3.514-8.468 5.463-17.206 5.008-26.412-.064-1.291 0-2.574.006-4.18.42.465.636.589.648.741.684 7.906.232 15.723-2.178 23.319-2.355 7.384-5.035 14.658-7.343 22.057-1.433 4.576-2.567 9.27-3.632 13.959-.539 2.395-.257 4.866.442 7.633.919-3.974 1.673-7.511 2.567-11 1.511-5.807 3.38-11.485 6.148-16.856 2.391-4.622 4.573-9.343 6.642-14.118a48.984 48.984 0 004.051-20.95c-.027-.837.041-1.685.053-2.533.245.019.489.038.73.044-.114 3.407-.027 6.831-.372 10.215-.873 8.661-4.154 16.631-8.251 24.13-4.211 7.699-6.727 15.899-8.887 24.272-.445 1.751-.686 3.532-.134 5.537 1.432-3.057 2.626-5.951 4.103-8.682 2.097-3.883 4.523-7.586 6.594-11.461 2.55-4.763 4.988-9.58 7.262-14.481 2.803-6.027 4.605-12.376 4.502-19.059-.068-4.611-.597-9.21-1.053-13.801-.302-3.07-.864-6.113-1.318-9.171.56.722.877 1.538.999 2.363.865 6.113 1.983 12.229 2.449 18.379.581 7.891-1.29 15.399-4.946 22.442-1.495 2.877-2.959 5.759-4.474 8.613a632.913 632.913 0 01-5.059 9.262c-2.997 5.404-6.284 10.674-7.724 16.8-.461 1.952-1.124 3.889-.458 6.636 2.076-6.057 6.246-9.819 9.847-14.02 3.259-3.799 6.621-7.528 9.629-11.528 7.471-9.922 11.011-21.127 10.739-33.589-.138-6.814-.592-13.601-2.508-20.121-2.69-9.198-6.724-17.796-12.595-25.48-2.774-3.632-5.861-6.857-10.02-8.936-2.985-1.48-5.912-3.059-8.872-4.601-.948-.492-1.905-.967-2.849-1.445 3.375 4.722 5.433 9.827 6.726 15.178 2.188 9.009 2.802 18.228 3.346 27.452.082 1.357-.148 2.755-.337 4.1-.546 3.79-1.297 7.55-1.711 11.361-.673 6.202-2.466 12.113-4.199 18.036-1.399 4.807-3.014 9.544-3.023 14.654-.004 1.562-.373 3.125-.459 4.695-.235 4.213-.484 8.43-.565 12.644-.021 1.497.449 2.989.695 4.485l.02.023zm-7.119 18.48c-.041.265-.087.516-.115.777 4.04 1.478 6.77 4.474 9.447 7.64 1.776 2.113 3.528 4.345 6.447 6.052 1.017-7.18 3.241-13.895-.076-20.815-.464 1.63-.924 3.273-1.451 5.088-.459.334-1.296.727-1.77 1.375-.783 1.068-1.584 1.071-2.782.801-2.375-.517-4.812-.792-7.24-1.084-.8-.096-1.633.1-2.447.163l-.013.003zm-87.804-67.736c-2.23-1.921-4.04-4.475-7.69-5.228 1.977 3.227 4.543 4.664 7.69 5.228zm62.992-60.253c-1.239 2.991-1.084 3.569 2.204 8.329-.299-3.057-.208-5.867-2.204-8.329zm31.675 123.252c1.67 1.142 2.754 1.879 4.148 2.828-.182-.992-.287-1.597-.388-2.077-1.144-.228-2.11-.419-3.773-.747l.013-.004zm35.545-219.288c1.801.685 3.647 1.274 5.407 2.068 7.676 3.444 14.367 8.461 20.92 13.599 4.881 3.827 8.617 8.791 12.007 13.988.291.457.569.917.896 1.35.105.127.362.142.64.236-.682-4.122-3.215-7.326-5.106-10.815-3.916-7.209-9.263-13.303-15.312-18.815-5.865-5.35-10.28-11.694-13.171-19.121-1.405-3.619-1.346-7.335-1.298-11.147 2.082-.051 2.744 1.263 3.371 2.502 2.642 5.187 3.753 10.854 4.748 16.51.387 2.232.98 4.184 2.589 5.778 2.84 2.827 5.67 5.67 8.532 8.477 6.985 6.851 11.855 15.155 16.298 23.756.139.258.311.479.727 1.085.17-.833.35-1.317.375-1.802.219-4.434 1.978-8.423 3.575-12.438.67-1.699 1.485-3.437 2.615-4.837 3.084-3.823 4.766-7.89 3.557-13.137 1.256 1.225 2.621 2.379 3.777 3.701 4.201 4.811 8.383 9.656 12.507 14.544 4.332 5.142 7.454 11.017 9.046 17.484 1.79 7.258 1.598 14.681-.618 21.845-1.047 3.39-2.86 6.549-4.401 9.775a43.653 43.653 0 00-4.187 16.246c3.006 1.347 6.08 2.634 9.077 4.053 6.802 3.228 12.699 7.698 16.67 14.118 2.43 3.922 4.119 8.337 5.938 12.605 1.304 3.083 2.265 6.3 3.38 9.463 2.285 6.534 4.783 12.969 6.21 19.818 1.744 8.397 4.416 16.586 6.238 24.961 1.548 7.14 4.216 13.896 6.432 20.8.811 2.555 2.187 4.958 3.407 7.36 4.384 8.589 8.849 17.114 14.698 24.874 4.131 5.492 9.35 9.271 15.641 11.749.664.272 1.332.558 1.898 1.306-.515-.03-1.074.035-1.551-.119-5.053-1.53-9.67-3.796-13.277-7.809-1.082-1.202-2.446-2.145-3.729-3.152-3.09-2.45-5.66-5.32-7.875-8.596-5.094-7.568-9.833-15.331-13.312-23.796-2.64-6.44-4.617-13.085-5.636-19.987-.045-.326-.117-.644-.188-.963-2.812-12.386-5.205-24.885-8.618-37.097-2.027-7.251-5.087-14.366-8.702-20.98-4.375-8.029-10.219-15.087-18.601-19.538-2.491-1.316-4.841-2.895-7.246-4.361-1.246-.763-2.464-.69-3.956-.586-4.56.308-7.242 2.897-9.504 6.43-1.278 2.002-2.789 3.87-4.187 5.793-3.812 5.255-8.54 9.66-14.098 12.809-4.692 2.65-10.192 2.759-15.567 2.441-6.632-.39-12.324-3.254-17.659-6.889-4.268-2.908-8.349-6.064-12.574-10.278 1.725-.18 2.812-.373 3.916-.402 2.224-.047 3.853-1.004 5.241-2.755 2.77-3.471 5.707-6.791 8.567-10.188.618-.742 1.131-1.555 1.637-2.239-3.874-1.227-7.678-2.403-11.453-3.628-.815-.26-1.661-.582-2.355-1.071-7.243-5.136-13.549-11.24-17.688-19.178-2.452-4.689-4.247-9.708-6.304-14.602-.611-1.44-1.081-2.932-1.599-4.341.552-.302.74-.493.924-.487 6.913.019 13.853-.124 20.764.205 2.267.11 4.516 1.364 6.7 2.27.664.273 1.087 1.116 1.802 1.895-.647.103-.896.226-1.003.142-4.733-3.332-10.202-3.316-15.641-3.349-3.356-.03-6.706.122-10.044.215-.53.015-1.049.126-1.96.244.813 2.089 1.661 3.944 2.255 5.895a55.645 55.645 0 009.011 17.563c3.738 4.921 8.168 9.432 13.657 12.379 3.383 1.809 7.304 2.686 11.068 3.661 2.01.516 3.978-.067 5.733-1.55 2.304-1.954 4.868-3.57 7.486-5.453-4.351-.804-8.536-1.301-12.556-2.39-2.643-.727-5.066-2.314-7.582-3.512l.372-.817c2.349 1.045 4.616 2.365 7.07 3.072 2.531.729 5.23.878 8.002.881-7.262-3.949-14.352-7.986-19.808-14.332 1.878.552 3.011 2.26 4.562 3.321 1.604 1.104 3.07 2.428 4.716 3.478 1.72 1.115 3.552 2.073 5.39 3.001 1.696.868 3.463 1.633 5.484 2.034-1.061-.912-2.111-1.84-3.172-2.752 3.099 1.59 6.676 2.179 9.058 5.03.582.702 1.512 2.493 3.169.853-1.918-1.54-3.899-3.05-5.791-4.653-6.629-5.68-11.621-12.601-14.989-20.604-2.339-5.577-4.036-11.439-6.136-17.123-1.606-4.367-3.393-8.672-5.087-13.001-.624-1.592-1.195-3.197-2.023-5.395 14.9 4.153 29.609 6.909 41.32 17.22-2.371-2.544-4.473-5.456-7.179-7.572-6.557-5.151-13.138-10.338-20.761-13.951-1.95-.926-3.824-1.986-5.736-2.979l.173-.299-.013.003zm64.141 31.407c.13.063.259.127.376.194-.336 1.582-.719 3.147-.999 4.728-.567 3.289-1.649 6.604-1.479 9.864.216 4.163 1.366 8.301 2.273 12.419.661 3.045 1.618 6.038 2.348 9.078.22.926.151 1.929.253 3.309 1.32-2.689 2.599-4.847 3.457-7.159 1.665-4.442 4.268-8.431 5.272-13.244 2.642-12.61-.655-23.657-8.173-33.601-3.921-5.182-8.444-9.879-12.726-14.781-.306-.354-.752-.6-1.246-.974-.902 4.56-1.745 6.348-4.449 9.858-.658.852-1.285 1.765-1.727 2.742-2.736 6.065-5.112 12.216-4.053 19.108.119.812-.383 1.72-.605 2.624 2.805 3.905 5.617 7.837 8.466 11.8-.737-4.586-1.78-9.005-2.103-13.463-.654-9.11-.233-11.108 1.97-13.443-.325 1.677-.787 2.997-.807 4.339-.072 3.775-.193 7.578.124 11.334.497 6.001 2.33 11.686 5.38 16.876 3.387 5.761 6.486 11.655 8.982 17.979.259-1.294.634-2.675.366-3.939-.691-3.262-1.504-6.505-2.523-9.679-2.816-8.882-1.86-17.495 1.593-25.975l.03.006zm-17.504 47.402l2.113-.566c-6.669-2.785-13.451-5.625-20.452-8.546-.592.257-1.469.661-2.36 1.012-5.727 2.252-10.735 5.564-14.68 10.321-3.118 3.747-6.125 7.592-9.173 11.391-2.005 2.493-4.573 4.039-8.506 4.432 3.327 2.597 5.979 4.827 8.778 6.821 5.454 3.87 11.299 6.834 18.102 7.544 5.531.586 11.071.1 15.832-2.554 5.278-2.934 9.836-7.081 13.481-12.011 1.734-2.35 3.258-4.855 4.925-7.243 1.201-1.715 2.505-3.358 4.007-5.365-5.422.398-10.057 1.739-13.585 5.427-4.879 5.106-10.745 8.31-17.53 9.973-1.031.248-2.066.694-3.655.065 2.242-.77 3.976-1.333 5.676-1.971 4.373-1.636 8.654-3.459 12.086-6.77 3.098-2.982 6.382-5.691 10.409-7.516-1.641-.137-3.302-.297-4.727.212-2.533.889-5.12 1.892-7.324 3.383-4.432 2.988-9.099 4.999-14.475 5.201-2.05.071-4.107.214-6.155.186-.778-.017-1.886-.057-1.61-1.44l-.012.06c.94.198 1.889.591 2.821.552 6.334-.304 12.443-1.449 17.837-5.103 4.272-2.903 8.792-5.043 14.179-4.573 1.139.103 2.309-.154 3.467-.239-1.021-.557-2.081-.681-3.107-.94-2.132-.555-4.233-1.202-6.35-1.802l-.035.08.023-.021zm-31.463-37.194c10.871 16.263 24.642 28.541 42.876 35.684-.206-.874-.487-1.713-1.053-2.25-2.291-2.144-4.621-4.277-7.051-6.257-5.14-4.166-10.392-8.175-15.523-12.357-8.011-6.534-14.448-14.334-18.695-23.832-.329-.755-.531-1.56-.865-2.596.593.165.748.166.779.228.334.67.668 1.34.977 2.017 3.342 7.433 8.099 13.953 14.139 19.27 7.96 7.026 16.447 13.446 24.702 20.154.378.307.643.77.956 1.151.232-.288.461-.588.694-.876-1.638-2.121-3.126-4.367-4.933-6.331-3.952-4.301-8.089-8.454-12.123-12.692-3.815-4-6.819-8.541-8.867-13.718.76.528 1.446 1.146 1.809 1.921 3.328 7.014 9.158 12.022 14.224 17.643 2.603 2.89 5.515 5.515 7.978 8.512 2.793 3.388 5.238 7.052 7.721 10.439-.692-5.471-3.045-10.58-5.415-15.643-1.973-4.212-3.927-8.458-6.327-12.429-5.219-8.661-11.547-16.42-18.9-23.439-4.992-4.769-10.799-8.01-17.108-10.399-5.06-1.923-10.318-3.327-15.522-4.845-1.574-.465-3.263-.575-5.27-.924.569 1.705.943 2.941 1.382 4.16 2.336 6.409 4.738 12.799 7.008 19.225 2.866 8.124 6.258 15.952 11.927 22.564 4.691 5.482 9.889 10.392 16.581 13.368a379.74 379.74 0 0015.295 6.412c1.732.689 3.654.878 5.493 1.285-.184.204-.356.405-.54.609-2.064-1.613-3.962-3.497-6.205-4.781-7.542-4.31-13.795-10.161-19.772-16.297-3.006-3.078-5.466-6.696-7.994-10.197-1.026-1.413-1.583-3.177-2.348-4.773l-.03-.006zm90.333 92.087c.599 3.441 1.018 6.213 1.581 8.946 1.871 8.925 3.821 17.829 5.718 26.746.497 2.329.728 4.715 1.291 7.026 1.54 6.481 4.596 12.373 7.272 18.423 3.002 6.793 7.479 12.684 11.518 18.833 1.042 1.578 2.504 2.888 3.758 4.311.092-.967-.261-1.604-.65-2.217-1.601-2.456-3.446-4.775-4.772-7.36-4.713-9.134-9.964-17.969-13.144-27.894-3.256-10.157-5.757-20.488-8.288-30.826-1.26-5.121-2.72-10.203-4.274-16.005l-.01.017zm-7.153-18.609c-1.415-7.486-5.5-15.381-9.845-19.732-5.706-5.702-14.48-10.934-19.132-11.179 13.181 6.978 23.233 16.876 28.977 30.911zm-92.108-141.556c-.273 6.489 2.075 13.049 5.967 17.071-2.197-5.574-2.095-11.651-5.967-17.071zm59.018 106.373c.253.002.511.018.765.02l.132-3.918c-.254-.002-.512-.018-.766-.02-.044 1.306-.074 2.609-.118 3.915l-.013.003zm-5.331-16.481c-.153.111-.297.206-.45.317.695 1.334 1.377 2.67 2.072 4.004.111-.058.235-.12.35-.164-.653-1.387-1.319-2.77-1.972-4.157z" fill="#EDEDED"/><path d="M155.515 132.913c-.395-.316-.823-.497-.93-.792-.938-2.45-1.938-4.869-2.679-7.371-.629-2.139-.97-4.355-1.389-6.55-.086-.427-.015-.896.063-1.339.164-.86.786-1.111 1.318-.438.673.833 1.384 1.754 1.652 2.751.693 2.586 1.179 5.241 1.701 7.873.109.562.056 1.153.082 1.723.06 1.222.111 2.46.185 4.156l-.003-.013zm-3.939-15.433c-.423 4.039 1.267 7.511 2.708 11.05-.111-3.881-.765-7.631-2.708-11.05z" fill="#C2ADD8"/><g style="mix-blend-mode:multiply" fill="#C2ADD8"><path d="M77.223 210.577c.832.929 1.662 1.845 2.507 2.771-1.06-.716-1.976-1.553-2.507-2.771zm17.544 9.866c1.987 1.135 3.964 2.287 5.959 3.405 4.534 2.557 9.258 3.039 14.077 2.317.038-.009.057-.087.238-.321-8.097-1.09-15.208-4.637-21.734-9.787 7.142 4.664 14.46 8.745 23.141 8.948-2.689-1.241-5.159-2.389-7.648-3.504-2.896-1.293-5.292-3.481-7.922-5.232-3.21-2.15-6.388-4.381-9.678-6.38-3.483-2.098-7.3-3.152-11.173-3.827-.347-.061-.698-.136-1.041-.33 1.695-.121 3.362.187 5.03.642 4.742 1.265 9.058 3.54 13.115 6.49 2.671 1.946 5.351 3.875 8.066 5.736 2.871 1.971 5.956 3.494 9.153 4.685.509.196 1.057.238 1.626.26-4.743-2.564-8.446-6.68-12.863-9.688-4.4-2.998-8.805-5.966-13.735-7.842-.295-.118-.584-.266-.807-.708.548.187 1.114.341 1.657.559 5.269 2.1 10.062 5.177 14.645 8.67 2.352 1.79 4.615 3.704 7.007 5.441 1.439 1.049 3.012 1.892 4.549 2.801.364.217.809.284 1.218.418.015-.237.065-.396.024-.444-1.886-1.889-3.348-4.217-5.543-5.797-.885-.645-1.686-1.428-2.504-2.176-2.853-2.631-5.808-5.091-9.138-7.037 1.7.184 2.983 1.359 4.258 2.361a214.399 214.399 0 019.1 7.572c1.43 1.256 2.675 2.776 3.995 4.176.236.248.485.494.915.608-1.988-3.352-3.799-6.85-6.016-10.044-4.634-6.647-10.788-10.69-18.42-12.506-5.7-1.353-11.085-.785-16.546.138-2.097.35-4.243.48-6.37.677-.814.082-1.635.092-2.648.15 2.136 2.091 4.144 4.023 6.1 6.012.931.954 1.733 2.028 2.603 3.056-.958-.904-1.917-1.809-2.89-2.71-2.08-1.944-4.172-3.884-6.269-5.839-.245-.232-.459-.501-.835-.905.46-.17.766-.347 1.098-.384.87-.081 1.752-.165 2.636-.147 2.778.067 5.438-.523 8.128-.96 3.727-.602 7.528-1.091 11.318-.512 4.117.616 8.275 1.615 12.027 3.837a33.737 33.737 0 018.152 6.708c2.946 3.338 5.08 7.151 7.278 10.948.297.511.638.982.957 1.474.756 1.157 1.654 2.135 3.438 2.371-1.177 1.119-1.668 2.522-3.365 2.542-.672.003-1.355.301-1.975.583-2.668 1.234-5.548 1.484-8.468 1.598-7.763.316-14.676-2.492-20.803-7.782-2.574-2.232-4.862-4.855-7.265-7.304.32.156.717.249.962.481 2.535 2.577 5.01 5.227 7.865 7.434.826.63 1.633 1.294 2.516 1.838 5.914 3.635 12.156 5.294 18.778 4.541.213-.023.431-.076.64-.113.206-.05.407-.114.977-.282-.754-.093-1.126-.192-1.496-.189-4.656.186-8.842-1.536-12.799-4.233-1.128-.776-2.234-1.571-3.353-2.363l.053-.101.005-.03z"/><path d="M94.467 220.413l-2.037-.999c.037-.11.086-.224.123-.334.339.178.677.357 1.007.553.333.209.632.441.956.666l-.053.1.004.014zm-2.67-1.466c-.467-.348-.921-.699-1.525-1.144.999.161.999.161 1.525 1.144zm-3.107-6.941c.373.454.73.897 1.102 1.351-.064.059-.132.104-.184.16l-1.133-1.272c.074-.076.143-.164.216-.239z"/></g><path d="M260.351 434.438c-.526-1.857-1.255-3.688-1.541-5.595-1.093-7.388-2.604-14.707-2.669-22.245-.099-10.398-.771-20.784.076-31.168.5-6.169 1.059-12.327 1.489-18.491.19-2.809.274-5.645.141-8.451-.282-5.411-.65-10.828-1.196-16.225-.449-4.353-.587-4.344-2.799-7.508 1.179-.794 2.027-1.781 1.181-3.468-2.325.933-4.676 1.872-7.508 3.011 1.18.781 1.967 1.513 2.896 1.883 2.357.972 3.444 2.876 4.082 5.153 2.371 8.481 2.72 17.082 1.535 25.784-1.241 9.126-2.881 18.231-3.432 27.411-.728 11.985-1.162 24.017 1.077 35.995 1.111 5.934 1.053 12.07 2.544 18.001 2.017 8 4.263 15.909 7.483 23.516 3.968 9.347 10.671 16.513 18.347 22.898.578.478 1.16.969 1.729 1.464.053.042.013.207.014.685-1.302-.819-2.558-1.411-3.569-2.293-8.731-7.438-15.573-16.171-19.414-27.198-3.118-8.957-5.673-18.022-7.067-27.37-1.211-8.145-2.566-16.349-2.694-24.545-.155-9.399-.103-18.867 1.12-28.269 1.247-9.577 2.117-19.194 3.029-28.808.552-5.818-.693-11.463-2.303-16.997-1.179-4.032-6.452-7.121-10.524-6.198-9.352 2.112-18.559.569-27.781-.927-9.384-1.524-17.769-5.622-25.986-10.088-2.339-1.273-4.359-3.194-6.41-4.966-3.83-3.321-7.553-6.769-11.627-10.418 2.386-1.23 4.685-2.522 7.063-3.623 3.729-1.731 7.418-3.662 11.303-4.914 5.646-1.822 11.509-1.888 17.369-.757 2.328.445 4.699.682 7.256 1.038.045-1.461-1.02-2.442-1.711-3.551-4.973-7.953-8.362-16.4-8.092-25.997.11-3.898.258-7.807.281-11.71.007-1.761.662-2.78 2.458-2.642 3.334.26 6.873.029 9.938 1.121 6.41 2.292 12.607 5.204 18.379 8.947 3.356 2.182 6.165 4.736 8.154 8.747 3.396-7.593 6.106-15.016 12.211-20.478 5.882-5.248 11.487-10.844 19.642-13.381.606 1.315 1.282 2.316 1.518 3.406a143.71 143.71 0 011.606 9.249c.838 6.12 1.208 12.282 1.276 18.468.081 8.546-.559 16.92-3.85 24.906-2.641 6.419-5.089 12.928-7.973 19.23-2 4.348-4.916 8.168-8.617 11.313-2.237 1.893-2.911 5.099-2.045 7.807.759 2.357 1.491 4.778 1.74 7.229 1.366 13.759 1.373 27.489-1.114 41.154-.365 1.997-.208 4.108-.249 6.159-.03 1.724-.004 3.448.008 5.175.016 3.682-.015 7.348.057 11.029.101 5.206.011 10.436.51 15.606.606 6.464 1.749 12.882 2.616 19.319.109.828.015 1.684.012 2.514l.09.019-.059.044zm-46.129-142.649c1.038.2 2.108.308 3.109.63 1.757.571 3.457 1.297 5.185 1.917 4.5 1.622 9 3.188 12.603 6.556 1.313 1.224 2.933 2.126 5.052 3.626-3.719-4.532-6.949-8.45-10.161-12.401-3.127-3.847-6.875-7.232-9.401-12.352 4.975 5.702 9.515 10.886 14.12 16.152l-11.492-24.509c.21-.113.419-.225.631-.324 5.241 11.525 10.383 23.104 17.878 31.648-5.157-11.055-8.851-24.317-15.879-36.109.791.801 1.383 1.698 1.975 2.594 3.591 5.369 5.799 11.404 8.252 17.303 1.662 4 3.302 8.02 4.956 12.037-2.013-10.871-.39-21.407 1.411-31.695-.641-.659-1.44-1.176-1.835-1.914-1.33-2.443-3.227-4.271-5.453-5.911-5.937-4.36-12.643-7.178-19.473-9.667-3.074-1.132-6.466-1.925-10.151-.713-.154 1.209-.423 2.463-.448 3.736-.082 3.581.091 7.165-.106 10.735-.212 4.094.661 7.982 2.037 11.75 1.606 4.367 3.363 8.665 6.156 12.475.911 1.247 2.111 2.628 1.06 4.429-1.251-.101-2.539-.079-3.773-.325-8.675-1.714-17.233-1.939-25.579 1.62-1.895.803-3.869 1.417-5.73 2.295-2.188 1.022-4.382 2.075-6.365 3.703 2.088 1.861 4.085 3.38 5.753 5.198 5.83 6.372 13.034 10.787 20.799 14.193 9.022 3.956 18.705 5.596 28.486 6.239 3.98.256 8.028.086 11.992-.4 2.862-.344 5.645-1.456 8.423-2.327 1-.31 1.826-.953.787-1.997-.649.413-1.234 1.118-1.86 1.145-4.401.166-8.794.204-13.191.229-.745.002-1.503-.203-2.232-.401-4.382-1.232-8.75-2.467-13.126-3.728-1.57-.452-3.131-.92-4.656-1.468-.59-.208-1.073-.697-1.616-1.044 1.89.07 3.539.557 5.224.963 3.793.925 7.766 1.366 11.338 2.829 4.832 1.969 9.759.93 14.719 1.43-3.064-2.457-5.682-5.399-9.515-6.581-2.688-.841-5.369-1.712-8.088-2.461-5.332-1.47-10.72-2.727-16.008-4.349-2.588-.784-5.277-1.526-7.441-3.409 2.183.429 4.222 1.317 6.35 1.858 6.927 1.802 13.88 3.442 20.816 5.228 3.9 1.009 7.692 2.3 10.82 4.993.381.32.863.542 1.299.805-5.65-6.646-13.641-10.061-20.325-15.263 8.855 4.957 17.887 9.628 25.319 17.048-.79-3.263-1.981-6.081-4.053-8.354-5.611-6.135-11.789-11.444-20.032-13.906-2.965-.88-5.731-2.488-8.574-3.752l.013-.004zm60.04-57.618c-.651.09-1.07.104-1.477.213-3.794.96-6.673 3.448-9.791 5.62-8.973 6.259-14.652 14.73-18.234 24.99-3.009 8.614-3.036 17.442-3.16 26.325.002.323.034.652.092.974 1.726 8.907 5.25 17.178 9.155 26.078-1.542-15.048-1.464-29.405 1.127-43.676-.459 11.097-2.115 22.191-.115 33.332 1.479-5.405 2.739-10.835 3.906-16.297 1.139-5.356 1.485-10.893 3.627-16.025-.786 5.992-1.522 12.014-2.967 17.86-1.425 5.812-2.477 11.651-3.096 17.585-.061.664.066 1.347.139 2.566 4.283-5.017 6.081-10.648 8.208-16.043 2.138-5.413 3.707-11.053 5.529-16.592-.231 7.012-2.611 13.46-5.499 19.749-2.862 6.226-5.9 12.372-9.115 19.114 1.175-.498 1.867-.697 2.457-1.066 5.304-3.307 9.046-7.982 11.661-13.606a132.996 132.996 0 002.723-6.273c1.956-4.829 3.915-9.645 5.749-14.512.795-2.126 1.638-4.335 1.87-6.564 1.034-10.055 1.221-20.122-.082-30.184-.175-1.388-.285-2.794-.433-4.189-.315-3.222-.879-6.377-2.294-9.402l.02.023z" fill="#C2ADD8"/><path d="M72.003 52.901c.662.584 1.181 1.047 1.705 1.523 3.36 3.059 6.16 6.584 8.552 10.494 2.224 3.642 3.305 7.543 3.58 11.704.051.821.11 1.67.05 2.477-.07.866-.298 1.702-.482 2.696-.389-.185-.714-.287-.973-.49-1.624-1.332-2.913-2.96-3.998-4.78-1.198-2.033-2.442-4.04-3.53-6.114-1.779-3.4-3.245-6.935-4.014-10.689-.416-1.989-.702-3.996-1.025-5.994-.035-.175.06-.369.152-.817l-.017-.01zm12.962 23.587c.344-2.123-.349-4.184-.815-6.26-.157-.71-.383-1.43-.722-2.067-2.555-4.79-5.634-9.177-9.685-12.783-.287-.254-.616-.468-1.107-.825.319 4.857 1.667 9.186 3.65 13.37 2.73 5.763 5.99 10.756 7.55 11.51-1.085-2.062-2.194-4.018-3.175-6.049-1.008-2.08-1.906-4.202-2.817-6.32-.862-1.99-2.283-3.755-2.577-5.987.23.098.387.228.448.397.24.675.363 1.408.676 2.05 1.572 3.24 3.17 6.474 4.819 9.694.88 1.717 1.845 3.397 2.76 5.091.304.56.62 1.117.928 1.69l.315-.079c-.036-.472.111-1.16-.142-1.393-.778-.71-.944-1.7-1.408-2.546-.47-.871-.827-1.814-1.285-2.69-1.184-2.276-2.394-4.546-3.575-6.81a1.428 1.428 0 01-.162-.44c-.04-.145-.014-.293-.016-.448 1.734 3.043 3.272 6.108 5.203 9.23l.103-1.484c.054 0 .112.015.166.015l.868 3.134zm30.876 74.894c-10.045-17.418-6.714-39.23 6.904-50.394.112.301.255.566.289.829.345 4.241 1.679 8.226 3.508 12.105.472.998.733 2.105.998 3.182.773 3.238 1.449 6.47 1.345 9.793-.216 6.191-1.905 11.743-5.486 16.501-1.102 1.468-2.216 2.939-3.451 4.269-1.24 1.316-2.669 2.436-4.09 3.725l-.017-.01zm2.534-38.192c.099.062.197.123.308.182-1.196 4.118-2.251 8.258-2.327 12.674-.12 6.482.141 11.657.768 13.06 1.248-6.443 1.943-12.937 5.058-18.909-1.087 3.649-2.3 6.901-3.01 10.315-.719 3.43-1.447 6.877-1.641 10.45 1.324-2.579 1.691-5.638 3.351-8.027-.828 2.714-1.747 5.394-2.591 8.099-.827 2.671-1.576 5.381-1.559 8.375 3.058-2.061 5.306-4.794 7.162-7.817 2.37-3.862 3.883-8.143 4.231-12.925.395-5.421-.823-10.605-2.797-15.705-1.053-2.712-2.257-5.387-2.589-8.304-.07-.625-.34-1.244-.541-1.952-12.591 9.857-15.249 32.147-6.695 46.446.135-.376.277-.681.357-1.015.617-2.463.505-5.034.454-7.577-.055-2.656-.273-5.315-.437-7.973-.358-5.894.232-11.62 1.746-17.172.2-.762.491-1.49.749-2.238l.003.013z" fill="#EDEDED"/><path d="M121.131 132.007c.818-1.403 1.631-2.819 2.461-4.224-.534 1.579-1.51 2.905-2.461 4.224z" fill="#EDEDED"/></svg>