<svg xmlns="http://www.w3.org/2000/svg"><defs><symbol id="location" viewBox="0 0 24 24" fill="none"><path d="M4.589 12.306h0c.625 2.414 2.155 4.981 4.47 7.614.32.365.836.9 1.286 1.346.226.225.441.432.612.59a5.968 5.968 0 00.335.289h.002c.022.017.094.07.187.11h0c.114.047.284.109.487.114.221.006.415-.054.585-.145.28-.15.58-.438.928-.78h0c3.851-3.786 6.222-7.949 6.222-11.373 0-3.03-1.714-5.74-4.454-7.05h0a7.72 7.72 0 00-4.256-.66 7.619 7.619 0 00-4.408 2.183c-2.036 2.029-2.747 4.864-1.996 7.762zm7.087-5.467h0c2.026-.176 3.653 1.445 3.482 3.457a3.197 3.197 0 01-.976 2.006c-1.553 1.464-4.08 1.012-5.02-.885a3.091 3.091 0 01-.325-1.121c-.113-1.34.567-2.551 1.74-3.132h0a3.14 3.14 0 011.099-.325z" stroke="currentColor" stroke-width="1.406"/></symbol><symbol id="clock" viewBox="0 0 24 24" fill="none"><path d="M12 6.6V12l3.6 1.8M21 12a9 9 0 11-18 0 9 9 0 0118 0z" stroke="currentColor" stroke-width="1.406" stroke-linecap="round" stroke-linejoin="round"/></symbol><symbol id="whatsapp" viewBox="0 0 24 24" fill="none"><path fill-rule="evenodd" clip-rule="evenodd" d="M2.756 21.382l3.785-.992.365.217A9.987 9.987 0 0011.996 22H12c5.512 0 9.998-4.484 10-9.996a9.934 9.934 0 00-2.926-7.072A9.934 9.934 0 0012.004 2C6.488 2 2.002 6.484 2 11.995a9.97 9.97 0 001.529 5.32l.238.379-1.01 3.688zm14.894-6.788c.21.101.351.17.412.27.075.126.075.727-.176 1.43-.25.702-1.451 1.342-2.029 1.428-.518.078-1.173.11-1.893-.119a17.286 17.286 0 01-1.714-.633c-2.819-1.216-4.723-3.947-5.083-4.463l-.053-.074-.002-.003c-.16-.213-1.225-1.634-1.225-3.106 0-1.384.68-2.11.993-2.444l.059-.063c.275-.3.601-.376.802-.376a13.134 13.134 0 01.643.011c.175 0 .394-.002.61.515l.331.806c.259.63.545 1.325.595 1.426.075.15.125.326.025.526l-.042.086c-.075.154-.13.267-.259.416a8.39 8.39 0 00-.154.185c-.103.125-.206.251-.297.341-.15.15-.307.313-.131.613.175.301.778 1.285 1.672 2.082a7.736 7.736 0 002.219 1.402c.083.036.15.065.199.09.3.15.476.125.65-.075.176-.201.752-.878.953-1.179.2-.3.4-.25.676-.15s1.754.827 2.054.978l.165.08z" fill="currentColor"/></symbol><symbol id="vk" viewBox="0 0 24 24" fill="none"><path fill-rule="evenodd" clip-rule="evenodd" d="M21.53 6.877c.148-.495 0-.855-.657-.855H18.69c-.55 0-.805.315-.953.652 0 0-1.123 2.877-2.69 4.743-.509.54-.742.719-1.017.719-.148 0-.339-.18-.339-.674V6.854c0-.584-.17-.854-.635-.854H9.625a.54.54 0 00-.55.54c0 .561.783.696.868 2.27v3.416c0 .742-.127.876-.402.876-.742 0-2.542-2.899-3.622-6.203C5.707 6.247 5.495 6 4.944 6H2.741C2.106 6 2 6.315 2 6.652c0 .607.741 3.663 3.453 7.71 1.8 2.764 4.363 4.247 6.672 4.247 1.398 0 1.567-.337 1.567-.899v-2.09c0-.675.127-.787.572-.787.318 0 .89.18 2.182 1.506 1.482 1.573 1.737 2.293 2.563 2.293h2.181c.636 0 .932-.338.763-.99-.19-.651-.91-1.595-1.843-2.719-.508-.63-1.27-1.326-1.504-1.663-.317-.45-.233-.63 0-1.034-.02 0 2.648-4 2.923-5.35z" fill="currentColor"/></symbol><symbol id="telegram" viewBox="0 0 24 24" fill="none"><path d="M9.835 14.55l-.313 4.89c.46 0 .663-.22.92-.48l2.21-2.24 4.595 3.542c.846.486 1.456.234 1.667-.82L21.93 4.61c.309-1.291-.472-1.877-1.281-1.494L2.934 10.242c-1.21.506-1.202 1.21-.22 1.524l4.546 1.48 10.525-6.927c.497-.315.953-.146.578.201l-8.528 8.029z" fill="currentColor"/></symbol><symbol id="phone" viewBox="0 0 24 24" fill="none"><path d="M18.82 14.511c-.722-.713-1.625-.713-2.343 0-.548.544-1.096 1.087-1.634 1.64-.148.151-.272.183-.452.082-.354-.193-.732-.35-1.072-.561-1.589-1-2.92-2.284-4.098-3.73-.585-.718-1.105-1.486-1.468-2.352-.074-.175-.06-.29.082-.433.548-.53 1.082-1.072 1.621-1.616.75-.755.75-1.639-.005-2.398-.428-.433-.856-.857-1.284-1.29-.442-.441-.88-.888-1.326-1.325-.723-.705-1.625-.705-2.343.004-.553.544-1.082 1.1-1.644 1.635-.52.492-.783 1.095-.838 1.8-.087 1.146.193 2.228.59 3.282.81 2.182 2.043 4.12 3.54 5.898 2.02 2.403 4.433 4.304 7.256 5.676 1.27.617 2.587 1.091 4.019 1.17.985.055 1.841-.194 2.527-.963.47-.524 1-1.003 1.497-1.505.736-.746.74-1.648.009-2.385-.875-.88-1.754-1.754-2.634-2.629z" fill="currentColor"/></symbol><symbol id="plus" viewBox="0 0 16 17" fill="none"><path d="M7.15 16.248V9.095H0V7.401h7.15V.248h1.662v7.153H16v1.694H8.812v7.153H7.15z" fill="currentColor"/></symbol><symbol id="arrow-left" viewBox="0 0 24 24" fill="none"><path d="M22 13a1 1 0 100-2v2zM1.293 11.293a1 1 0 000 1.414l6.364 6.364a1 1 0 001.414-1.414L3.414 12l5.657-5.657A1 1 0 007.657 4.93l-6.364 6.364zM22 11H2v2h20v-2z" fill="currentColor"/></symbol><symbol id="arrow-right" viewBox="0 0 24 24" fill="none"><path d="M2 11a1 1 0 100 2v-2zm20.707 1.707a1 1 0 000-1.414l-6.364-6.364a1 1 0 10-1.414 1.414L20.586 12l-5.657 5.657a1 1 0 001.414 1.414l6.364-6.364zM2 13h20v-2H2v2z" fill="currentColor"/></symbol><symbol id="time" viewBox="0 0 24 24" fill="none"><path fill-rule="evenodd" clip-rule="evenodd" d="M11.531 3.044a9.386 9.386 0 00-5.54 2.698C4.7 7.028 3.761 8.75 3.436 10.426c-.037.19-.076.344-.087.343-.01 0-.08-.092-.156-.203-.184-.272-.353-.382-.587-.382-.204 0-.386.1-.525.287-.061.082-.082.168-.082.337v.228l.705 1.051c.472.705.748 1.08.837 1.14a.61.61 0 00.563.033c.07-.03.526-.457 1.014-.949.756-.762.891-.916.914-1.041.076-.414-.206-.773-.609-.773-.211 0-.284.041-.58.327l-.247.24.028-.156c.167-.968.637-2.14 1.196-2.984.478-.723 1.235-1.535 1.874-2.014 2.312-1.73 5.241-2.139 7.902-1.102 1.059.412 1.871.94 2.716 1.762a8.173 8.173 0 012.386 4.73c.081.568.061 1.782-.039 2.366-.417 2.431-1.801 4.46-3.9 5.715-1.303.779-2.94 1.184-4.524 1.12-2.33-.095-4.367-1.137-5.854-2.994-.164-.204-.311-.348-.393-.382a.626.626 0 00-.86.707c.052.277.897 1.252 1.58 1.823 1.288 1.078 2.738 1.736 4.45 2.02.607.1 2.194.1 2.838-.002 2.038-.32 3.828-1.225 5.267-2.664a9.288 9.288 0 002.463-4.3c.223-.872.273-1.3.273-2.334s-.05-1.461-.273-2.334a9.421 9.421 0 00-3.189-4.968 10.26 10.26 0 00-2.676-1.52 11.38 11.38 0 00-1.825-.47c-.578-.09-1.925-.112-2.506-.04zm.529 3.437a.671.671 0 00-.33.35c-.029.075-.042 1.067-.042 3.066 0 2.68.006 2.968.065 3.093.052.109.48.448 2.018 1.602 1.074.806 1.997 1.481 2.051 1.502.274.104.654-.039.773-.29.087-.182.082-.446-.012-.6-.092-.15-.09-.149-2.062-1.638l-1.579-1.193-.01-2.774c-.01-2.733-.012-2.776-.092-2.882a1.093 1.093 0 00-.183-.185c-.13-.097-.441-.123-.597-.051z" fill="currentColor"/></symbol><symbol id="phone-outline" viewBox="0 0 24 24" fill="none"><path d="M20.964 16.477v2.71a1.807 1.807 0 01-1.97 1.806A17.876 17.876 0 0111.2 18.22a17.613 17.613 0 01-5.42-5.42 17.875 17.875 0 01-2.773-7.83A1.807 1.807 0 014.805 3h2.71A1.806 1.806 0 019.32 4.554c.114.867.326 1.718.632 2.538a1.807 1.807 0 01-.406 1.906L8.4 10.145a14.452 14.452 0 005.42 5.42l1.146-1.148a1.806 1.806 0 011.906-.406c.82.305 1.671.518 2.538.632a1.806 1.806 0 011.554 1.834z" stroke="currentColor" stroke-width="1.7" stroke-linecap="round" stroke-linejoin="round"/></symbol><symbol id="mail-outline" viewBox="0 0 24 24" fill="none"><path d="M22 5.964c0-1.1-.9-2-2-2H4c-1.1 0-2 .9-2 2m20 0v12c0 1.1-.9 2-2 2H4c-1.1 0-2-.9-2-2v-12m20 0l-10 7-10-7" stroke="currentColor" stroke-width="1.7" stroke-linecap="round" stroke-linejoin="round"/></symbol><symbol id="arrow-top-right" viewBox="0 0 7 8" fill="none"><path d="M.611 6.111a.55.55 0 00.778.778L.61 6.11zM6.55 1.5A.55.55 0 006 .95H1.05a.55.55 0 100 1.1h4.4v4.4a.55.55 0 101.1 0V1.5zM1.389 6.889l5-5-.778-.778-5 5 .778.778z" fill="currentColor"/></symbol><symbol id="calendar" viewBox="0 0 24 24" fill="none"><path d="M6.889 11h1.944v2H6.89v-2zm0 4h1.944v2H6.89v-2zm3.889-4h1.944v2h-1.944v-2zm0 4h1.944v2h-1.944v-2zm3.889-4h1.944v2h-1.944v-2zm0 4h1.944v2h-1.944v-2z" fill="currentColor"/><path d="M4.944 22h13.612c1.072 0 1.944-.897 1.944-2V6c0-1.103-.872-2-1.944-2H16.61V2h-1.944v2H8.833V2H6.89v2H4.944C3.872 4 3 4.897 3 6v14c0 1.103.872 2 1.944 2zM18.556 8v12H4.944V8h13.612z" fill="currentColor"/></symbol><symbol id="cancel" viewBox="0 0 24 24" fill="none"><rect x="3.6" y="3.6" width="16.8" height="16.8" rx="8.4" stroke="currentColor" stroke-width="1.2"/><path transform="rotate(45 17.94 5.212)" fill="currentColor" d="M17.94 5.212h1.2v18h-1.2z"/></symbol></defs></svg>