<svg width="76" height="115" fill="none" xmlns="http://www.w3.org/2000/svg"><path opacity=".4" d="M72.98 65.741c0 5.58 3.205 14.598 2.264 19.256-2.243 11.13-10.563 15.008-15.856 15.008-7.506 0-13.08-13.357-13.08-32.28 0-5.65 3.344-17.02 4.302-21.718 2.257-11.038 3.512-14.526 8.778-14.526 4.343 0 9.971 6.534 12.457 14.526 1.813 5.82 1.132 11.76 1.132 19.734h.004z" fill="#B850EF"/><path opacity=".2" d="M49.037 11.534c.591-2.034.492-4.23 1.337-5.827 2.017-3.816 4.305-4.462 6.288-3.888 1.621.472 3.642 4.976 3.745 7.92.075 2.168-2 4.893-.92 6.395 2.15 2.992-2.456 4.476-3.837 4.513-4.387.12-3.255-2.24-5.232-2.814-1.631-.472-2.226-3.392-1.381-6.299zM32.226 50.726c.547-1.16.77-3.344 1.422-4.216 1.56-2.09 3.666-2.076 4.764-1.556 1.556.738 1.402 4.055-.455 7.98-.554 1.174-2.366 3.205-3.026 4.084-1.553 2.069-2.154 2.67-3.249 2.15-.902-.427-1.426-2.335-1.159-4.236.195-1.385.92-2.551 1.703-4.206z" fill="#B850EF"/><path fill-rule="evenodd" clip-rule="evenodd" d="M37.947 46.209c.147 4.305.222 9.325-.797 13.452-.328 1.334-.879 2.64-2.274 2.76-1.696.143-2.68-.763-2.95-2.185-.497-2.616 1.005-6.06 1.99-7.995.437-.862 1.336-2.414 1.897-3.119.441-.557.708-.9 1.091-1.46.267-.393.715-1.077 1.04-1.457l.003.004zm2.65-31.508c-.5.188-1.16.745-1.58 1.087-.256.209-1.364 1.02-1.37 1.255-.025.882 1.319-.571 1.422-.653 1.053-.828 3.57-3.088 4.746-3.177.715-.051 1.443.414 1.898.715 1.009.663 1.43 1.121 1.43 1.118.006-.014.027.062.054.062l.082-.096c-.315-.202-.564-.486-.838-.711l-.102-.082c-.855-.678-1.97-1.56-3.177-1.112-2.384.886-1.642 1.625-3.215 1.317-3.416-.67-2.934 1.09-3.587 1.727-.273.27-.502.013-1.203.8a2.667 2.667 0 00-.62 1.285c-.232 1.208.086 2.346-.215 3.71-.608 2.764-1.692 3.632-1.956 5.882l-.721 7.093c-.103 1.06-.315 2.54-.28 3.508.044-1.679.482-4.141.7-5.984.175-1.443.418-4.538.814-5.752.216-.66.722-1.552 1.033-2.247 1.939-4.329.195-6.654 2.202-7.564l.007.705c.537.034.468.003.554-.493.116-.687.335-1.545.739-2.086.475-.636 1.381-.543 2.328-.516.058 0 .383.014.417.02l.438.189zm22.354-1.696c.814 3.012 2.1 7.075 3.224 9.892.674 1.683 1.252 2.982 2.435 4.128 1.963 1.898 1.32 6.627.81 9.055-.994 4.75-3.125 8.515-4.947 12.543-2.456 5.434-6.272 14.752-3.793 20.955.565 1.416.872 1.648 1.625 2.753.632.923 1.155 1.662 1.723 2.65 2.25 3.915 3.703 8.668 3.375 14.123-.294 4.91-2.188 9.581-3.833 13.661-1.115 2.759-2.657 6.548-3.888 9.229L58.386 115c.29-.41.55-1.108.755-1.532l2.066-4.5c2.523-5.841 6.158-13.288 6.64-19.687.397-5.31-.984-10.508-3.234-14.334-.582-.989-1.118-1.792-1.69-2.688-.29-.458-.632-.807-.916-1.265-1.703-2.74-1.816-5.892-1.316-9.192.745-4.941 2.64-9.08 4.373-13.217 1.833-4.367 3.789-7.434 4.832-12.656.472-2.366.766-5.683-.171-7.827-1.06-2.421-1.976-.315-5.656-11.838-.297-.938-2.024-6.269-1.983-6.662l.861 3.413.004-.01zm-16.68 4.291c.413-.633 1.056-.335 1.415.106-.133.287-.363.708-.633.903-.16-.215-.69-.787-.786-1.009h.003zm.608 1.378c-.557 1.118-2.691 3.769-3.58 4.675-.435.44-1.566 1.44-2.387 1.713-.701.236-.995.13-1.48.612-2.791 2.763-1.786 14.16-1.557 18.315.065 1.197.216 1.231-.243 1.85-.608.824-1.1 1.6-1.713 2.387-2.14 2.756-5.064 8.009-4.534 11.849.184 1.33.69 2.052 1.586 2.503 1.033.523 2.353.516 3.26-.103 2.273-1.549 2.444-10.607 2.376-14.109a78.88 78.88 0 00-.062-2.004c-.05-1.19-.13-.851.373-1.7 1.772-2.974 2.732-4.735 4.264-8.032 1.943-4.175 2.394-7.18 5.663-10.836 1.85-2.07 4.983-3.717 8.04-4.36.578-.123 1.183-.226 1.764-.332.438-.079 1.368-.126 1.754-.232-2.127-.038-4.979.66-7.034 1.521-1.75.736-3.905 2.274-5 3.564-2.499 2.937-2.629 3.782-4.103 7.287-.926 2.198-4.8 10.457-5.81 11.233-.266-5.328-.998-11.011.322-16.27.273-1.095.592-2.309 1.823-2.555 1.33-.267 2.934-1.716 3.792-2.76.318-.386.66-.79.974-1.213.383-.517 1.618-2.103 1.782-2.606 1.42.667 2.031 2.954 4.463 1.474 1.107-.674 2.445-2.179 3.55-3.19.574-.527 1.087-1.221 1.668-1.796.622-.612 1.005-.893 1.306-2.065.568-2.21.11-3.998-.096-6.118 1.775.9 2.462-1.248 2.705-2.852.27-1.775.181-4.134-1.374-4.524.84.465 1.084.711 1.285 1.816.15.82.096 1.922-.078 2.828-.814 4.226-2.538 2.387-2.832 2.322.246 2.055.68 4.1.161 6.206-.294 1.19-.595 1.494-1.252 2.124-1.798 1.716-2.721 3.139-5.098 4.832-.988.707-1.375.748-2.387.088-.506-.328-1.378-1.155-1.686-1.555.178-.315.65-.992.701-1.368-.287-.428-1.125-1.119-1.901-.62-.633.408-.687 1.105-1.142 1.779-.431.636-.838 1.077-1.447 1.47-1.053.684-3.412 1.502-1.542-1.545a7.9 7.9 0 01.554-.81l.585-.8c0-.028-.041-.028-.058-.045l-1.392 1.802c-.339.489-1.026 1.716-.37 2.28.896.534 3.567-.724 4.62-2.947l.78.814.007.003z" fill="#000"/><path d="M15.675 69.96h.14c.188 0 .356.175.496.524l3.133 4.681h.273c2.223-3.358 3.368-5.06 3.433-5.115.082-.058.14-.09.178-.09h.202c.154 0 .27.148.345.442 0 .123-.369.69-1.104 1.7l-2.753 4.106v5.468c-.041.35-.157.524-.345.524h-.14c-.182 0-.312-.117-.38-.356v-5.461c0-.13-.486-.913-1.45-2.346l-2.353-3.54-.017-.115c.065-.284.181-.425.346-.425l-.004.004zm17.314-.02c2.065 0 3.792.958 5.184 2.876.625 1.084.936 2.182.936 3.283 0 2.041-.926 3.741-2.78 5.099-1.043.666-2.137.998-3.282.998h-.134c-2.106 0-3.826-.981-5.16-2.948a6.045 6.045 0 01-.903-3.21c0-1.953.862-3.598 2.585-4.938 1.115-.773 2.299-1.16 3.55-1.16h.004zm-5.273 6.197c0 1.686.741 3.105 2.23 4.257.933.633 1.92.947 2.974.947h.168c1.651 0 3.047-.732 4.185-2.195.653-.944.982-1.97.982-3.081 0-1.905-.869-3.413-2.61-4.52-.861-.497-1.747-.743-2.653-.743-1.74 0-3.184.756-4.33 2.264-.632.91-.947 1.932-.947 3.07zm14.977-6.177h.106c.27.056.407.158.407.312v7.133c0 1.618.469 2.705 1.41 3.266a3.13 3.13 0 001.965.674c1.399 0 2.449-.719 3.15-2.151.147-.448.222-.913.222-1.389v-7.417c.048-.284.174-.424.38-.424h.078c.267.055.397.181.397.38v7.797c0 1.254-.609 2.356-1.823 3.3-.762.505-1.532.762-2.308.762h-.229c-1.317 0-2.462-.65-3.433-1.946-.441-.69-.664-1.552-.664-2.585v-7.184c.035-.35.15-.524.346-.524l-.004-.003zM5.998 89.425c1.303 0 2.465.356 3.488 1.07a.454.454 0 01.106.274v.034c0 .219-.157.356-.469.417-.024 0-.42-.18-1.193-.547a4.407 4.407 0 00-1.594-.318h-.54c-1.31 0-2.558.63-3.744 1.884-.773 1.057-1.16 2.138-1.16 3.249v.133c0 1.813.838 3.29 2.514 4.435.872.496 1.75.743 2.63.743h.133c.862 0 1.761-.254 2.698-.763v-3.4h-2.62c-.283-.047-.423-.184-.423-.416v-.01c.047-.288.18-.435.406-.435h3.116c.205 0 .331.144.38.434v3.69c0 .448-.097.722-.285.814-1.108.65-2.181.975-3.21.975h-.195c-2.018 0-3.707-.937-5.072-2.815C.321 97.817 0 96.713 0 95.556c0-2.051.913-3.75 2.742-5.098 1.122-.691 2.206-1.036 3.256-1.036v.003zm7.171.028h.106c.27.054.407.157.407.31v11.07h5.68c.229 0 .366.154.407.461-.076.267-.212.4-.407.4h-6.125c-.219 0-.355-.157-.417-.468V89.979c.034-.349.15-.523.345-.523l.004-.004zm14.431-.021c2.065 0 3.792.957 5.183 2.876.626 1.084.937 2.181.937 3.283 0 2.041-.926 3.74-2.78 5.098-1.043.667-2.137.999-3.283.999h-.133c-2.106 0-3.826-.982-5.16-2.948a6.045 6.045 0 01-.903-3.211c0-1.953.862-3.597 2.585-4.938 1.115-.773 2.298-1.16 3.55-1.16h.003zm-5.274 6.196c0 1.686.742 3.105 2.23 4.258.933.632 1.922.947 2.975.947h.168c1.651 0 3.046-.732 4.185-2.196.653-.943.981-1.97.981-3.08 0-1.905-.868-3.413-2.609-4.521-.861-.496-1.747-.742-2.653-.742-1.74 0-3.184.755-4.33 2.263-.632.91-.947 1.933-.947 3.071zm14.951-6.203h.14c.253 0 .427.28.523.841l2.53 8.778h.4c1.748-6.172 2.668-9.328 2.76-9.468.096-.1.192-.151.29-.151h.097c.27 0 .458.345.557 1.036.164.448.998 3.32 2.496 8.62h.373l2.753-9.468c.096-.123.181-.184.267-.184h.116c.267.054.396.157.396.31v.134l-3.361 11.664c-.113.106-.226.161-.335.161h-.034c-.291 0-.486-.356-.585-1.064-1.457-4.944-2.288-7.83-2.496-8.665H43.8l-2.753 9.541c-.099.123-.215.184-.345.184h-.133c-.236 0-.41-.365-.523-1.097-1.919-6.532-2.952-10.115-3.105-10.751.058-.277.17-.418.335-.418v-.003z" fill="#000"/></svg>