<svg width="55" height="55" fill="none" xmlns="http://www.w3.org/2000/svg"><mask id="a" style="mask-type:luminance" maskUnits="userSpaceOnUse" x="0" y="0" width="55" height="55"><path d="M27.36 54.722c15.112 0 27.362-12.25 27.362-27.361S42.472 0 27.36 0 0 12.25 0 27.36c0 15.112 12.25 27.362 27.36 27.362z" fill="#fff"/></mask><g mask="url(#a)"><path opacity=".4" d="M57.598-3.676h-61.72v61.72h61.72v-61.72z" fill="#E2B5E2"/><path opacity=".4" d="M43.431 30.706c0 2.359 1.355 6.17.957 8.139-.948 4.705-4.465 6.344-6.702 6.344-3.173 0-5.529-5.646-5.529-13.645 0-2.388 1.414-7.194 1.818-9.18.954-4.666 1.485-6.14 3.71-6.14 1.837 0 4.216 2.762 5.267 6.14.766 2.46.478 4.97.478 8.342h.002z" fill="#B850EF"/><path opacity=".2" d="M33.31 7.792c.25-.86.209-1.788.566-2.463.852-1.613 1.82-1.886 2.658-1.643.685.2 1.54 2.103 1.583 3.348.031.916-.846 2.068-.39 2.702.91 1.265-1.037 1.893-1.621 1.909-1.855.05-1.376-.947-2.212-1.19-.689-.2-.94-1.434-.584-2.663zm-7.105 16.567c.23-.49.325-1.414.601-1.783.66-.883 1.55-.877 2.014-.657.657.312.592 1.714-.193 3.373-.234.496-1 1.355-1.279 1.726-.656.875-.91 1.13-1.373.91-.382-.181-.603-.988-.49-1.791.082-.586.389-1.079.72-1.778z" fill="#B850EF"/><path fill-rule="evenodd" clip-rule="evenodd" d="M28.623 22.45c.062 1.819.094 3.941-.337 5.686-.139.563-.371 1.116-.961 1.166-.717.06-1.133-.322-1.247-.924-.21-1.105.425-2.56.84-3.379.186-.364.566-1.02.803-1.318.186-.236.3-.38.461-.617.113-.167.302-.456.44-.616v.001zm1.12-13.32c-.21.08-.49.316-.668.46-.108.089-.576.431-.58.531-.01.373.559-.241.602-.276.445-.35 1.51-1.305 2.006-1.343.302-.022.61.175.802.302.427.28.605.474.605.473.003-.006.011.026.023.026l.035-.04c-.133-.086-.239-.206-.355-.301l-.043-.035c-.361-.286-.833-.66-1.343-.47-1.007.375-.694.687-1.359.557-1.444-.284-1.24.46-1.516.73-.115.114-.212.006-.509.338-.125.142-.218.32-.261.543-.098.51.036.992-.091 1.569-.258 1.168-.716 1.535-.827 2.486l-.305 2.998c-.043.448-.133 1.074-.119 1.483.02-.71.204-1.75.297-2.53.073-.61.176-1.918.344-2.431.09-.279.305-.656.436-.95.82-1.83.083-2.813.931-3.197l.003.298c.227.014.198.001.234-.208.05-.29.142-.654.312-.882.201-.269.584-.23.985-.218.024 0 .162.005.176.008l.185.08zm9.449-.716c.344 1.273.888 2.99 1.363 4.182.285.71.53 1.26 1.03 1.744.829.803.557 2.802.342 3.828-.42 2.008-1.321 3.599-2.092 5.302-1.038 2.297-2.65 6.235-1.603 8.857.239.599.369.697.687 1.164.267.39.488.703.728 1.12.952 1.655 1.566 3.664 1.427 5.97-.124 2.076-.925 4.05-1.62 5.774-.471 1.167-1.123 2.769-1.644 3.902l-.548 1.27c.123-.173.233-.468.32-.647l.873-1.903c1.067-2.468 2.603-5.616 2.807-8.32.168-2.246-.416-4.443-1.367-6.06-.246-.418-.473-.758-.715-1.136-.122-.194-.267-.341-.387-.535-.72-1.158-.767-2.49-.556-3.886.315-2.088 1.115-3.837 1.848-5.586.775-1.846 1.602-3.143 2.043-5.35.2-1 .324-2.402-.072-3.308-.449-1.024-.836-.133-2.391-5.005-.126-.396-.856-2.65-.839-2.815l.365 1.442.001-.004zm-7.05 1.814c.174-.267.446-.142.598.045-.057.121-.154.299-.268.381-.068-.09-.292-.332-.332-.426h.001zm.256.582c-.235.473-1.137 1.593-1.513 1.976-.184.187-.662.609-1.009.725-.296.1-.42.055-.626.258-1.18 1.168-.754 5.986-.657 7.742.027.506.09.52-.103.782-.257.349-.465.677-.724 1.009-.905 1.165-2.14 3.385-1.917 5.009.078.562.292.867.67 1.058.437.22.995.218 1.378-.044.962-.655 1.034-4.484 1.005-5.964-.006-.286-.013-.56-.026-.847-.022-.503-.055-.36.157-.718a32.131 32.131 0 001.803-3.395c.82-1.765 1.012-3.036 2.394-4.581.782-.875 2.106-1.571 3.398-1.843.244-.052.5-.095.746-.14.185-.034.578-.054.741-.099-.899-.015-2.104.28-2.973.644-.74.31-1.65.96-2.113 1.506-1.057 1.242-1.112 1.598-1.735 3.08-.392.93-2.03 4.42-2.456 4.748-.112-2.252-.422-4.654.136-6.877.116-.463.25-.976.77-1.08.563-.113 1.24-.725 1.604-1.166.134-.164.279-.334.412-.513.161-.219.683-.89.753-1.102.6.282.858 1.249 1.886.623.468-.285 1.033-.92 1.5-1.349.243-.222.46-.516.706-.758.263-.26.425-.378.552-.873.24-.934.046-1.69-.04-2.586.75.38 1.04-.528 1.143-1.206.114-.75.076-1.747-.581-1.912.355.196.458.3.543.767.064.347.04.813-.033 1.196-.344 1.786-1.073 1.009-1.197.981.104.869.288 1.733.068 2.624-.124.503-.252.631-.529.897-.76.726-1.15 1.327-2.155 2.043-.418.299-.581.316-1.01.037a3.974 3.974 0 01-.712-.657c.075-.133.275-.42.297-.579-.122-.18-.476-.472-.804-.261-.267.172-.29.467-.483.752a2.041 2.041 0 01-.611.621c-.445.29-1.443.635-.652-.653.078-.128.14-.223.234-.343l.247-.338c0-.012-.017-.012-.024-.019l-.589.762c-.143.207-.433.726-.156.964.379.226 1.508-.306 1.953-1.246l.33.344.002.002z" fill="#000"/><path d="M19.209 32.49h.059c.08 0 .15.073.21.22l1.323 1.98h.116c.94-1.42 1.424-2.14 1.451-2.163.035-.025.06-.038.076-.038h.085c.065 0 .114.063.146.187 0 .052-.156.292-.467.718l-1.164 1.736v2.311c-.017.148-.066.222-.146.222h-.059c-.076 0-.131-.05-.16-.15v-2.31c0-.054-.206-.385-.613-.99l-.995-1.497-.007-.049c.028-.12.077-.18.146-.18l-.001.002zm7.318-.01c.873 0 1.603.405 2.191 1.216.265.459.396.922.396 1.388 0 .863-.391 1.581-1.175 2.155-.44.282-.903.422-1.387.422h-.057c-.89 0-1.617-.415-2.181-1.246a2.555 2.555 0 01-.382-1.357c0-.825.365-1.52 1.093-2.087.471-.327.972-.49 1.5-.49h.002zm-2.229 2.62c0 .712.314 1.312.943 1.8.394.267.812.4 1.257.4h.07c.699 0 1.289-.31 1.77-.928.276-.4.415-.833.415-1.303 0-.805-.367-1.442-1.103-1.91a2.223 2.223 0 00-1.122-.314c-.735 0-1.345.32-1.83.957-.267.384-.4.816-.4 1.298zm6.332-2.61h.044c.114.022.172.066.172.13v3.016c0 .684.198 1.143.595 1.38.245.19.522.285.832.285.59 0 1.034-.303 1.33-.909.063-.19.095-.386.095-.587V32.67c.02-.12.074-.18.16-.18h.034c.112.024.167.077.167.161v3.296c0 .53-.257.996-.77 1.395-.323.214-.648.322-.976.322h-.097c-.556 0-1.04-.275-1.451-.822-.187-.292-.28-.657-.28-1.093v-3.037c.014-.148.063-.221.146-.221l-.002-.002zm-15.512 8.227c.55 0 1.042.15 1.474.452.03.04.045.078.045.116v.014c0 .093-.066.15-.198.177a9.11 9.11 0 01-.504-.232 1.863 1.863 0 00-.674-.134h-.228c-.554 0-1.082.266-1.583.796-.327.447-.49.904-.49 1.374v.056c0 .766.354 1.39 1.062 1.875.369.21.74.313 1.112.313h.056c.365 0 .745-.107 1.14-.322v-1.437h-1.106c-.12-.02-.18-.078-.18-.176v-.004c.02-.122.077-.184.172-.184h1.317c.087 0 .14.06.16.184v1.56c0 .189-.04.304-.12.343-.468.275-.922.412-1.357.412h-.082c-.853 0-1.567-.396-2.144-1.19a2.657 2.657 0 01-.407-1.401c0-.868.386-1.586 1.159-2.156.474-.292.932-.438 1.376-.438v.002zm3.032.011h.044c.114.023.172.067.172.132v4.679h2.4c.098 0 .156.065.173.195-.032.113-.09.17-.172.17h-2.589c-.093 0-.15-.067-.176-.199v-4.754c.014-.148.063-.221.146-.221l.001-.002zm6.099-.008c.873 0 1.603.404 2.191 1.215.265.459.396.922.396 1.388 0 .863-.391 1.581-1.175 2.155-.44.282-.903.422-1.388.422h-.056c-.89 0-1.617-.415-2.181-1.246a2.555 2.555 0 01-.382-1.357c0-.825.365-1.52 1.093-2.087.471-.327.971-.49 1.5-.49h.002zm-2.229 2.619c0 .712.314 1.312.942 1.8.395.267.813.4 1.258.4h.07c.699 0 1.289-.31 1.77-.928.276-.4.415-.833.415-1.302 0-.806-.367-1.443-1.103-1.911a2.223 2.223 0 00-1.122-.314c-.735 0-1.345.32-1.83.957a2.22 2.22 0 00-.4 1.298zm6.32-2.622h.059c.107 0 .18.118.22.355l1.07 3.71h.17c.738-2.608 1.127-3.942 1.166-4.002.04-.041.081-.063.123-.063h.04c.115 0 .194.146.236.438.07.19.422 1.403 1.055 3.644h.158l1.163-4.003c.04-.052.077-.078.113-.078h.05c.112.023.167.067.167.132v.056l-1.42 4.93c-.049.045-.096.069-.142.069h-.015c-.123 0-.205-.15-.247-.45-.616-2.09-.967-3.31-1.055-3.663h-.154l-1.163 4.033c-.042.052-.091.078-.146.078h-.056c-.1 0-.174-.155-.222-.464-.81-2.76-1.247-4.276-1.312-4.544.024-.117.072-.177.142-.177v-.001z" fill="#000"/></g></svg>