<svg width="106" height="106" fill="none" xmlns="http://www.w3.org/2000/svg"><mask id="a" style="mask-type:alpha" maskUnits="userSpaceOnUse" x="0" y="0" width="106" height="106"><circle cx="53" cy="53" r="53" fill="#D9D9D9"/></mask><g mask="url(#a)"><path d="M63.893 24.491c.979 3.228 2.046 6.56 1.989 9.974-.03 1.793-.584 3.459-.838 5.215-.208 1.429-.01 2.802.206 4.214.134.88.3 1.793.285 2.685-.01.689-.069 1.329.12 2 .458 1.63 1.22 3.218 1.832 4.797 1.189 3.07 2.947 6.74 1.323 9.973-.613 1.223-1.573 2.224-2.342 3.343-.781 1.138-1.16 2.36-1.603 3.655-.567 1.66-1.51 2.785-3.205 3.3-1.37.416-2.823.47-4.233.653-3.029.394-6.197.9-9.076 1.965-2.502.924-4.176 2.67-5.224 5.12-1.347 3.15-2.021 6.684-2.597 10.05a69.662 69.662 0 00-.991 11.273c-.002.389.59.389.6 0 .17-6.664.998-13.626 3.162-19.956.487-1.424 1.136-2.836 2.166-3.944 1.102-1.187 2.566-1.836 4.087-2.296 3.155-.951 6.42-1.483 9.684-1.88 2.384-.288 4.72-.837 5.795-3.238.58-1.297.807-2.708 1.565-3.929.748-1.204 1.76-2.217 2.487-3.435 1.555-2.6.944-5.543-.04-8.234-.598-1.645-1.266-3.266-1.903-4.896-.283-.722-.605-1.44-.842-2.18-.286-.893-.143-1.749-.132-2.664.023-1.813-.593-3.572-.505-5.386.09-1.86.799-3.63.935-5.49.275-3.744-.958-7.363-2.222-10.82-.11-.297-.574-.18-.48.133l-.003-.002z" fill="#932CBE"/><path d="M32.93 81.796c.784-2.297 1.58-4.59 2.426-6.865.778-2.085 1.483-4.257 2.544-6.22 1.015-1.88 2.464-3.336 4.546-3.933 1.972-.568 4.067-.43 6.09-.297 4.045.265 8.57.767 12.288-1.259 1.523-.83 2.527-2.109 2.747-3.86.12-.942.09-1.904.133-2.852.03-.633.067-1.267.117-1.899.049-.608-.027-1.466.202-2.024.422-1.036 1.082.46 1.323.905.313.575.603 1.164.822 1.78.493 1.39.55 2.89.29 4.334-.486 2.67-1.969 4.99-3.426 7.215-.25.381.352.729.602.356 2.647-3.923 4.882-8.58 2.59-13.219-.321-.652-1.592-3.713-2.607-2.026-.466.776-.365 2.012-.426 2.868-.099 1.382-.059 2.778-.183 4.156-.254 2.83-2.693 4.005-5.171 4.588-2.487.585-5.075.458-7.604.293-4.077-.267-8.877-.857-11.772 2.734-1.46 1.81-2.212 4.11-2.976 6.277a110.39 110.39 0 00-2.719 8.906c-.027.108.13.15.166.046l-.002-.004zm33.2-49.853a6.338 6.338 0 00-3.88.727c-.79.438-2.168 1.335-2.163 2.365.006 1.138 1.098.96 1.783.583.695-.382 1.302-.905 1.96-1.344.762-.508 1.51-.776 2.392-.975.349-.078.231-.553-.078-.585-.766-.08-1.506.231-2.167.604-.473.267-.908.594-1.349.905-.33.231-.951.82-1.348.842-.238.19-.303.125-.196-.2-.052-.175-.015-.313.118-.41.107-.185.376-.389.53-.522a6.288 6.288 0 011.279-.844c.995-.502 2.012-.72 3.123-.73.275-.003.256-.387 0-.42l-.004.004z" fill="#932CBE"/><path d="M60.433 35.489c-1.183 1.515-1.533 3.412-1.248 5.3.162 1.072.542 2.098 1.013 3.069.27.561.58 1.102.903 1.634.309.504.758 1.015.983 1.564.538 1.314-.51 3.113-1.7 3.749-.234.125-.646.339-.94.28-1.101-.225-.46-.473-.861-.87-.169-.165-.31-.349-.538-.436-.77-.294-1.429.329-1.966.759-.933.746-1.845.2-2.122-.755-.2-.68-.048-1.348.355-1.916.197-.275-.258-.542-.452-.267-1.006 1.429-.245 4.483 1.929 4.034.596-.123.974-.585 1.462-.903.867-.566.813.292 1.319.754.668.613 1.676.267 2.323-.176.918-.63 1.639-1.718 1.939-2.79.389-1.387-.588-2.396-1.256-3.506-1.656-2.749-2.86-6.352-.708-9.19.187-.248-.24-.585-.433-.337l-.002.003zm-9.495 22.664c1.954-.962 3.853-2.15 5.861-2.986.401-.168.813-.308 1.225-.195.233.063.437.23.663.313.204.072.402.127.62.104.258-.025.433-.195.666-.27.773-.243 1.088.223 1.403.86.059.141.12.281.179.423l-.433.418c-.097.004-.332-.236-.42-.289-.263-.152-.481-.258-.784-.252-.306.006-.577.15-.855.265-.268.11-.577.274-.876.276-.35 0-.676-.248-1.003-.325-.763-.182-1.234.34-1.925.607-1.002.387-2.113.565-3.17.729-.134.02-.167.214-.077.298 2.672 2.546 6.665 2.681 9.566.392.283-.224-.088-.716-.389-.506-2.754 1.914-6.257 1.846-8.963-.168l-.042.329c1.28-.273 2.716-.24 3.932-.75.553-.231.752-.371 1.414-.204.151.038.294.113.447.149.377.084.742.067 1.112-.024.267-.065.525-.235.802-.26.651-.055.685.207 1.151.381.254.093.557.13.803-.013.615-.353.384-1.161.128-1.661-.307-.602-.84-1.505-1.63-1.424-.67.07-.746.578-1.616.337-.382-.106-.628-.365-1.052-.38-.977-.032-2.138.907-2.962 1.365-1.313.731-2.655 1.403-3.97 2.132-.212.119-.025.433.19.327l.005.002z" fill="#932CBE"/><path d="M59.816 39.708c1.25-1.134 2.715-1.566 4.38-1.422 1.26.11 2.686.553 3.868-.08.278-.149.166-.66-.168-.624-.924.102-1.747.127-2.674.05-.686-.058-1.375-.096-2.056.029-1.313.241-2.556.964-3.498 1.9-.096.096.049.238.148.15v-.003z" fill="#932CBE"/><path d="M59.977 39.411c.393-1.04 1.12-1.913 2.158-2.34a3.484 3.484 0 011.699-.25c.512.051 1.548.23 1.668.872.04.216.407.17.386-.053-.12-1.264-2.237-1.384-3.163-1.198-1.49.303-2.567 1.473-3.052 2.883-.068.194.233.273.304.084v.002z" fill="#932CBE"/><path d="M59.864 39.42c.071 1 1.06 1.602 1.989 1.24a1.69 1.69 0 00.943-.92c.172-.41.273-1.108-.01-1.492-.065-.09-.19-.174-.305-.125a.44.44 0 00-.05.021c-.208.085-.273.44 0 .496-.082-.017-.009.297-.007.347 0 .16-.02.318-.071.469-.113.333-.372.61-.7.733-.636.24-1.27-.17-1.411-.82-.046-.21-.393-.167-.376.05h-.002zm-7.852.939c-.748-.399-1.036-1.291-1.853-1.685-.859-.413-1.867-.528-2.808-.445-1.004.09-1.918.438-2.857.788-1.176.441-2.117.53-3.306.11-.322-.112-.561.34-.328.566 1.338 1.297 3.405.276 4.791-.375 1.254-.587 2.586-.818 3.926-.352.601.21 1.009.526 1.422 1 .273.314.433.545.815.723.221.102.416-.216.194-.334l.004.004z" fill="#932CBE"/><path d="M52.186 40.583c-.304-1.807-1.69-3.352-3.518-3.653-2.347-.386-4.355 1.074-6.048 2.515-.157.134.067.35.223.225 1.577-1.255 3.451-2.512 5.558-2.261 1.746.207 3.105 1.547 3.493 3.253.044.195.324.108.292-.08v.001z" fill="#932CBE"/><path d="M45.454 38.924c-.68 1.18.433 2.819 1.773 2.694 1.31-.123 2.21-1.995 1.52-3.122-.167-.276-.527-.083-.487.207.116.797.015 2.069-.995 2.23-.914.146-1.748-1.007-1.408-1.835.097-.238-.281-.386-.403-.172v-.002zM37.6 33.876c1.23-.852 2.489-1.72 3.896-2.249 1.42-.532 2.918-.604 4.416-.506a21.58 21.58 0 014.625.824 20.96 20.96 0 012.179.76c.346.145.7.295 1.018.495.446.277 1.866 1.339.324 1.951-.744.297-1.805-.233-2.47-.525-.645-.284-1.282-.585-1.927-.869-1.308-.576-2.648-1.119-4.05-1.418-2.758-.589-5.325.301-7.931 1.145-.397.129-.219.769.172.627 1.741-.636 3.726-1.327 5.587-1.365 2.088-.042 4.054.668 5.943 1.494 1.334.585 2.972 1.666 4.491 1.484.93-.11 1.737-.89 1.33-1.878-.505-1.225-2.196-1.72-3.317-2.115a22.87 22.87 0 00-5.262-1.176c-1.763-.18-3.613-.193-5.29.455-1.478.575-2.734 1.573-3.972 2.546-.178.14.057.447.244.318l-.006.002z" fill="#932CBE"/><path d="M53.625 19.229c-3.943-1.378-8.36-.632-11.593 2.056a12.681 12.681 0 00-3.47 4.637c-.937 2.14-.987 4.455-1.519 6.699-1.082 4.57-4.382 8.113-6.238 12.335-.868 1.973-1.49 4.132-1.383 6.31.11 2.226 1.088 4.08 2.235 5.93 1.401 2.258 2.458 4.551 2.767 7.226.304 2.62-.101 5.262-1.05 7.71-.103.267.338.456.462.197 1.728-3.635 1.894-7.945.498-11.724-.717-1.937-1.927-3.567-2.91-5.362-1.17-2.137-1.468-4.413-.95-6.795.984-4.512 4.095-8.043 6.025-12.129.897-1.9 1.386-3.84 1.666-5.921.298-2.223.764-4.307 2.02-6.197 2.908-4.377 8.397-6.15 13.35-4.644.21.064.294-.258.09-.328zM65.924 68.54c2.235 1.248 4.504 2.513 7.001 3.138 1.324.33 2.68.494 3.947 1.024 1.189.496 2.27 1.23 3.241 2.075 2.025 1.767 4.136 3.974 3.987 6.843-.153 2.923-.781 5.81-.928 8.738-.017.337.52.418.59.08.334-1.64.55-3.31.767-4.97.18-1.385.447-2.803.47-4.204.044-2.727-1.817-4.815-3.682-6.585-1.895-1.799-4.04-2.977-6.596-3.484-3.046-.606-5.722-1.786-8.47-3.221-.37-.193-.695.36-.327.566z" fill="#932CBE"/><path d="M66.514 68.362c5.791 2.06 12.515 1.195 17.538-2.427.283-.204.18-.63-.177-.655-4.739-.326-9.62-.307-14.088 1.515-.225.091-.309.496 0 .55 2.951.495 5.73-.575 8.018-2.438 1.302-1.062 2.426-2.325 3.512-3.607.941-1.113 1.95-2.236 2.172-3.734.038-.253-.137-.44-.39-.395a23.603 23.603 0 00-6.737 2.238c-1.767.907-4.132 2.13-5.004 4.038-.09.197.017.407.24.421 1.535.094 2.716-.824 3.657-1.964 1.218-1.475 2.13-3.251 3.03-4.932 1.942-3.615 3.484-7.47 4.084-11.556.044-.3-.212-.515-.493-.384a18.545 18.545 0 00-7.462 6.366 18.498 18.498 0 00-2.163 4.315c-.361 1.04-1.193 2.912-.097 3.745.116.087.338.055.43-.055.933-1.108 1.333-2.636 1.709-4.014.41-1.5.686-3.037.842-4.586.307-3.075.296-6.701-.794-9.639-.298-.803-.95-2.073-1.905-2.236-1.105-.19-1.874 1.884-2.252 2.635-1.393 2.757-2.113 5.904-1.876 8.998.034.424.664.437.664 0-.004-2.524.36-4.997 1.283-7.352.27-.689.589-1.358.944-2.005.207-.377.752-1.596 1.306-1.492.567.104 1.05 1.302 1.216 1.774.177.496.288 1.015.387 1.53a27.085 27.085 0 01-.44 12.02c-.346 1.303-.692 2.82-1.583 3.863.143-.02.286-.038.43-.055-.726-.562.734-3.684 1.01-4.303a18.097 18.097 0 012.188-3.647c1.733-2.247 3.949-4.067 6.505-5.273-.164-.127-.33-.254-.494-.384-.537 3.692-1.85 7.168-3.518 10.483a65.807 65.807 0 01-2.567 4.635c-.886 1.46-2.147 3.126-4.037 2.954l.24.422c.915-1.861 3.364-3.044 5.146-3.915a23.691 23.691 0 016.282-2.026l-.39-.394c-.219 1.498-1.277 2.609-2.218 3.717-.87 1.026-1.771 2.03-2.777 2.923-2.145 1.907-5.019 3.382-7.945 2.76v.548c4.48-1.64 9.237-1.818 13.94-1.362l-.177-.655c-5.014 3.405-11.272 4.433-17.075 2.628-.259-.08-.36.315-.112.404l-.002.003zM33.113 41.92c-.481 4.77.095 9.741 1.386 14.346 1.002 3.578 3.155 7.736 7.113 8.565.4.082.55-.48.168-.615-4.035-1.435-5.82-5.175-6.806-9.124-1.08-4.319-1.378-8.731-1.399-13.171 0-.306-.43-.293-.46 0h-.002zm.101-8.263c-1.536 1.473-1.922 3.588-2.834 5.437-.565 1.142-1.388 2.108-2.281 3.003-.853.854-2.605 2.988-3.628 1.307-.527-.869-.495-1.943-1.16-2.755-.54-.661-1.377-1.022-1.896-1.697-1.79-2.334 4.38-4.125 5.78-4.462.362-.087.244-.578-.081-.612-2.036-.214-3.947.82-5.964.69-1.086-.07-2.207-.519-2.504-1.676-.107-.42-.113-.947.105-1.34.307-.55.826-.56 1.366-.694 1.37-.337 1.172-1.388.81-2.478-.186-.563-.396-1.29.246-1.661.47-.272 1.103-.153 1.57.046.842.363 1.512.988 2.407 1.25.309.092.519-.38.222-.531-1.714-.873-2.76-3.046-2.921-4.932-.085-.97.296-1.871 1.407-1.755.416.045.796.337 1.218.396a1.48 1.48 0 001.363-.491c.44-.477.578-1.179 1.026-1.638.962-.994 2.27-.007 2.569 1.085.512 1.877-.454 3.806.447 5.635.095.19.36.197.498.066.786-.742 1.16-1.923 2.044-2.535.544-.377.878-.45 1.392-.034.498.403.458.674.345 1.263-.103.545-.258 1.07-.294 1.626-.084 1.343.302 2.683.086 4.024-.227 1.412-.998 2.662-1.727 3.862-.206.337.32.646.525.31.9-1.467 1.798-2.993 1.889-4.76.05-.978-.133-1.949-.14-2.923-.01-.905.333-1.738.358-2.63.03-1.111-.773-1.887-1.88-1.65-1.575.338-1.964 2.027-3.05 2.993l.498.066c-.975-2.13.821-5.32-1.336-6.966-.59-.452-1.407-.668-2.103-.333-.89.43-.94 1.469-1.59 2.098-.897.871-2.065-.506-3.136.03-.853.426-1.103 1.415-1.008 2.303.22 2.06 1.342 4.421 3.222 5.394.074-.178.15-.354.223-.532-1.246-.36-3.83-2.68-4.95-.678-.434.78.066 1.545.236 2.308.361 1.62-1.237.985-2.035 1.812-1.13 1.168-.36 3.139.932 3.777 2.443 1.208 5.048-.787 7.546-.185v-.602c-1.563.38-3.08.946-4.487 1.734-.887.498-1.94 1.191-2.06 2.306-.119 1.091.774 1.77 1.522 2.373.59.477 1.034.929 1.288 1.67.201.59.29 1.22.613 1.764 1.59 2.683 4.373-.782 5.518-2.15a11.212 11.212 0 001.933-3.358c.567-1.528.943-3.105 2.125-4.296.175-.176-.092-.445-.27-.274h.006z" fill="#932CBE"/><path d="M63.893 24.491c.979 3.228 2.046 6.56 1.989 9.974-.03 1.793-.584 3.459-.838 5.215-.208 1.429-.01 2.802.206 4.214.134.88.3 1.793.285 2.685-.01.689-.069 1.329.12 2 .458 1.63 1.22 3.218 1.832 4.797 1.189 3.07 2.947 6.74 1.323 9.973-.613 1.223-1.573 2.224-2.342 3.343-.781 1.138-1.16 2.36-1.603 3.655-.567 1.66-1.51 2.785-3.205 3.3-1.37.416-2.823.47-4.233.653-3.029.394-6.197.9-9.076 1.965-2.502.924-4.176 2.67-5.224 5.12-1.347 3.15-2.021 6.684-2.597 10.05a69.662 69.662 0 00-.991 11.273c-.002.389.59.389.6 0 .17-6.664.998-13.626 3.162-19.956.487-1.424 1.136-2.836 2.166-3.944 1.102-1.187 2.566-1.836 4.087-2.296 3.155-.951 6.42-1.483 9.684-1.88 2.384-.288 4.72-.837 5.795-3.238.58-1.297.807-2.708 1.565-3.929.748-1.204 1.76-2.217 2.487-3.435 1.555-2.6.944-5.543-.04-8.234-.598-1.645-1.266-3.266-1.903-4.896-.283-.722-.605-1.44-.842-2.18-.286-.893-.143-1.749-.132-2.664.023-1.813-.593-3.572-.505-5.386.09-1.86.799-3.63.935-5.49.275-3.744-.958-7.363-2.222-10.82-.11-.297-.574-.18-.48.133l-.003-.002z" stroke="#932CBE" stroke-width=".3"/><path d="M32.93 81.796c.784-2.297 1.58-4.59 2.426-6.865.778-2.085 1.483-4.257 2.544-6.22 1.015-1.88 2.464-3.336 4.546-3.933 1.972-.568 4.067-.43 6.09-.297 4.045.265 8.57.767 12.288-1.259 1.523-.83 2.527-2.109 2.747-3.86.12-.942.09-1.904.133-2.852.03-.633.067-1.267.117-1.899.049-.608-.027-1.466.202-2.024.422-1.036 1.082.46 1.323.905.313.575.603 1.164.822 1.78.493 1.39.55 2.89.29 4.334-.486 2.67-1.969 4.99-3.426 7.215-.25.381.352.729.602.356 2.647-3.923 4.882-8.58 2.59-13.219-.321-.652-1.592-3.713-2.607-2.026-.466.776-.365 2.012-.426 2.868-.099 1.382-.059 2.778-.183 4.156-.254 2.83-2.693 4.005-5.171 4.588-2.487.585-5.075.458-7.604.293-4.077-.267-8.877-.857-11.772 2.734-1.46 1.81-2.212 4.11-2.976 6.277a110.39 110.39 0 00-2.719 8.906c-.027.108.13.15.166.046l-.002-.004zm33.2-49.853a6.338 6.338 0 00-3.88.727c-.79.438-2.168 1.335-2.163 2.365.006 1.138 1.098.96 1.783.583.695-.382 1.302-.905 1.96-1.344.762-.508 1.51-.776 2.392-.975.349-.078.231-.553-.078-.585-.766-.08-1.506.231-2.167.604-.473.267-.908.594-1.349.905-.33.231-.951.82-1.348.842-.238.19-.303.125-.196-.2-.052-.175-.015-.313.118-.41.107-.185.376-.389.53-.522a6.288 6.288 0 011.279-.844c.995-.502 2.012-.72 3.123-.73.275-.003.256-.387 0-.42l-.004.004z" stroke="#932CBE" stroke-width=".3"/><path d="M60.433 35.489c-1.183 1.515-1.533 3.412-1.248 5.3.162 1.072.542 2.098 1.013 3.069.27.561.58 1.102.903 1.634.309.504.758 1.015.983 1.564.538 1.314-.51 3.113-1.7 3.749-.234.125-.646.339-.94.28-1.101-.225-.46-.473-.861-.87-.169-.165-.31-.349-.538-.436-.77-.294-1.429.329-1.966.759-.933.746-1.845.2-2.122-.755-.2-.68-.048-1.348.355-1.916.197-.275-.258-.542-.452-.267-1.006 1.429-.245 4.483 1.929 4.034.596-.123.974-.585 1.462-.903.867-.566.813.292 1.319.754.668.613 1.676.267 2.323-.176.918-.63 1.639-1.718 1.939-2.79.389-1.387-.588-2.396-1.256-3.506-1.656-2.749-2.86-6.352-.708-9.19.187-.248-.24-.585-.433-.337l-.002.003zm-9.495 22.664c1.954-.962 3.853-2.15 5.861-2.986.401-.168.813-.308 1.225-.195.233.063.437.23.663.313.204.072.402.127.62.104.258-.025.433-.195.666-.27.773-.243 1.088.223 1.403.86.059.141.12.281.179.423l-.433.418c-.097.004-.332-.236-.42-.289-.263-.152-.481-.258-.784-.252-.306.006-.577.15-.855.265-.268.11-.577.274-.876.276-.35 0-.676-.248-1.003-.325-.763-.182-1.234.34-1.925.607-1.002.387-2.113.565-3.17.729-.134.02-.167.214-.077.298 2.672 2.546 6.665 2.681 9.566.392.283-.224-.088-.716-.389-.506-2.754 1.914-6.257 1.846-8.963-.168l-.042.329c1.28-.273 2.716-.24 3.932-.75.553-.231.752-.371 1.414-.204.151.038.294.113.447.149.377.084.742.067 1.112-.024.267-.065.525-.235.802-.26.651-.055.685.207 1.151.381.254.093.557.13.803-.013.615-.353.384-1.161.128-1.661-.307-.602-.84-1.505-1.63-1.424-.67.07-.746.578-1.616.337-.382-.106-.628-.365-1.052-.38-.977-.032-2.138.907-2.962 1.365-1.313.731-2.655 1.403-3.97 2.132-.212.119-.025.433.19.327l.005.002z" stroke="#932CBE" stroke-width=".3"/><path d="M59.816 39.708c1.25-1.134 2.715-1.566 4.38-1.422 1.26.11 2.686.553 3.868-.08.278-.149.166-.66-.168-.624-.924.102-1.747.127-2.674.05-.686-.058-1.375-.096-2.056.029-1.313.241-2.556.964-3.498 1.9-.096.096.049.238.148.15v-.003z" stroke="#932CBE" stroke-width=".3"/><path d="M59.977 39.411c.393-1.04 1.12-1.913 2.158-2.34a3.484 3.484 0 011.699-.25c.512.051 1.548.23 1.668.872.04.216.407.17.386-.053-.12-1.264-2.237-1.384-3.163-1.198-1.49.303-2.567 1.473-3.052 2.883-.068.194.233.273.304.084v.002z" stroke="#932CBE" stroke-width=".3"/><path d="M59.864 39.42c.071 1 1.06 1.602 1.989 1.24a1.69 1.69 0 00.943-.92c.172-.41.273-1.108-.01-1.492-.065-.09-.19-.174-.305-.125a.44.44 0 00-.05.021c-.208.085-.273.44 0 .496-.082-.017-.009.297-.007.347 0 .16-.02.318-.071.469-.113.333-.372.61-.7.733-.636.24-1.27-.17-1.411-.82-.046-.21-.393-.167-.376.05h-.002zm-7.852.939c-.748-.399-1.036-1.291-1.853-1.685-.859-.413-1.867-.528-2.808-.445-1.004.09-1.918.438-2.857.788-1.176.441-2.117.53-3.306.11-.322-.112-.561.34-.328.566 1.338 1.297 3.405.276 4.791-.375 1.254-.587 2.586-.818 3.926-.352.601.21 1.009.526 1.422 1 .273.314.433.545.815.723.221.102.416-.216.194-.334l.004.004z" stroke="#932CBE" stroke-width=".3"/><path d="M52.186 40.583c-.304-1.807-1.69-3.352-3.518-3.653-2.347-.386-4.355 1.074-6.048 2.515-.157.134.067.35.223.225 1.577-1.255 3.451-2.512 5.558-2.261 1.746.207 3.105 1.547 3.493 3.253.044.195.324.108.292-.08v.001z" stroke="#932CBE" stroke-width=".3"/><path d="M45.454 38.924c-.68 1.18.433 2.819 1.773 2.694 1.31-.123 2.21-1.995 1.52-3.122-.167-.276-.527-.083-.487.207.116.797.015 2.069-.995 2.23-.914.146-1.748-1.007-1.408-1.835.097-.238-.281-.386-.403-.172v-.002zM37.6 33.876c1.23-.852 2.489-1.72 3.896-2.249 1.42-.532 2.918-.604 4.416-.506a21.58 21.58 0 014.625.824 20.96 20.96 0 012.179.76c.346.145.7.295 1.018.495.446.277 1.866 1.339.324 1.951-.744.297-1.805-.233-2.47-.525-.645-.284-1.282-.585-1.927-.869-1.308-.576-2.648-1.119-4.05-1.418-2.758-.589-5.325.301-7.931 1.145-.397.129-.219.769.172.627 1.741-.636 3.726-1.327 5.587-1.365 2.088-.042 4.054.668 5.943 1.494 1.334.585 2.972 1.666 4.491 1.484.93-.11 1.737-.89 1.33-1.878-.505-1.225-2.196-1.72-3.317-2.115a22.87 22.87 0 00-5.262-1.176c-1.763-.18-3.613-.193-5.29.455-1.478.575-2.734 1.573-3.972 2.546-.178.14.057.447.244.318l-.006.002z" stroke="#932CBE" stroke-width=".3"/><path d="M53.625 19.229c-3.943-1.378-8.36-.632-11.593 2.056a12.681 12.681 0 00-3.47 4.637c-.937 2.14-.987 4.455-1.519 6.699-1.082 4.57-4.382 8.113-6.238 12.335-.868 1.973-1.49 4.132-1.383 6.31.11 2.226 1.088 4.08 2.235 5.93 1.401 2.258 2.458 4.551 2.767 7.226.304 2.62-.101 5.262-1.05 7.71-.103.267.338.456.462.197 1.728-3.635 1.894-7.945.498-11.724-.717-1.937-1.927-3.567-2.91-5.362-1.17-2.137-1.468-4.413-.95-6.795.984-4.512 4.095-8.043 6.025-12.129.897-1.9 1.386-3.84 1.666-5.921.298-2.223.764-4.307 2.02-6.197 2.908-4.377 8.397-6.15 13.35-4.644.21.064.294-.258.09-.328zM65.924 68.54c2.235 1.248 4.504 2.513 7.001 3.138 1.324.33 2.68.494 3.947 1.024 1.189.496 2.27 1.23 3.241 2.075 2.025 1.767 4.136 3.974 3.987 6.843-.153 2.923-.781 5.81-.928 8.738-.017.337.52.418.59.08.334-1.64.55-3.31.767-4.97.18-1.385.447-2.803.47-4.204.044-2.727-1.817-4.815-3.682-6.585-1.895-1.799-4.04-2.977-6.596-3.484-3.046-.606-5.722-1.786-8.47-3.221-.37-.193-.695.36-.327.566z" stroke="#932CBE" stroke-width=".3"/><path d="M66.514 68.362c5.791 2.06 12.515 1.195 17.538-2.427.283-.204.18-.63-.177-.655-4.739-.326-9.62-.307-14.088 1.515-.225.091-.309.496 0 .55 2.951.495 5.73-.575 8.018-2.438 1.302-1.062 2.426-2.325 3.512-3.607.941-1.113 1.95-2.236 2.172-3.734.038-.253-.137-.44-.39-.395a23.603 23.603 0 00-6.737 2.238c-1.767.907-4.132 2.13-5.004 4.038-.09.197.017.407.24.421 1.535.094 2.716-.824 3.657-1.964 1.218-1.475 2.13-3.251 3.03-4.932 1.942-3.615 3.484-7.47 4.084-11.556.044-.3-.212-.515-.493-.384a18.545 18.545 0 00-7.462 6.366 18.498 18.498 0 00-2.163 4.315c-.361 1.04-1.193 2.912-.097 3.745.116.087.338.055.43-.055.933-1.108 1.333-2.636 1.709-4.014.41-1.5.686-3.037.842-4.586.307-3.075.296-6.701-.794-9.639-.298-.803-.95-2.073-1.905-2.236-1.105-.19-1.874 1.884-2.252 2.635-1.393 2.757-2.113 5.904-1.876 8.998.034.424.664.437.664 0-.004-2.524.36-4.997 1.283-7.352.27-.689.589-1.358.944-2.005.207-.377.752-1.596 1.306-1.492.567.104 1.05 1.302 1.216 1.774.177.496.288 1.015.387 1.53a27.085 27.085 0 01-.44 12.02c-.346 1.303-.692 2.82-1.583 3.863.143-.02.286-.038.43-.055-.726-.562.734-3.684 1.01-4.303a18.097 18.097 0 012.188-3.647c1.733-2.247 3.949-4.067 6.505-5.273-.164-.127-.33-.254-.494-.384-.537 3.692-1.85 7.168-3.518 10.483a65.807 65.807 0 01-2.567 4.635c-.886 1.46-2.147 3.126-4.037 2.954l.24.422c.915-1.861 3.364-3.044 5.146-3.915a23.691 23.691 0 016.282-2.026l-.39-.394c-.219 1.498-1.277 2.609-2.218 3.717-.87 1.026-1.771 2.03-2.777 2.923-2.145 1.907-5.019 3.382-7.945 2.76v.548c4.48-1.64 9.237-1.818 13.94-1.362l-.177-.655c-5.014 3.405-11.272 4.433-17.075 2.628-.259-.08-.36.315-.112.404l-.002.003zM33.113 41.92c-.481 4.77.095 9.741 1.386 14.346 1.002 3.578 3.155 7.736 7.113 8.565.4.082.55-.48.168-.615-4.035-1.435-5.82-5.175-6.806-9.124-1.08-4.319-1.378-8.731-1.399-13.171 0-.306-.43-.293-.46 0h-.002zm.101-8.263c-1.536 1.473-1.922 3.588-2.834 5.437-.565 1.142-1.388 2.108-2.281 3.003-.853.854-2.605 2.988-3.628 1.307-.527-.869-.495-1.943-1.16-2.755-.54-.661-1.377-1.022-1.896-1.697-1.79-2.334 4.38-4.125 5.78-4.462.362-.087.244-.578-.081-.612-2.036-.214-3.947.82-5.964.69-1.086-.07-2.207-.519-2.504-1.676-.107-.42-.113-.947.105-1.34.307-.55.826-.56 1.366-.694 1.37-.337 1.172-1.388.81-2.478-.186-.563-.396-1.29.246-1.661.47-.272 1.103-.153 1.57.046.842.363 1.512.988 2.407 1.25.309.092.519-.38.222-.531-1.714-.873-2.76-3.046-2.921-4.932-.085-.97.296-1.871 1.407-1.755.416.045.796.337 1.218.396a1.48 1.48 0 001.363-.491c.44-.477.578-1.179 1.026-1.638.962-.994 2.27-.007 2.569 1.085.512 1.877-.454 3.806.447 5.635.095.19.36.197.498.066.786-.742 1.16-1.923 2.044-2.535.544-.377.878-.45 1.392-.034.498.403.458.674.345 1.263-.103.545-.258 1.07-.294 1.626-.084 1.343.302 2.683.086 4.024-.227 1.412-.998 2.662-1.727 3.862-.206.337.32.646.525.31.9-1.467 1.798-2.993 1.889-4.76.05-.978-.133-1.949-.14-2.923-.01-.905.333-1.738.358-2.63.03-1.111-.773-1.887-1.88-1.65-1.575.338-1.964 2.027-3.05 2.993l.498.066c-.975-2.13.821-5.32-1.336-6.966-.59-.452-1.407-.668-2.103-.333-.89.43-.94 1.469-1.59 2.098-.897.871-2.065-.506-3.136.03-.853.426-1.103 1.415-1.008 2.303.22 2.06 1.342 4.421 3.222 5.394.074-.178.15-.354.223-.532-1.246-.36-3.83-2.68-4.95-.678-.434.78.066 1.545.236 2.308.361 1.62-1.237.985-2.035 1.812-1.13 1.168-.36 3.139.932 3.777 2.443 1.208 5.048-.787 7.546-.185v-.602c-1.563.38-3.08.946-4.487 1.734-.887.498-1.94 1.191-2.06 2.306-.119 1.091.774 1.77 1.522 2.373.59.477 1.034.929 1.288 1.67.201.59.29 1.22.613 1.764 1.59 2.683 4.373-.782 5.518-2.15a11.212 11.212 0 001.933-3.358c.567-1.528.943-3.105 2.125-4.296.175-.176-.092-.445-.27-.274h.006z" stroke="#932CBE" stroke-width=".3"/></g></svg>