<svg width="142" height="142" fill="none" xmlns="http://www.w3.org/2000/svg"><path d="M128.774 77.559l8.945.657-.07.963-8.945-.657.07-.963zm.384-5.23l.071-.963 8.945.657-.071.963-8.945-.657zm4.226.185l.863.063-.402 5.48-.864-.063.403-5.48zm-3.769 13.914l1.078-4.759.832.189-1.078 4.759-.832-.189zm-2.824 1.11l.225-.991 8.919-1.388-.094.416-7.45-5.096.216-.955 7.955 5.481-.23 1.016-9.541 1.517zm-.18 1.102l8.221 3.587-.386.885-8.025-3.5.808-.223-2.116 4.853-.438-.63 8.026 3.502-.387.885-8.025-3.501.758-.107-2.116 4.852-.387-.744 8.025 3.501-.386.886-8.221-3.587 4.649-10.658zm-6.739 18.084l2.739-4.039.706.479-2.739 4.038-.706-.478zm-3.034.003l.57-.841 8.812 1.96-.24.353-5.079-7.462.549-.81 5.409 8.004-.584.862-9.437-2.066zm-5.652 7.099l.527-.502 7.821 2.985-.236.225-5.721-6.019.682-.648 6.179 6.501-.919.873-7.891-3.023.437-.414 2.617 8.034-.9.856-6.179-6.502.682-.648 5.721 6.02-.237.224-2.583-7.962zm-4.988 3.383l5.007 7.441-.801.539-4.665-6.931.469-.315-.061 10.111-.895.602-5.007-7.441.801-.54 4.629 6.88-.416.28.075-10.045.864-.581zm-12.776 9.759l-.92-.301a4.065 4.065 0 01.838-1.782 4.609 4.609 0 011.656-1.282 4.545 4.545 0 011.772-.448 4.453 4.453 0 011.711.274 4.693 4.693 0 011.488.948c.447.418.813.93 1.099 1.535.286.605.448 1.212.486 1.823a4.542 4.542 0 01-.236 1.762 4.336 4.336 0 01-.87 1.507c-.399.447-.89.809-1.472 1.083a4.417 4.417 0 01-2.036.448 3.99 3.99 0 01-1.891-.48l.351-.901a3.42 3.42 0 001.532.483c.546.039 1.102-.076 1.67-.344a3.33 3.33 0 001.418-1.225 3.487 3.487 0 00.556-1.76c.037-.647-.101-1.302-.415-1.968-.311-.658-.73-1.182-1.256-1.571a3.632 3.632 0 00-1.712-.69 3.403 3.403 0 00-1.843.329c-.567.268-1.009.624-1.326 1.07a3.426 3.426 0 00-.6 1.49zM84.88 129.7l-.863-.435a4.078 4.078 0 011.094-1.638 4.614 4.614 0 011.829-1.019 4.558 4.558 0 011.82-.179 4.456 4.456 0 011.65.527c.507.294.95.68 1.33 1.16.38.48.665 1.04.857 1.681.192.641.262 1.266.208 1.876a4.547 4.547 0 01-.496 1.707 4.35 4.35 0 01-1.086 1.36c-.461.383-1 .666-1.617.851a4.428 4.428 0 01-2.08.139 3.992 3.992 0 01-1.798-.757l.482-.839c.428.352.909.587 1.442.707.534.119 1.1.089 1.702-.091a3.337 3.337 0 001.586-.999 3.505 3.505 0 00.813-1.658c.133-.633.094-1.303-.117-2.008-.21-.697-.545-1.277-1.007-1.741a3.633 3.633 0 00-1.59-.938 3.41 3.41 0 00-1.871.05c-.6.18-1.091.467-1.47.86-.38.393-.653.855-.817 1.384zm-2.362-1.685l1.274 8.878-.956.137-1.186-8.27.558-.08-4.45 9.079-1.068.153-1.274-8.878.956-.137 1.178 8.207-.497.072 4.435-9.013 1.03-.148zm-14.316 1.077l-.063 8.116 2.51.019c.61.005 1.092-.138 1.445-.428.345-.29.52-.694.524-1.213.004-.518-.164-.925-.505-1.221-.349-.295-.829-.445-1.44-.45l-2.633-.02.006-.853 2.634.02c.586.005 1.1.113 1.54.326a2.5 2.5 0 011.035.886c.24.378.358.818.354 1.32-.004.502-.129.94-.374 1.314a2.492 2.492 0 01-1.048.87c-.445.206-.96.306-1.545.302l-3.475-.027.07-8.969.965.008zm5.958.046l-3.093 4.153-1.078-.008 3.005-4.154 1.166.009zm-15.033 2.042l3.32.529-.133.83-3.32-.529.133-.83zm-9.529-5.912l-2.833 8.51-.916-.305 2.833-8.51.916.305zm4.975 1.656l.917.305-2.833 8.51-.917-.305 2.833-8.51zm-1.216 4.051l-.273.821-5.214-1.736.274-.821 5.213 1.736zm-11.625-9.416l5.308 2.652-4.009 8.023-5.308-2.652.382-.763 4.443 2.22 3.247-6.497-4.444-2.22.381-.763zm-1.648 3.832l4.343 2.17-.382.763-4.342-2.17.381-.763zm-6.919-9.815l-5.434 7.136-.768-.585 5.433-7.136.769.585zm4.171 3.177l.769.585-5.434 7.136-.768-.585 5.433-7.136zm-2.46 3.439l-.525.689-4.371-3.329.524-.689 4.371 3.329zm-9.596-10.764l3.4 3.5-.611.595-3.4-3.501.611-.594zm.611-2.972l.708.729-3.703 8.232-.297-.306 8.336-3.463.681.702-8.933 3.676-.726-.747 3.934-8.823zm-.741-.992l-7.252 5.276-1.978-2.719c-.34-.466-.554-.931-.642-1.394a2.253 2.253 0 01.086-1.288c.147-.396.413-.735.798-1.015a1.965 1.965 0 011.14-.395c.408-.007.816.105 1.222.337.4.236.77.588 1.109 1.055l1.335 1.836-.487.354-1.505-2.069c-.35-.481-.573-.959-.671-1.435a2.364 2.364 0 01.084-1.334c.15-.419.428-.777.834-1.072a2.386 2.386 0 011.297-.478c.447-.025.885.08 1.315.316.43.235.819.593 1.168 1.073l2.148 2.952zm-1.257-.279l-1.58-2.171c-.359-.494-.76-.797-1.203-.909-.444-.111-.878-.012-1.304.298-.426.309-.654.693-.684 1.149-.03.456.134.931.493 1.425l1.653 2.272-.69.502-1.483-2.039c-.34-.467-.72-.754-1.14-.862-.419-.109-.825-.02-1.217.265-.38.276-.578.627-.598 1.055-.026.433.13.883.47 1.35l1.41 1.937 5.873-4.272zm-3.67-6.912l.463.847-7.869 4.303-1.667-3.048c-.285-.521-.44-1.023-.465-1.505-.03-.489.063-.93.277-1.323.21-.401.535-.722.975-.962.44-.241.885-.342 1.336-.302.447.032.868.192 1.264.481.392.281.73.682 1.015 1.203l1.264 2.312-.748.409-1.264-2.311c-.293-.536-.65-.884-1.071-1.044-.426-.168-.866-.128-1.32.121-.456.249-.727.597-.816 1.046-.092.441.008.93.301 1.465l1.204 2.202 7.121-3.894zm-5.228-11.447l2.147 5.531-8.362 3.246-2.147-5.532.796-.308 1.797 4.63 6.77-2.627-1.796-4.631.795-.31zm-3.796 1.729l1.756 4.526-.795.308-1.757-4.525.795-.309zm3.109-2.474l-.476.112-.072-.305c-.053-.228-.242-.373-.565-.435-.334-.067-.831-.062-1.491.015l-6.197.72-1.252-5.338 8.366-1.962.22.94-8.145 1.911.47-.793 1.112 4.738-.763-.452 6.099-.696a6.894 6.894 0 011.266-.04c.35.03.637.134.86.314.222.18.38.47.474.868l.094.403zm2.612-.071l-2.968.696-2.02-8.61L14.9 79.4l.215.916-2.797.656.492-.927 1.83 7.804-.732-.1 2.797-.655.215.916zm-4.286-9.372l-8.945.657-.07-.964 8.332-.611.041.563-8.749-5.068-.079-1.076 8.945-.657.07.963-8.269.607-.036-.5 8.684 5.047.076 1.039zm-.271-12.308l-.063.964-8.211-.54.063-.963 8.211.539zm-7.89-3.51l-.455 6.922-.863-.057.454-6.922.864.057zm8.257-.607l-8.797-1.747.188-.948 8.108 1.611-.19.116.546-2.744c.12-.607.062-1.108-.174-1.505-.235-.405-.615-.66-1.14-.764-.534-.106-.982-.016-1.346.27-.37.276-.616.718-.736 1.325l-.604 3.039-.849-.169.604-3.039c.117-.59.326-1.082.625-1.474a2.357 2.357 0 011.087-.833c.424-.163.895-.193 1.412-.09.508.1.93.312 1.268.635.33.313.558.708.685 1.185.127.477.132 1.007.017 1.589l-.704 3.543z" fill="#932CBE"/><path opacity=".6" d="M19.69 43.103c-1.036-.356-2.592-.34-4.25.407-.818.365-1.477.833-1.954 1.386l-.462-.255c.388-1.404.226-3.084-.475-4.488-.353-.71-.774-1.272-1.295-1.703l.254-.462c1.213.426 2.915.248 4.381-.462.722-.347 1.324-.789 1.789-1.32l.461.254c-.42 1.359-.114 3.376.607 4.69.367.661.768 1.154 1.198 1.492l-.255.461z" fill="#932CBE"/><path d="M30.939 26.747l-.539.49-7.754-3.155.242-.22 5.588 6.143-.696.634-6.036-6.635.938-.853 7.823 3.194-.446.405-2.441-8.09.919-.835 6.035 6.634-.696.634-5.588-6.143.241-.22 2.41 8.017zm8.483-8.502l-4.098 2.65-.463-.716 4.098-2.65.463.716zm2.795 1.18l-.854.552-7.348-5.242.358-.231 1.766 8.852-.822.531-1.858-9.48.875-.565 7.883 5.584zm-.14-1.591l.367-.914c.362.166.732.281 1.111.346.38.066.761.075 1.145.028.39-.05.783-.167 1.179-.348.44-.202.8-.45 1.08-.744a2.13 2.13 0 00.548-.941c.083-.341.047-.68-.106-1.014a1.235 1.235 0 00-.99-.746c-.47-.08-1.163.013-2.081.278-.798.227-1.462.353-1.994.376-.529.012-.956-.077-1.282-.268-.327-.19-.581-.483-.762-.879a2.197 2.197 0 01-.172-1.397c.095-.476.325-.918.69-1.324.365-.407.845-.747 1.438-1.018.676-.31 1.334-.451 1.973-.422.646.025 1.28.181 1.898.468l-.361.897a4.525 4.525 0 00-1.523-.461c-.495-.058-1.036.047-1.621.316-.624.286-1.069.66-1.335 1.122-.27.455-.296.918-.08 1.39.111.243.28.419.504.527.221.101.521.134.9.098.38-.036.858-.136 1.436-.3.828-.241 1.52-.366 2.078-.373.555-.015 1.006.086 1.354.304.356.214.635.541.837.982.223.487.283.979.18 1.477-.098.487-.338.947-.72 1.379-.384.425-.892.782-1.523 1.071-.73.335-1.445.502-2.144.5a5.389 5.389 0 01-2.024-.41zm7.476-3.417l.49-.854c.335.214.686.38 1.053.497a3.91 3.91 0 001.13.185 4.1 4.1 0 001.215-.18c.465-.14.856-.336 1.173-.588.317-.252.542-.538.673-.857.13-.326.14-.666.035-1.018a1.236 1.236 0 00-.878-.877c-.453-.143-1.153-.147-2.099-.012-.82.115-1.497.147-2.027.097-.524-.062-.935-.21-1.232-.443-.297-.234-.508-.56-.633-.976a2.197 2.197 0 01.023-1.408c.16-.458.448-.863.867-1.216.418-.352.94-.622 1.564-.81.713-.213 1.384-.261 2.013-.144a4.949 4.949 0 011.815.726l-.482.839a4.525 4.525 0 00-1.444-.667c-.483-.126-1.033-.097-1.65.088-.657.197-1.149.506-1.477.927-.33.413-.42.868-.272 1.365.077.256.22.454.427.593.205.13.497.204.878.22.38.018.868-.015 1.463-.097.854-.125 1.557-.152 2.11-.082.551.061.984.224 1.299.488.323.261.554.624.693 1.089a2.332 2.332 0 01-.026 1.487c-.165.469-.466.89-.904 1.266-.44.368-.992.651-1.657.85-.769.23-1.5.297-2.193.2a5.391 5.391 0 01-1.947-.688zm14.299-4.393l-4.828.711-.124-.843 4.827-.712.125.844zm2.053 2.233l-1.005.148-4.512-7.817.422-.063-2.065 8.788-.968.142 2.241-9.396 1.03-.152 4.857 8.35zm9.509-.01l-.928-.011.015-1.33.15.052c-.314.457-.75.816-1.304 1.077a4.173 4.173 0 01-1.823.367 4.829 4.829 0 01-1.853-.372 4.66 4.66 0 01-1.469-.996 4.626 4.626 0 01-.96-1.504 5.085 5.085 0 01-.318-1.873 4.986 4.986 0 01.36-1.852 4.484 4.484 0 01.996-1.469 4.42 4.42 0 011.479-.974 4.702 4.702 0 011.835-.33c.77.009 1.462.172 2.077.488.615.309 1.12.728 1.516 1.26l-.71.657a3.503 3.503 0 00-1.192-1.106c-.473-.273-1.04-.413-1.7-.42a3.535 3.535 0 00-1.876.48c-.547.32-.979.766-1.295 1.34-.316.564-.478 1.21-.486 1.938-.009.727.138 1.382.441 1.962.311.58.74 1.042 1.289 1.382.548.333 1.177.503 1.888.512.711.008 1.34-.14 1.887-.443.547-.311.94-.72 1.181-1.228l-.118.475.022-1.906-3.036-.035.01-.853 3.976.046-.054 4.666zm7.109 1.069l-5.867-.888 1.342-8.868 5.867.888-.128.843-4.911-.743-1.087 7.181 4.911.743-.127.844zm.387-4.154l-4.8-.726.128-.843 4.8.726-.128.843zm3.579 3.552l.896-.406c.147.369.335.708.565 1.018.229.309.498.579.808.81.318.233.682.421 1.093.563.458.158.89.228 1.295.209.405-.02.753-.12 1.046-.303.296-.19.504-.458.624-.806.153-.442.086-.85-.2-1.224-.285-.381-.85-.793-1.697-1.236-.734-.386-1.301-.755-1.702-1.106-.39-.356-.637-.716-.742-1.08-.104-.363-.085-.75.056-1.16.167-.483.447-.86.842-1.13.397-.279.868-.439 1.413-.48.546-.042 1.127.043 1.743.256.704.243 1.276.596 1.718 1.058.45.466.8 1.016 1.05 1.65l-.882.4a4.525 4.525 0 00-.782-1.386c-.318-.384-.782-.681-1.39-.892-.649-.224-1.229-.26-1.74-.11-.51.143-.85.459-1.019.949a1.048 1.048 0 000 .73c.09.226.285.457.584.693.299.236.714.494 1.245.775.765.397 1.352.786 1.76 1.166.412.372.668.757.77 1.154.109.401.084.83-.074 1.289a2.33 2.33 0 01-.89 1.192c-.408.284-.899.45-1.473.5-.572.041-1.186-.051-1.842-.278-.759-.262-1.39-.635-1.896-1.12a5.388 5.388 0 01-1.18-1.695zm10.541 5.749l-.864-.432 3.678-7.361.864.432-3.678 7.36zm6.293-5.915l-6.206-3.1.387-.775 6.206 3.101-.387.774zm8.286 4.412l-3.066 4.484c-.665.974-1.446 1.554-2.344 1.74-.893.18-1.802-.046-2.727-.678-.918-.628-1.459-1.393-1.622-2.295-.152-.904.105-1.843.77-2.816l3.065-4.484.798.545-3.066 4.484c-.523.766-.735 1.483-.634 2.15.106.66.501 1.224 1.185 1.69.69.473 1.362.638 2.015.497.659-.147 1.25-.604 1.773-1.37l3.066-4.485.787.538zm-4.239 8.039l6.06-6.613 2.136 1.958c.678.621 1.143 1.308 1.395 2.06.258.76.303 1.52.135 2.286-.162.758-.537 1.458-1.124 2.1-.588.64-1.255 1.078-2.003 1.312a4.183 4.183 0 01-2.288.065c-.771-.186-1.496-.59-2.174-1.21l-2.137-1.958zm1.306.005l1.424 1.305c.549.503 1.125.827 1.729.972.61.151 1.207.125 1.79-.078.589-.197 1.127-.561 1.613-1.091.486-.53.799-1.095.938-1.693a3.074 3.074 0 00-.078-1.79c-.197-.589-.57-1.135-1.119-1.638l-1.424-1.305-4.873 5.318zm5.709 6.844l-.644-.72 6.678-5.987.645.72-6.679 5.987zm3.73 4.999a4.845 4.845 0 01-.789-1.717 4.65 4.65 0 01-.06-1.773 4.614 4.614 0 01.65-1.662 5.08 5.08 0 011.327-1.36 4.984 4.984 0 011.709-.799 4.485 4.485 0 011.774-.06c.595.1 1.15.311 1.665.632.52.328.974.765 1.362 1.31.388.545.648 1.114.782 1.707.139.599.155 1.192.05 1.78a4.238 4.238 0 01-.64 1.655 4.82 4.82 0 01-1.31 1.362 4.916 4.916 0 01-1.726.797 4.368 4.368 0 01-1.784.067 4.48 4.48 0 01-1.655-.64 4.735 4.735 0 01-1.355-1.3zm.716-.509c.417.586.915 1.007 1.496 1.26a3.408 3.408 0 001.853.269c.65-.082 1.274-.336 1.874-.763.6-.426 1.042-.93 1.326-1.512.291-.586.41-1.199.356-1.838-.049-.632-.282-1.241-.699-1.827-.412-.58-.91-1-1.496-1.26a3.415 3.415 0 00-1.853-.269c-.642.077-1.264.33-1.864.756-.599.426-1.045.932-1.336 1.519a3.415 3.415 0 00-.356 1.838c.054.639.287 1.248.699 1.827z" fill="#932CBE"/><path opacity=".6" d="M126.054 53.623c.98-.49 2.058-1.612 2.685-3.319.312-.84.44-1.637.378-2.366l.505-.15c.732 1.26 2.044 2.32 3.538 2.802.754.246 1.45.338 2.123.268l.151.504c-1.152.568-2.217 1.909-2.737 3.453-.257.758-.363 1.497-.309 2.2l-.505.152c-.676-1.251-2.33-2.445-3.774-2.85-.728-.2-1.362-.26-1.903-.19l-.152-.504z" fill="#932CBE"/></svg>