<svg width="1920" height="1191" fill="none" xmlns="http://www.w3.org/2000/svg"><path d="M1896.25 915.109c-4.31.452-8.4.24-12.44-1.406-3.9-1.586-8.01-2.568-11.55-5.067-3.59-2.553-7.41-4.81-11.2-7.057-5.86-3.481-10.14-8.637-14.66-13.532-2.53-2.739-5.04-5.542-7.23-8.557-6.81-9.346-11.95-19.604-16.05-30.393-3.81-10.036-6.11-20.493-8.68-30.876-2.19-8.854-4.73-17.642-8.45-26.015-.96-2.189-2.24-4.056-4.15-5.57-1.28-1.02-2.18-2.481-3.33-3.678-3.06-3.176-6.14-6.348-9.26-9.45-.6-.6-1.44-1.176-2.25-1.311-2.32-.363-4.75-.991-6.99-.617-8.68 1.425-16.51-.991-24.18-4.594-5.16-2.415-10.2-5.047-14.74-8.557-3.1-2.39-6.19-4.827-9.46-6.961-5.87-3.817-12.1-6.929-18.75-9.201-5.46-1.869-10.99-2.007-16.51-.315-1.19.359-2.3.968-3.9 1.664.15-.899.08-1.597.37-2.001 2.91-3.803 6.53-6.742 10.88-8.753 1.88-.869 3.68-1.872 5.59-2.665 1.98-.825 3.97-1.893 6.04-2.139 6.62-.804 13.09-.2 19.38 2.42 5.27 2.202 10.44 4.489 15.1 7.855 6.84 4.948 13.7 9.85 20.56 14.765.47.338 1 .589 1.85.628-2.05-3.094-3.93-6.332-6.2-9.254-2.66-3.397-5.7-6.494-8.49-9.783-9-10.631-20.15-18.322-32.75-23.99-5.12-2.301-10.58-3.567-16.03-4.893-4.65-1.131-9.51-1.617-13.83-3.977-2.1-1.151-4.03-2.45-5.14-4.657-.3-.581-.42-1.265-.61-1.862 1.61-1.276 2.99-.422 4.23.259 1.44.81 2.81 1.822 4.06 2.908 4.28 3.706 9.28 5.926 14.74 7.037 6.63 1.349 12.72 4.035 18.73 6.897 7.68 3.669 14.45 8.776 20.86 14.262 3.93 3.353 7.06 7.635 10.54 11.499.24.273.5.512 1.25.579-1.02-3.411-1.93-6.884-3.13-10.232-1.66-4.607-3.42-9.199-5.41-13.675a647.457 647.457 0 00-10.14-21.889c-3.04-6.221-7.26-11.632-11.81-16.826-3.63-4.136-7.75-7.478-12.69-9.841-.88-.424-1.71-.934-2.55-1.44-.11-.068-.12-.335-.22-.686.43-.116.88-.377 1.3-.335 3.98.438 7.97.931 11.96 1.411.58.069 1.16.238 1.74.264 10.18.31 19.08 4.37 27.39 9.768 3.19 2.059 5.9 4.878 8.62 7.552 3.63 3.571 7.38 7.085 10.13 11.439 3.87 6.083 6.89 12.49 8.67 19.527 1.49 5.876 1.87 11.809 2.23 17.802.12 1.897.48 3.783.83 6.266.43-.848.64-1.072.67-1.32.62-4.767 1.24-9.547 1.8-14.313.63-5.245-.48-10.379-1.25-15.518-1.21-8.119-4.12-15.668-7.34-23.175-3.06-7.128-7.3-13.435-11.83-19.622-2.77-3.787-5.67-7.47-8.41-11.268-1.37-1.912-2.57-3.951-3.68-6.02-1.61-3.041-1.28-4.777 1.34-6.971.68 1.07 1.59 2.024 1.94 3.139.6 1.852.92 3.805 1.24 5.731.49 3.047 1.49 5.694 3.54 8.211 5.45 6.699 10.77 13.617 14.51 21.406 2.96 6.144 5.95 12.308 7.81 18.998 1.65 5.889 2.17 11.939 3.5 17.857.07.249.14.498.28.911.26-.367.48-.565.55-.81.39-1.118.73-2.234 1.12-3.351 1.88-5.402 2.84-11.005 3.71-16.64.21-1.365.5-2.708.79-4.052 1.87-8.618.92-17.229-.1-25.818-.45-3.79-.97-7.618-1.95-11.31-1.7-6.465-3.97-12.736-9.45-17.487 1.66-.895 2.98-.277 4.1.324 4.52 2.376 8.97 4.869 13.43 7.345 5.18 2.86 8.54 7.517 11.64 12.301 6.33 9.77 10.55 20.316 11.85 32.009.99 8.881 1.05 17.671-1.33 26.315-1.38 5.027-3.46 9.762-6.21 14.255-4.14 6.765-9.63 12.359-14.75 18.316-2.02 2.358-3.7 5.043-5.42 7.643-.82 1.233-.69 2.464.15 3.828 2.75 4.483 2.9 9.481 2.44 14.512-.23 2.539-.77 5.047-1.1 7.584-.26 1.926.04 3.605 1.68 5.035.99.86 1.47 2.279 2.24 3.41 4.92 7.265 7.77 15.362 9.87 23.805.85 3.43 1.77 6.84 2.78 10.228 1.68 5.641 3.52 11.228 5.9 16.623.68 1.522 1.22 3.121 1.66 4.719 1.92 7.042 4.88 13.677 8.43 19.999 2.63 4.683 5.37 9.393 9.17 13.328.95.983 1.65 2.187 2.52 3.264 7.15 8.901 15.15 16.958 24.21 23.942.7.546 1.44 1.051 2.21 1.476 5.71 3.085 11.41 6.187 17.95 7.221.76.119 1.52.393 2.26.631.45.147.88.384 1.32.574l-.06-.012zm-21.32-6.794c.68 1.113 1.67 1.715 2.98 1.805-.99-.58-1.99-1.156-2.99-1.746-3.98-3.153-8.15-6.116-11.92-9.524-5.9-5.326-11.41-11.081-16.23-17.428-3.57-4.687-7.13-9.374-10.32-14.314-2.17-3.359-3.91-7.028-5.42-10.747-2.13-5.268-3.87-10.681-5.77-16.039-2-5.626-4.05-11.238-5.95-16.892a81.213 81.213 0 01-2.41-8.794c-1.18-5.383-2.93-10.581-5.05-15.642-.57-1.339-1.35-2.608-2.07-3.878-.71-1.257-1.47-2.49-2.21-3.74-.13.599-.02 1.061.15 1.507 3.71 9.22 6.39 18.744 8.69 28.384 2.14 8.966 4.09 17.995 7.53 26.596 3.62 9.021 7.62 17.824 12.94 26.052 3.01 4.666 6.58 8.802 10.11 13.005 3.98 4.729 8.17 9.303 13.34 12.816 4.21 2.866 8.53 5.592 12.85 8.318.46.299 1.19.158 1.79.25l-.04.011zm-148.75-164.152c1.19.33 2.37.659 3.56 1.002 7.93 2.249 15.1 6.167 21.95 10.594 4.59 2.975 9.52 5.075 14.63 6.785 1.98.666 4.04 1.198 6.43.963-2.82-1.887-5.42-3.554-7.95-5.325-7.73-5.414-15.61-10.546-24.4-14.1-1.96-.798-3.93-1.566-5.89-2.333.47-.351.94-.448 1.32-.313 2.06.658 4.14 1.269 6.14 2.099 7.84 3.23 15.06 7.612 21.95 12.519 3.69 2.641 7.51 4.993 11.66 6.809 1.16.518 2.47.73 3.7 1.075-.45-1.215-1.07-1.963-1.78-2.617-7.79-7.24-16.49-13.294-25.16-19.411-5.73-4.037-11.52-7.747-18.14-10.207-6.26-2.334-12.56-3.134-19.11-2.141-1.62.252-3.23.796-4.73 1.464-2.05.902-4.01 2.045-6 3.101-3.56 1.896-5.89 3.224-7.92 6.4.62-.097 1.22-.117 1.78-.268 4.93-1.405 9.74-.78 14.5.758 6.96 2.244 13.49 5.447 19.6 9.421 3.36 2.182 6.48 4.75 9.69 7.168 4.57 3.461 9.59 6.112 14.77 8.507 5.94 2.755 12.12 4.576 18.71 4.653 3.23.035 6.09-1.098 9.01-3.188-1.56-.329-2.79-.83-4.01-.812-3.91.062-7.54-1.258-11.27-2.072-8.4-1.83-15.64-6.178-22.79-10.692-5.25-3.32-10.8-6.013-16.74-7.91-1.24-.398-2.32-1.29-3.49-1.962l-.02.089v-.056zm25.89-68.192c.59-.804 1.17-.455 1.7.051 3.2 3.024 6.58 5.892 9.53 9.138 4.67 5.137 7.65 11.386 10.63 17.579 1.65 3.44 3.44 6.845 4.66 10.444 3.05 9 3.62 18.444 4.51 27.814.54 5.819 1.54 11.531 5.84 15.965 1.98 2.03 4.09 3.926 6.2 5.836.32.281.9.294 1.8.573-.81-.936-1.43-1.374-1.67-1.957-1.45-3.565-4.27-6.636-3.97-10.854.04-.557-.25-1.143-.39-1.711-1.56-6.418-2.6-12.92-2.66-19.515-.13-13.5-3.9-25.785-12.13-36.495-2.98-3.859-6.63-7.213-10.08-10.692-7.01-7.071-15.3-12.024-25.06-14.108-5.74-1.232-11.62-1.839-17.44-2.713-.38-.053-.78.069-1.53.157 1.34.921 2.28 1.597 3.27 2.22 3.75 2.412 6.96 5.394 9.69 8.925 2.4 3.114 5.15 5.992 7.22 9.293 5.63 9.013 9.95 18.704 13.94 28.523 2.11 5.176 4.58 10.253 6.08 15.591 2.65 9.489 7.22 17.805 13.74 25.088 1 1.111 2.22 2.037 3.34 3.046-.01-.814-.29-1.33-.63-1.802-3.45-5.068-6.29-10.456-8.09-16.303-1.74-5.627-3.15-11.339-4.74-17.005-2.41-8.6-4.89-17.178-10.08-24.649-.32-.449-.44-1.021-.65-1.542 1.97 2.271 3.68 4.656 4.97 7.264 3.36 6.794 5.73 13.953 7.57 21.296 2.01 8.016 4.19 15.956 8.11 23.307 1.42 2.673 4.04 6.12 6.06 7.506-.95-2.235-1.83-4.195-2.62-6.192-.75-1.91-1.58-3.824-2.06-5.807a889.5 889.5 0 01-4.64-20.986c-1.59-7.633-5.15-14.348-9.35-20.79-.29-.431-.47-.916-.71-1.373 1.1.776 1.71 1.82 2.3 2.872 2.37 4.275 5.28 8.363 6.96 12.894 2.2 5.952 3.59 12.221 5 18.428 1.3 5.743 2.3 11.538 5.18 16.787 1.02 1.852 1.58 2.729 3.12 3.708-.55-1.85-1.14-3.491-1.53-5.189-.62-2.676-1.31-5.348-1.61-8.065-.62-5.363-.82-10.769-1.51-16.114-.93-7.319-2.42-14.516-6-21.098-1.17-2.149-2.23-4.369-3.34-6.546-3.04-5.856-6.26-11.59-11.12-16.17-2.46-2.322-5.15-4.429-7.75-6.63l-.03.007-.03-.006zm41.41 74.836c.1-.028.22-.06.33-.075.17-2.521.01-5.096.57-7.538 2.24-9.871 4.97-19.621 8.86-28.992 3.51-8.468 5.46-17.207 5.01-26.413-.07-1.291 0-2.574 0-4.179.42.464.64.589.65.74.69 7.907.23 15.723-2.18 23.319-2.35 7.384-5.03 14.658-7.34 22.058-1.43 4.576-2.57 9.269-3.63 13.958-.54 2.396-.26 4.866.44 7.634.92-3.975 1.67-7.511 2.57-11.001 1.51-5.807 3.38-11.485 6.15-16.855 2.39-4.622 4.57-9.343 6.64-14.118 2.88-6.668 4.24-13.672 4.05-20.951-.03-.837.04-1.685.05-2.532.25.019.49.038.73.044-.11 3.407-.03 6.83-.37 10.215-.87 8.661-4.15 16.63-8.25 24.129-4.21 7.699-6.73 15.9-8.89 24.273-.44 1.751-.68 3.532-.13 5.536 1.43-3.056 2.62-5.951 4.1-8.682 2.1-3.882 4.52-7.585 6.59-11.46 2.56-4.764 4.99-9.581 7.27-14.481 2.8-6.027 4.6-12.377 4.5-19.06-.07-4.61-.6-9.21-1.05-13.8-.31-3.071-.87-6.114-1.32-9.172.56.723.87 1.538 1 2.363.86 6.114 1.98 12.229 2.45 18.379.58 7.892-1.29 15.399-4.95 22.443-1.49 2.876-2.96 5.759-4.47 8.612a642.69 642.69 0 01-5.06 9.263c-3 5.403-6.29 10.673-7.73 16.799-.46 1.953-1.12 3.889-.46 6.637 2.08-6.058 6.25-9.82 9.85-14.02 3.26-3.8 6.62-7.529 9.63-11.528 7.47-9.923 11.01-21.127 10.74-33.589-.14-6.815-.59-13.601-2.51-20.122-2.69-9.198-6.72-17.796-12.59-25.48-2.78-3.632-5.86-6.857-10.02-8.936-2.99-1.479-5.92-3.058-8.88-4.601-.94-.491-1.9-.966-2.84-1.445 3.37 4.723 5.43 9.827 6.72 15.179 2.19 9.008 2.8 18.227 3.35 27.451.08 1.357-.15 2.755-.34 4.1-.55 3.79-1.3 7.551-1.71 11.362-.67 6.202-2.47 12.112-4.2 18.036-1.4 4.806-3.01 9.544-3.02 14.653-.01 1.563-.38 3.125-.46 4.695-.24 4.214-.49 8.431-.57 12.645-.02 1.497.45 2.989.7 4.484l.02.023zm-7.12 18.481c-.04.264-.09.515-.12.776 4.04 1.478 6.77 4.475 9.45 7.64 1.78 2.113 3.53 4.345 6.45 6.053 1.02-7.18 3.24-13.896-.08-20.815-.46 1.629-.92 3.272-1.45 5.087-.46.334-1.29.727-1.77 1.375-.78 1.068-1.58 1.072-2.78.802-2.38-.518-4.81-.793-7.24-1.085-.8-.095-1.63.1-2.45.163l-.01.004zm-87.8-67.737c-2.23-1.92-4.04-4.474-7.69-5.227 1.97 3.227 4.54 4.664 7.69 5.227zm62.99-60.252c-1.24 2.991-1.09 3.568 2.2 8.329-.3-3.057-.21-5.867-2.2-8.329zm31.67 123.252c1.67 1.142 2.76 1.878 4.15 2.827-.18-.992-.29-1.597-.39-2.076-1.14-.228-2.11-.42-3.77-.748l.01-.003zm35.55-219.288c1.8.685 3.64 1.273 5.4 2.068 7.68 3.444 14.37 8.46 20.92 13.598 4.88 3.827 8.62 8.791 12.01 13.989.29.456.57.917.9 1.349.1.127.36.143.64.237-.68-4.122-3.22-7.327-5.11-10.815-3.91-7.209-9.26-13.303-15.31-18.815-5.87-5.351-10.28-11.694-13.17-19.122-1.41-3.619-1.35-7.335-1.3-11.146 2.08-.052 2.74 1.262 3.37 2.501 2.64 5.187 3.75 10.855 4.75 16.511.39 2.232.98 4.183 2.59 5.778 2.84 2.826 5.67 5.67 8.53 8.476 6.98 6.851 11.85 15.155 16.3 23.756.14.258.31.48.72 1.086.18-.834.36-1.318.38-1.803.22-4.434 1.98-8.422 3.58-12.438.67-1.699 1.48-3.437 2.61-4.837 3.08-3.823 4.77-7.889 3.56-13.136 1.25 1.225 2.62 2.378 3.77 3.701 4.21 4.811 8.39 9.655 12.51 14.544 4.33 5.142 7.45 11.016 9.05 17.483 1.79 7.258 1.6 14.681-.62 21.845-1.05 3.39-2.86 6.549-4.4 9.776a43.704 43.704 0 00-4.19 16.245c3.01 1.347 6.08 2.634 9.08 4.054 6.8 3.228 12.7 7.697 16.67 14.118 2.43 3.921 4.12 8.336 5.94 12.604 1.3 3.083 2.26 6.301 3.38 9.463 2.28 6.535 4.78 12.97 6.21 19.819 1.74 8.396 4.41 16.585 6.23 24.96 1.55 7.141 4.22 13.896 6.44 20.801.81 2.554 2.18 4.957 3.4 7.359 4.39 8.59 8.85 17.115 14.7 24.875 4.13 5.491 9.35 9.27 15.64 11.749.67.272 1.33.557 1.9 1.306-.51-.031-1.07.034-1.55-.119-5.05-1.53-9.67-3.796-13.28-7.81-1.08-1.201-2.44-2.144-3.73-3.151-3.09-2.45-5.66-5.321-7.87-8.596-5.1-7.569-9.84-15.331-13.31-23.797-2.64-6.44-4.62-13.085-5.64-19.987-.05-.325-.12-.644-.19-.962-2.81-12.387-5.2-24.886-8.62-37.098-2.02-7.25-5.08-14.365-8.7-20.979-4.37-8.029-10.22-15.087-18.6-19.538-2.49-1.316-4.84-2.895-7.24-4.361-1.25-.764-2.47-.691-3.96-.586-4.56.307-7.24 2.897-9.5 6.429-1.28 2.003-2.79 3.871-4.19 5.793-3.81 5.256-8.54 9.66-14.1 12.809-4.69 2.651-10.19 2.76-15.57 2.441-6.63-.389-12.32-3.254-17.66-6.889-4.26-2.908-8.35-6.063-12.57-10.277 1.72-.181 2.81-.374 3.92-.402 2.22-.048 3.85-1.005 5.24-2.755 2.77-3.472 5.7-6.791 8.56-10.188.62-.743 1.14-1.556 1.64-2.24-3.87-1.227-7.68-2.402-11.45-3.628-.82-.259-1.66-.581-2.36-1.071-7.24-5.136-13.55-11.24-17.68-19.177-2.46-4.689-4.25-9.709-6.31-14.602-.61-1.441-1.08-2.932-1.6-4.341.55-.303.74-.494.93-.487 6.91.019 13.85-.124 20.76.204 2.27.111 4.52 1.365 6.7 2.271.66.272 1.09 1.116 1.8 1.895-.65.103-.89.226-1 .142-4.73-3.332-10.2-3.316-15.64-3.35-3.36-.029-6.71.123-10.05.215-.53.016-1.05.127-1.96.244.82 2.09 1.67 3.944 2.26 5.896 1.95 6.398 5 12.307 9.01 17.563 3.74 4.921 8.17 9.432 13.66 12.379 3.38 1.808 7.3 2.685 11.07 3.66 2 .517 3.97-.067 5.73-1.55 2.3-1.954 4.87-3.569 7.48-5.453-4.35-.803-8.53-1.3-12.55-2.389-2.64-.727-5.07-2.315-7.58-3.512.12-.272.24-.545.37-.817 2.35 1.045 4.61 2.365 7.07 3.072 2.53.729 5.23.878 8 .88-7.26-3.948-14.35-7.986-19.81-14.332 1.88.552 3.01 2.26 4.56 3.322 1.61 1.104 3.07 2.427 4.72 3.477 1.72 1.115 3.55 2.073 5.39 3.002 1.7.868 3.46 1.632 5.48 2.034-1.06-.912-2.11-1.841-3.17-2.752 3.1 1.589 6.68 2.178 9.06 5.029.58.702 1.51 2.493 3.17.853-1.92-1.54-3.9-3.049-5.79-4.652-6.63-5.68-11.62-12.601-14.99-20.604-2.34-5.578-4.04-11.44-6.14-17.124-1.6-4.367-3.39-8.671-5.08-13.001-.63-1.591-1.2-3.197-2.03-5.395 14.9 4.154 29.61 6.909 41.32 17.221-2.37-2.545-4.47-5.456-7.18-7.573-6.55-5.151-13.13-10.337-20.76-13.95-1.95-.927-3.82-1.986-5.73-2.979.05-.1.11-.2.17-.3l-.01.004zm64.14 31.406c.13.064.26.128.37.195-.33 1.581-.71 3.147-.99 4.727-.57 3.29-1.65 6.604-1.48 9.865.21 4.163 1.36 8.3 2.27 12.418.66 3.045 1.62 6.038 2.35 9.079.22.926.15 1.929.25 3.308 1.32-2.689 2.6-4.846 3.46-7.158 1.66-4.442 4.27-8.432 5.27-13.245 2.64-12.61-.66-23.657-8.17-33.6-3.93-5.182-8.45-9.879-12.73-14.781-.31-.355-.75-.601-1.25-.975-.9 4.561-1.74 6.348-4.44 9.858-.66.852-1.29 1.766-1.73 2.742-2.74 6.066-5.11 12.217-4.05 19.108.11.812-.39 1.721-.61 2.624 2.8 3.906 5.62 7.837 8.47 11.801-.74-4.586-1.78-9.006-2.11-13.463-.65-9.11-.23-11.109 1.97-13.443-.32 1.677-.78 2.996-.8 4.338-.08 3.776-.2 7.579.12 11.334.5 6.001 2.33 11.686 5.38 16.876 3.39 5.761 6.49 11.656 8.98 17.979.26-1.293.64-2.674.37-3.939-.69-3.261-1.51-6.504-2.53-9.678-2.81-8.883-1.86-17.496 1.6-25.976l.03.006zm-17.51 47.403l2.12-.566c-6.67-2.786-13.45-5.625-20.46-8.547-.59.258-1.46.661-2.35 1.012-5.73 2.253-10.74 5.564-14.68 10.321-3.12 3.748-6.13 7.592-9.18 11.392-2 2.493-4.57 4.039-8.5 4.431 3.32 2.598 5.97 4.828 8.77 6.821 5.46 3.871 11.3 6.835 18.11 7.544 5.53.586 11.07.101 15.83-2.554 5.28-2.933 9.83-7.081 13.48-12.011 1.73-2.35 3.26-4.854 4.92-7.243 1.2-1.714 2.51-3.358 4.01-5.364-5.42.398-10.06 1.738-13.58 5.427-4.88 5.105-10.75 8.309-17.53 9.973-1.04.248-2.07.694-3.66.064 2.24-.769 3.98-1.332 5.68-1.971 4.37-1.636 8.65-3.458 12.08-6.769 3.1-2.983 6.38-5.692 10.41-7.516-1.64-.138-3.3-.298-4.73.211-2.53.89-5.12 1.893-7.32 3.383-4.43 2.989-9.1 4.999-14.47 5.202-2.05.07-4.11.214-6.16.185-.78-.016-1.89-.057-1.61-1.439l-.01.059c.94.199 1.89.591 2.82.553 6.33-.305 12.44-1.449 17.84-5.103 4.27-2.904 8.79-5.043 14.18-4.573 1.14.102 2.3-.155 3.46-.24-1.02-.556-2.08-.68-3.1-.94-2.14-.554-4.24-1.201-6.35-1.802l-.04.08.02-.02zm-31.46-37.194c10.87 16.262 24.64 28.54 42.88 35.683-.21-.873-.49-1.712-1.06-2.25-2.29-2.144-4.62-4.277-7.05-6.256-5.14-4.166-10.39-8.175-15.52-12.358-8.01-6.533-14.45-14.333-18.7-23.831-.32-.756-.53-1.56-.86-2.596.59.165.75.165.78.227.33.67.67 1.341.98 2.018 3.34 7.433 8.1 13.952 14.13 19.27 7.96 7.025 16.45 13.446 24.71 20.153.37.307.64.771.95 1.151.24-.287.46-.588.7-.875-1.64-2.122-3.13-4.368-4.94-6.332-3.95-4.301-8.09-8.454-12.12-12.691-3.81-4-6.82-8.542-8.87-13.719.76.528 1.45 1.146 1.81 1.921 3.33 7.015 9.16 12.023 14.23 17.644 2.6 2.89 5.51 5.514 7.98 8.512 2.79 3.388 5.23 7.052 7.72 10.438-.7-5.47-3.05-10.579-5.42-15.642-1.97-4.213-3.93-8.459-6.33-12.43-5.21-8.661-11.54-16.419-18.9-23.439-4.99-4.768-10.79-8.01-17.1-10.399-5.06-1.922-10.32-3.327-15.53-4.845-1.57-.464-3.26-.574-5.27-.923.57 1.704.95 2.941 1.39 4.16 2.33 6.408 4.73 12.799 7 19.225 2.87 8.123 6.26 15.951 11.93 22.564 4.69 5.482 9.89 10.392 16.58 13.368a375.497 375.497 0 0015.3 6.411c1.73.689 3.65.878 5.49 1.286-.18.204-.36.404-.54.609-2.06-1.614-3.96-3.497-6.21-4.781-7.54-4.31-13.79-10.162-19.77-16.298-3-3.077-5.46-6.695-7.99-10.196-1.03-1.413-1.58-3.178-2.35-4.773l-.03-.006zm90.33 92.087c.6 3.441 1.02 6.213 1.59 8.946 1.87 8.924 3.82 17.828 5.71 26.746.5 2.328.73 4.714 1.29 7.026 1.54 6.481 4.6 12.373 7.28 18.423 3 6.792 7.47 12.683 11.51 18.832 1.05 1.578 2.51 2.889 3.76 4.311.09-.967-.26-1.604-.65-2.217-1.6-2.455-3.44-4.774-4.77-7.36-4.71-9.134-9.96-17.969-13.14-27.893-3.26-10.157-5.76-20.489-8.29-30.827-1.26-5.121-2.72-10.202-4.28-16.004l-.01.017zm-7.15-18.61c-1.41-7.485-5.5-15.381-9.84-19.731-5.71-5.702-14.48-10.934-19.14-11.179 13.18 6.977 23.24 16.875 28.98 30.91zM1835.01 518.8c-.27 6.488 2.08 13.048 5.97 17.07-2.2-5.573-2.09-11.65-5.97-17.07zm59.02 106.373c.25.002.51.017.77.02.04-1.306.08-2.612.13-3.919-.26-.002-.51-.017-.77-.02-.04 1.306-.07 2.609-.12 3.915l-.01.004zm-5.33-16.481c-.15.111-.3.206-.45.317.7 1.333 1.38 2.67 2.07 4.003.11-.058.24-.119.35-.164-.65-1.387-1.32-2.77-1.97-4.156z" fill="#EDEDED"/><path d="M1779.52 548.949c-.4-.316-.83-.497-.93-.792-.94-2.45-1.94-4.869-2.68-7.372-.63-2.138-.97-4.354-1.39-6.549-.09-.427-.02-.897.06-1.34.16-.859.79-1.111 1.32-.437.67.832 1.38 1.753 1.65 2.751.69 2.586 1.18 5.241 1.7 7.873.11.561.06 1.152.08 1.722.06 1.222.11 2.461.19 4.157v-.013zm-3.94-15.433c-.43 4.038 1.26 7.511 2.7 11.05-.11-3.881-.76-7.632-2.7-11.05z" fill="#C2ADD8"/><g style="mix-blend-mode:multiply" fill="#C2ADD8"><path d="M1701.22 626.589c.84.945 1.66 1.876 2.51 2.818-1.05-.734-1.96-1.588-2.51-2.818zM1719 636.59c2 1.199 3.98 2.415 5.98 3.597 4.55 2.702 9.22 3.3 13.95 2.675.04-.009.06-.087.23-.321-8.02-1.291-15.14-5.06-21.73-10.443 7.18 4.904 14.52 9.218 23.09 9.622-2.69-1.323-5.16-2.546-7.65-3.736-2.9-1.38-5.33-3.658-7.97-5.499-3.23-2.258-6.44-4.598-9.74-6.705-3.5-2.212-7.3-3.37-11.13-4.144-.35-.07-.7-.154-1.04-.359 1.67-.085 3.32.267 4.98.766 4.71 1.395 9.04 3.804 13.13 6.896 2.69 2.038 5.39 4.06 8.13 6.015 2.89 2.068 5.98 3.687 9.17 4.969.5.212 1.04.267 1.61.302-4.76-2.715-8.54-6.983-12.98-10.141-4.44-3.148-8.87-6.264-13.79-8.284-.29-.126-.58-.284-.82-.738.55.203 1.11.372 1.65.606 5.26 2.255 10.08 5.492 14.71 9.147 2.38 1.873 4.67 3.87 7.08 5.69 1.45 1.099 3.03 1.991 4.57 2.95.37.23.81.307 1.21.453.01-.241.06-.401.01-.451-1.91-1.963-3.43-4.363-5.64-6.019-.89-.676-1.71-1.489-2.54-2.269-2.89-2.739-5.88-5.307-9.23-7.361 1.69.225 2.99 1.449 4.28 2.497 3.12 2.536 6.19 5.19 9.2 7.903 1.45 1.31 2.73 2.884 4.07 4.336.24.259.49.514.92.64-2.06-3.453-3.96-7.05-6.24-10.348-4.78-6.862-10.97-11.112-18.55-13.132-5.66-1.504-10.95-1.049-16.31-.234-2.05.309-4.16.391-6.25.544-.8.064-1.61.056-2.61.092 2.17 2.174 4.21 4.184 6.2 6.25.95.992 1.77 2.101 2.66 3.166-.97-.941-1.94-1.882-2.93-2.82-2.11-2.023-4.23-4.044-6.36-6.078-.25-.242-.47-.52-.85-.939.44-.163.74-.336 1.07-.366.85-.063 1.72-.128 2.59-.089 2.74.13 5.34-.409 7.98-.792 3.66-.528 7.39-.939 11.14-.264 4.08.719 8.21 1.83 11.98 4.174a36.078 36.078 0 018.24 7.004c3.01 3.46 5.23 7.385 7.52 11.295.31.526.66 1.013.99 1.519.78 1.195 1.7 2.209 3.46 2.489-1.12 1.111-1.56 2.526-3.24 2.508-.66-.012-1.32.276-1.92.549-2.6 1.193-5.43 1.382-8.3 1.431-7.65.146-14.55-2.865-20.75-8.383-2.61-2.327-4.95-5.045-7.39-7.589.32.165.71.269.96.51 2.58 2.677 5.1 5.428 7.99 7.736.83.66 1.65 1.353 2.53 1.925 5.95 3.83 12.15 5.658 18.66 5.043.21-.019.42-.068.62-.1.21-.046.4-.107.96-.265-.75-.111-1.12-.221-1.48-.226-4.59.084-8.77-1.762-12.75-4.594-1.14-.814-2.25-1.647-3.38-2.478l.05-.101v-.031z"/><path d="M1718.47 636.48l-2.03-1.058c.03-.111.07-.225.11-.336.34.189.67.377 1 .583.34.219.64.461.96.697l-.05.1.01.014zm-2.67-1.476c-.47-.362-.92-.726-1.53-1.188.98.185.98.185 1.53 1.188zm-3.12-6.977c.38.465.73.918 1.11 1.383-.06.058-.13.101-.17.156l-1.14-1.304c.07-.074.13-.161.2-.235z"/></g><path d="M1884.35 850.473c-.52-1.857-1.25-3.687-1.54-5.594-1.09-7.389-2.6-14.708-2.67-22.245-.1-10.399-.77-20.784.08-31.169.5-6.169 1.06-12.326 1.49-18.491.19-2.808.27-5.644.14-8.451-.28-5.411-.65-10.827-1.2-16.224-.45-4.354-.59-4.345-2.8-7.508 1.18-.795 2.03-1.781 1.18-3.468-2.32.932-4.67 1.872-7.5 3.011 1.18.781 1.96 1.512 2.89 1.883 2.36.972 3.45 2.875 4.08 5.152 2.37 8.481 2.72 17.082 1.54 25.785-1.24 9.125-2.88 18.231-3.43 27.411-.73 11.984-1.17 24.017 1.07 35.994 1.12 5.935 1.06 12.07 2.55 18.002 2.01 7.999 4.26 15.909 7.48 23.515 3.97 9.348 10.67 16.514 18.35 22.898.58.478 1.16.97 1.73 1.464.05.042.01.208.01.686-1.3-.819-2.56-1.411-3.57-2.294-8.73-7.438-15.57-16.17-19.41-27.198-3.12-8.956-5.68-18.021-7.07-27.369-1.21-8.145-2.57-16.35-2.69-24.546-.16-9.398-.11-18.866 1.12-28.268 1.24-9.577 2.11-19.194 3.03-28.809.55-5.817-.7-11.463-2.31-16.997-1.18-4.031-6.45-7.12-10.52-6.198-9.35 2.112-18.56.57-27.78-.927-9.39-1.523-17.77-5.621-25.99-10.088-2.34-1.272-4.36-3.193-6.41-4.965-3.83-3.321-7.55-6.769-11.62-10.419 2.38-1.23 4.68-2.521 7.06-3.623 3.73-1.73 7.42-3.661 11.3-4.913 5.65-1.823 11.51-1.888 17.37-.757 2.33.445 4.7.682 7.26 1.038.04-1.461-1.02-2.442-1.72-3.551-4.97-7.953-8.36-16.401-8.09-25.998.11-3.898.26-7.806.28-11.71.01-1.76.67-2.78 2.46-2.642 3.34.261 6.88.03 9.94 1.122 6.41 2.292 12.61 5.204 18.38 8.947 3.35 2.182 6.16 4.735 8.15 8.746 3.4-7.592 6.11-15.015 12.21-20.478 5.89-5.247 11.49-10.843 19.65-13.38.6 1.315 1.28 2.315 1.51 3.406a138.82 138.82 0 011.61 9.249c.84 6.12 1.21 12.281 1.28 18.467.08 8.546-.56 16.92-3.85 24.906-2.64 6.42-5.09 12.929-7.98 19.23-2 4.349-4.91 8.169-8.61 11.313-2.24 1.894-2.92 5.099-2.05 7.808.76 2.357 1.49 4.777 1.74 7.229 1.37 13.759 1.37 27.488-1.11 41.154-.37 1.997-.21 4.107-.25 6.158-.03 1.725-.01 3.448.01 5.175.01 3.682-.02 7.348.05 11.029.1 5.207.01 10.436.51 15.606.61 6.464 1.75 12.883 2.62 19.319.11.829.01 1.684.01 2.515l.09.018-.06.044zm-46.13-142.648c1.04.2 2.11.307 3.11.63 1.76.57 3.46 1.296 5.19 1.917 4.5 1.622 9 3.188 12.6 6.555 1.31 1.224 2.93 2.126 5.05 3.627-3.72-4.533-6.95-8.45-10.16-12.401-3.13-3.847-6.87-7.232-9.4-12.352 4.97 5.701 9.51 10.886 14.12 16.152-3.87-8.261-7.68-16.386-11.49-24.51.21-.112.42-.224.63-.323 5.24 11.525 10.38 23.104 17.88 31.647-5.16-11.055-8.85-24.317-15.88-36.108.79.801 1.38 1.697 1.97 2.594 3.59 5.369 5.8 11.403 8.25 17.302 1.67 4 3.31 8.021 4.96 12.037-2.01-10.87-.39-21.406 1.41-31.695-.64-.658-1.44-1.175-1.83-1.914-1.33-2.443-3.23-4.27-5.46-5.911-5.93-4.36-12.64-7.177-19.47-9.667-3.07-1.131-6.47-1.925-10.15-.712-.15 1.209-.42 2.463-.45 3.736-.08 3.581.09 7.164-.1 10.734-.22 4.095.66 7.983 2.03 11.75 1.61 4.367 3.37 8.666 6.16 12.476.91 1.247 2.11 2.628 1.06 4.429-1.25-.101-2.54-.079-3.77-.326-8.68-1.713-17.24-1.938-25.58 1.621-1.9.803-3.87 1.416-5.73 2.295-2.19 1.022-4.39 2.074-6.37 3.703 2.09 1.86 4.09 3.379 5.76 5.197 5.82 6.373 13.03 10.787 20.79 14.194 9.03 3.955 18.71 5.596 28.49 6.239 3.98.256 8.03.085 11.99-.4 2.86-.345 5.65-1.456 8.42-2.327 1-.31 1.83-.954.79-1.998-.65.413-1.23 1.119-1.86 1.146-4.4.166-8.79.204-13.19.228-.74.003-1.5-.202-2.23-.401-4.38-1.231-8.75-2.467-13.13-3.728-1.57-.451-3.13-.92-4.65-1.468-.59-.207-1.08-.697-1.62-1.044 1.89.071 3.54.557 5.22.964 3.8.925 7.77 1.366 11.34 2.829 4.83 1.969 9.76.93 14.72 1.43-3.06-2.457-5.68-5.4-9.51-6.581-2.69-.842-5.37-1.713-8.09-2.462-5.33-1.469-10.72-2.727-16.01-4.348-2.59-.784-5.28-1.527-7.44-3.409 2.18.428 4.22 1.317 6.35 1.858 6.93 1.802 13.88 3.442 20.82 5.227 3.9 1.009 7.69 2.3 10.82 4.993.38.32.86.543 1.29.806-5.64-6.646-13.64-10.062-20.32-15.263 8.85 4.957 17.89 9.628 25.32 17.048-.79-3.263-1.98-6.082-4.05-8.354-5.62-6.136-11.79-11.444-20.04-13.907-2.96-.879-5.73-2.488-8.57-3.752l.01-.003zm60.04-57.619c-.65.091-1.07.104-1.47.213-3.8.961-6.68 3.448-9.8 5.62-8.97 6.259-14.65 14.731-18.23 24.99-3.01 8.615-3.03 17.443-3.16 26.325 0 .323.03.652.09.975 1.73 8.907 5.25 17.177 9.16 26.078-1.54-15.048-1.47-29.405 1.13-43.676-.46 11.097-2.12 22.19-.12 33.331 1.48-5.404 2.74-10.835 3.91-16.297 1.14-5.356 1.48-10.893 3.62-16.025-.78 5.993-1.52 12.015-2.96 17.86-1.43 5.813-2.48 11.652-3.1 17.586-.06.663.07 1.347.14 2.565 4.28-5.016 6.08-10.647 8.21-16.043 2.13-5.412 3.7-11.052 5.53-16.591-.24 7.012-2.62 13.46-5.5 19.749-2.86 6.225-5.9 12.371-9.12 19.114 1.18-.498 1.87-.698 2.46-1.067 5.3-3.306 9.04-7.981 11.66-13.606.96-2.073 1.87-4.158 2.72-6.272 1.96-4.829 3.92-9.645 5.75-14.512.8-2.126 1.64-4.336 1.87-6.565 1.04-10.055 1.22-20.122-.08-30.183-.18-1.388-.28-2.794-.43-4.189-.32-3.222-.88-6.377-2.3-9.402l.02.022z" fill="#C2ADD8"/><path d="M1695.97 468.824c.65.593 1.16 1.064 1.67 1.549 3.31 3.11 6.09 6.678 8.48 10.625 2.22 3.676 3.34 7.594 3.69 11.759.07.822.14 1.671.1 2.478-.05.865-.25 1.697-.41 2.688-.38-.191-.7-.297-.95-.505-1.6-1.356-2.88-3.004-3.96-4.841-1.2-2.051-2.44-4.077-3.54-6.168-1.78-3.427-3.27-6.985-4.09-10.75-.44-1.996-.76-4.008-1.11-6.011-.04-.176.05-.368.13-.814l-.01-.01zm12.99 23.786c.29-2.118-.42-4.19-.91-6.272-.16-.713-.4-1.438-.74-2.079-2.56-4.828-5.63-9.264-9.61-12.932-.29-.258-.61-.477-1.09-.842.4 4.862 1.79 9.212 3.79 13.426 2.76 5.805 6.01 10.848 7.53 11.626-1.09-2.078-2.2-4.051-3.19-6.097-1.01-2.096-1.93-4.232-2.85-6.365-.87-2.003-2.28-3.789-2.61-6.025.23.101.38.233.44.403.25.679.38 1.414.7 2.061 1.58 3.264 3.19 6.522 4.85 9.768.88 1.73 1.85 3.426 2.77 5.134.3.564.62 1.126.93 1.704l.3-.074c-.04-.473.09-1.158-.16-1.395-.77-.722-.95-1.715-1.41-2.568-.48-.879-.84-1.827-1.3-2.709-1.19-2.295-2.4-4.584-3.59-6.865a1.482 1.482 0 01-.17-.443c-.04-.146-.02-.294-.02-.449 1.74 3.07 3.28 6.159 5.21 9.309.03-.704.05-1.092.07-1.481.05.001.11.016.16.017l.9 3.148zm31.72 74.834c-10.21-17.699-7.64-39.518 5.18-50.425.12.304.26.573.31.838.45 4.264 1.86 8.292 3.74 12.225.48 1.012.77 2.129 1.06 3.215.84 3.266 1.59 6.525 1.58 9.858-.02 6.209-1.49 11.744-4.81 16.441-1.02 1.449-2.05 2.902-3.2 4.209-1.16 1.294-2.51 2.387-3.84 3.65l-.02-.011zm1.32-38.274c.1.064.2.128.3.189-1.03 4.107-1.92 8.239-1.87 12.669.08 6.503.48 11.702 1.13 13.124 1.01-6.439 1.49-12.942 4.32-18.867-.94 3.638-2.01 6.875-2.6 10.286-.59 3.427-1.19 6.871-1.27 10.453 1.2-2.56 1.46-5.622 2.99-7.984-.72 2.707-1.52 5.376-2.26 8.072-.72 2.663-1.36 5.366-1.26 8.371 2.89-2.001 4.98-4.695 6.69-7.689 2.17-3.824 3.51-8.088 3.7-12.879.22-5.432-1.11-10.662-3.16-15.823-1.1-2.745-2.34-5.456-2.75-8.39-.08-.629-.36-1.257-.58-1.971-11.86 9.618-13.77 31.931-5.09 46.468.12-.374.25-.678.31-1.011.53-2.459.34-5.041.22-7.594-.13-2.667-.42-5.341-.66-8.012-.52-5.923-.12-11.657 1.18-17.196.17-.761.43-1.485.66-2.23v.014z" fill="#EDEDED"/><path d="M1745.22 548.042c.76-1.402 1.51-2.819 2.29-4.224-.48 1.588-1.4 2.909-2.29 4.224z" fill="#EDEDED"/><path opacity=".6" d="M1340.65 933.45l13.65-13.65c2.6 3.3 5.75 6.15 9.45 8.55 3.7 2.4 7.7 4.25 12 5.55 4.3 1.3 8.7 1.95 13.2 1.95 4.9 0 9.1-.6 12.6-1.8 3.6-1.2 6.35-2.9 8.25-5.1 2-2.3 3-4.95 3-7.95 0-4-1.95-7.2-5.85-9.6-3.8-2.5-10.65-4.5-20.55-6-9.7-1.4-17.6-3.45-23.7-6.15-6-2.7-10.45-6.1-13.35-10.2-2.8-4.1-4.2-8.95-4.2-14.55 0-6.5 1.8-12.25 5.4-17.25 3.7-5 8.75-8.9 15.15-11.7 6.4-2.8 13.7-4.2 21.9-4.2 9.6 0 18.15 1.8 25.65 5.4 7.5 3.6 13.85 8.45 19.05 14.55l-13.5 13.5c-3.8-4.9-8.35-8.8-13.65-11.7-5.2-2.9-11-4.35-17.4-4.35-6.5 0-11.8 1.35-15.9 4.05-4.1 2.6-6.15 6.1-6.15 10.5 0 2.3.8 4.3 2.4 6 1.6 1.7 4.25 3.15 7.95 4.35 3.8 1.1 8.9 2.15 15.3 3.15 9.7 1.5 17.6 3.7 23.7 6.6 6.2 2.8 10.8 6.4 13.8 10.8s4.5 9.65 4.5 15.75c0 6.8-1.9 12.7-5.7 17.7-3.8 5-9.05 8.9-15.75 11.7-6.7 2.7-14.45 4.05-23.25 4.05-10.3 0-19.5-1.8-27.6-5.4-8.1-3.7-14.9-8.55-20.4-14.55zM1499.53 951h-20.25v-91.5h20.25V951zm33.6-90h-87.45v-17.25h87.45V861zm106.42-17.25v64.95c0 14.1-4.1 25.1-12.3 33-8.1 7.8-19.3 11.7-33.6 11.7-14.2 0-25.4-3.9-33.6-11.7-8.1-7.9-12.15-18.9-12.15-33v-64.95h20.25v64.95c0 8.2 2.25 14.75 6.75 19.65 4.5 4.8 10.75 7.2 18.75 7.2 8.1 0 14.4-2.4 18.9-7.2 4.6-4.9 6.9-11.45 6.9-19.65v-64.95h20.1zM1659.83 951V843.75h37.5c11.5 0 21.55 2.3 30.15 6.9 8.7 4.5 15.45 10.8 20.25 18.9 4.9 8 7.35 17.25 7.35 27.75s-2.45 19.8-7.35 27.9c-4.8 8-11.55 14.3-20.25 18.9-8.6 4.6-18.65 6.9-30.15 6.9h-37.5zm20.25-17.25h17.25c7.5 0 13.95-1.5 19.35-4.5 5.5-3 9.7-7.2 12.6-12.6 3-5.5 4.5-11.95 4.5-19.35 0-7.4-1.5-13.8-4.5-19.2-2.9-5.5-7.1-9.7-12.6-12.6-5.4-3-11.85-4.5-19.35-4.5h-17.25v72.75zM1793.32 951h-20.25V843.75h20.25V951zm75.5 2.4c-8.3 0-15.95-1.4-22.95-4.2-6.9-2.8-12.95-6.7-18.15-11.7-5.2-5-9.2-10.9-12-17.7-2.8-6.9-4.2-14.4-4.2-22.5s1.4-15.55 4.2-22.35c2.8-6.8 6.8-12.7 12-17.7s11.25-8.9 18.15-11.7c7-2.8 14.65-4.2 22.95-4.2 8.3 0 15.9 1.4 22.8 4.2 7 2.8 13.1 6.7 18.3 11.7 5.2 5 9.2 10.9 12 17.7 2.8 6.8 4.2 14.25 4.2 22.35 0 8.1-1.4 15.6-4.2 22.5-2.8 6.8-6.8 12.7-12 17.7s-11.3 8.9-18.3 11.7c-6.9 2.8-14.5 4.2-22.8 4.2zm0-17.85c7.1 0 13.35-1.65 18.75-4.95 5.4-3.3 9.6-7.8 12.6-13.5 3.1-5.8 4.65-12.4 4.65-19.8s-1.55-13.95-4.65-19.65c-3-5.7-7.2-10.2-12.6-13.5-5.4-3.3-11.65-4.95-18.75-4.95-7 0-13.25 1.65-18.75 4.95-5.4 3.3-9.65 7.8-12.75 13.5-3 5.7-4.5 12.25-4.5 19.65 0 7.4 1.5 14 4.5 19.8 3.1 5.7 7.35 10.2 12.75 13.5 5.5 3.3 11.75 4.95 18.75 4.95z" fill="url(#paint0_linear_402_9561)"/><path d="M52.704 241.042c-.598-.163-.91-.367-1.155-.313-4.416 1.033-8.588-.299-12.828-1.236-5.395-1.196-10.817-2.202-16.402-2.324-7.624-.163-14.867 1.264-21.852 4.226-1.141.489-2.296.965-4.131 1.74 1.033-2.474 2.229-3.86 3.628-4.961 4.702-3.669 9.282-7.555 14.296-10.762 6.428-4.118 12.203-8.888 17.354-14.459 2.582-2.786 4.05-6.143 4.443-9.934.068-.598-.135-1.223-.203-1.807-1.685-.191-2.202.937-2.827 1.956-1.63 2.677-3.41 5.273-4.892 8.045-3.628 6.849-9.254 11.551-15.641 15.709-4.893 3.18-9.567 6.795-13.93 10.682-2.65 2.364-4.525 5.612-6.685 8.384.462-2.16.95-4.471 1.44-6.781 1.359-6.373 2.61-12.774 4.104-19.106.748-3.153 2.011-6.197 2.922-9.323.978-3.356 3.248-5.558 6.101-7.311 1.36-.829 2.732-1.644 4.104-2.459-.054-.231-.095-.449-.15-.68-.53-.108-1.073-.353-1.59-.326-13.724.87-25.9 5.477-36.636 14.282-8.928 7.325-15.886 16.049-20.425 26.54-2.446 5.64-3.9 11.796-3.737 18.047.123 4.743.775 9.485 1.319 14.214.462 4.091 1.195 8.14 1.576 12.231.163 1.78-.245 3.614-.367 5.123 1.617.856 3.234 1.427 4.47 2.446 4.608 3.778 9.323 7.474 13.55 11.646 6.808 6.713 14.893 11.075 23.7 14.405 7.786 2.935 15.885 3.125 24.039 2.921 2.704-.068 5.422-.285 8.126-.38 3.492-.122 6.944-.014 10.11 1.807.49.286 1.156.272 2.27.517-1.604-2.501-2.827-4.634-4.24-6.605-4.878-6.781-9.743-13.589-14.785-20.248-3.955-5.232-8.575-9.784-14.717-12.502-.856-.381-1.604-.965-2.243-2.052 1.604.34 3.248.557 4.797 1.046 4.634 1.468 9.228 3.099 13.848 4.58 2.99.951 5.98 2.106 9.064 2.541 4.485.625 9.05.938 13.576.883 1.916-.013 3.9-1.127 5.707-2.038.924-.462 1.563-1.603.856-2.799-.638-1.074-1.617-1.414-2.8-.979a81.175 81.175 0 00-3.926 1.549c-6.21 2.732-12.435 3.303-18.917.748-3.41-1.345-7.052-2.134-10.559-3.234-1.44-.449-2.894-.952-4.24-1.618-3.288-1.63-6.903-1.685-10.409-2.31-.475-.081-.951-.204-1.454-.503 24.746-4.498 42.385-18.97 56.314-39.232l.027.014zm-39.083 21.851l-.054-.081c-2.147 1.209-4.308 2.419-6.455 3.642-8.113 4.593-17.122 6.713-25.969 9.254-1.726.489-3.547.652-5.327.965a36.73 36.73 0 017.99-4.023c10.22-3.709 20.357-7.582 29.109-14.268.435-.326.76-.788 1.1-1.142-4.905 2.623-9.648 5.463-14.635 7.773-4.947 2.283-10.124 4.05-15.207 6.034 8.412-9.186 17.925-16.796 28.103-23.632-5.177 2.963-10.287 6.034-14.975 9.635-4.892 3.751-9.268 8.181-14.133 11.999-3.153 2.474-6.768 4.349-10.165 6.496 7.325-7.882 14.527-15.628 17.884-26.132 0 1.155 0 2.324-.014 3.574.516-.123.652-.123.693-.177.15-.285.34-.571.394-.87.816-4.335 3.452-7.052 7.406-8.778 4.607-2.012 9.35-3.466 14.324-4.186 5.938-.856 11.863-.897 17.774.435 6.061 1.373 12.15 2.609 18.224 3.9-.055.163-.068.394-.19.557-7.95 10.913-17.327 20.194-29.38 26.649-8.834 4.729-18.075 7.8-28.103 8.507-7.23.503-14.46 1.155-21.689 1.726-.204.013-.421-.177-.951-.408 6.59-1.848 12.869-3.465 19.052-5.409 5.164-1.617 10.355-3.302 15.26-5.558 3.561-1.644 6.66-4.28 9.975-6.468l-.04-.014zm-42.48-27.368l.041.054c-.462.34-1.141.598-1.359 1.06-1.033 2.269-1.943 4.593-2.908 6.89-3.343 7.854-5.164 16.089-5.993 24.555-.394 3.955-1.74 7.515-3.873 10.913-.15-4.797-.217-9.567.204-14.296.408-4.634 1.033-9.295 2.066-13.834 1.019-4.485 2.677-8.833 4.05-13.236-4.92 8.846-6.347 18.604-7.448 28.415-.448 3.982-.299 8.018-.516 12.027-.109 2.106-.38 4.212-2.759 5.666-.883-5.367-1.861-10.477-2.54-15.627-.436-3.316-.544-6.686-.572-10.029-.027-5.816 1.17-11.565 3.48-16.783 4.51-10.219 10.939-19.12 19.894-26.132 6.59-5.151 13.657-9.255 21.661-11.606 3.37-.992 6.93-1.304 10.532-1.943-.054.585-.04.72-.081.775-.3.312-.585.639-.925.897-2.826 2.092-4.552 4.946-5.476 8.262-1.359 4.919-2.677 9.852-3.86 14.812-1.005 4.227-1.725 8.507-2.704 12.734-1.318 5.707-2.921 11.292-5.476 16.646-2.107 4.431-5.273 7.882-8.33 11.524-4.023 4.784-9.173 8.276-13.658 12.529-.625.598-1.535 1.183-2.5.313 3.954-4.172 8.344-7.882 11.524-12.421 3.152-4.498 5.897-9.458 7.243-14.948-10.247 17.884-10.817 18.699-14.514 20.044 3.737-6.726 5.314-14.024 7.094-21.28 1.305-5.368 3.207-10.587 4.92-15.846.72-2.201 1.63-4.321 2.459-6.482-.815.462-1.169 1.115-1.468 1.794-3.669 8.031-6.088 16.484-8.276 24.991-1.793 6.971-3.981 13.752-8.357 19.582-.625.829-.978 2.256-2.65 2.038.177-.829.313-1.549.49-2.269.502-2.106 1.277-4.186 1.494-6.305 1.182-11.66 4.172-22.817 9.078-33.457l.013-.027zm-3.207 48.187c2.664-1.726 5.613-2.283 8.453-2.093 1.63.109 3.139-.027 4.729-.095 3.452-.149 7.053-.72 10.355 0 10.07 2.147 18.59 7.243 24.95 15.411 5.205 6.672 10.015 13.643 14.962 20.506.652.91 1.06 1.997 1.508 2.867-5.476.122-10.64.15-15.804.367-9.621.421-19.039-.19-27.967-4.267-6.142-2.799-12.108-5.775-17.027-10.586-4.267-4.172-8.752-8.113-13.141-12.149-.924-.842-1.875-1.644-3.22-2.826 6.25-.055 11.496.978 16.238 4.294 3.004 2.093 6.13 4.185 9.472 5.599 3.357 1.426 7.066 2.038 10.627 2.962.57.15 1.21.054 1.82.068-1.29-.815-2.69-1.019-4.022-1.413-4.552-1.386-8.996-2.773-13.045-5.599-3.466-2.419-6.713-5.572-11.239-6.238-1.562-.231-3.098-.638-4.634-.978 4.797-.34 9.527-.435 14.025 1.658 2.65 1.223 5.422 2.229 8.207 3.071 6.347 1.903 12.693 3.778 18.265 7.556 1.372.924 2.867 1.372 4.443 1.223-2.31-1.25-4.566-2.501-6.849-3.697-2.296-1.209-4.525-2.582-6.93-3.506-5.355-2.052-10.845-3.764-16.212-5.802-3.289-1.25-6.55-2.175-10.097-2.188-2.664 0-5.327-.299-8.684-.503 8.1-2.745 15.777-1.699 23.401-1.671 7.977.027 14.907 3.927 22.368 5.829-10.79-6.278-22.517-8.371-34.938-7.773l-.014-.027zm60.215-69.577c2.092-3.411 4.185-6.835 6.291-10.246-.706 4.28-2.527 7.868-6.291 10.246zm11.32 75.815c2.826-.462 4.756-3.384 8.14-2.949-1.971 2.881-3.724 3.533-8.14 2.949z" fill="#EDEDED"/><path d="M-87.714 290.064c.788-.435 1.63-.789 2.364-1.305 7.61-5.368 15.696-10.219 21.675-17.544 5.409-6.618 10.899-13.168 15.247-20.601 5.395-9.227 9.594-18.957 13.413-28.905 2.758-7.188 6.102-14.146 9.064-21.24 2.337-5.598 4.552-11.265 6.74-16.918 2.718-7.012 6.32-13.576 10.668-19.678 3.18-4.457 7.27-8.004 12.651-9.716 8.834-2.813 16.566-7.583 23.51-13.63 4.172-3.628 8.33-7.311 12.149-11.293 5.612-5.83 9.567-12.842 13.127-20.058 1.821-3.682 3.887-7.338 5.069-11.238 1.522-5.069 2.35-10.341 3.316-15.573.299-1.631.23-3.289 1.63-3.764a805.597 805.597 0 00-1.535-4.118c-1.115.462-2.46 1.033-3.819 1.563-5.041 1.984-10.138 3.832-15.098 5.979-3.954 1.712-7.759 3.778-11.55 5.64 1.807-3.303 4.783-5.79 7.691-8.344 7.257-6.387 14.609-12.652 21.689-19.215 4.552-4.213 7.881-9.486 10.898-14.894 1.36-2.433 1.753-6.605 1.074-9.404-.666.326-1.536.475-1.808.951-.788 1.386-1.712 2.854-1.93 4.39-1.06 7.514-4.375 13.765-10.042 18.78-6.985 6.183-13.997 12.339-20.954 18.536-2.338 2.079-4.607 4.253-7.284 6.74 2.174-3.941 4.09-7.447 6.02-10.94 3.614-6.536 7.256-13.059 10.844-19.609 4.335-7.936 7.624-16.334 10.26-24.95 1.4-4.593 2.949-9.2 3.41-14.078.45-4.852 0-9.526-1.834-14.052-.23-.57-.638-1.046-.965-1.576-2.215 1.454-2.473 1.957-1.943 4.267a220.72 220.72 0 002.175 8.847c.801 3.003.964 5.884-.069 8.928-1.943 5.748-3.302 11.7-5.408 17.38-1.835 4.96-4.213 9.744-6.659 14.446-2.35 4.512-5.164 8.779-7.637 13.222-3.316 5.966-6.482 12.013-10.287 17.843.598-2.908 1.277-5.816 1.794-8.738 1.155-6.495 2.378-12.91 2.065-19.636-.271-5.558-.638-11.035-1.93-16.43-.475-1.997-1.087-3.981-1.888-5.857-1.346-3.166-2.895-6.25-4.458-9.567-2.976 1.984-4.62 4.594-6.17 7.108C11.298 41.95 5.047 52.1-.823 62.47-3.53 67.24-5.336 72.499-6.94 77.826c-1.793 5.966-2.405 12.122-3.696 18.155-.136.639-.258 1.291-.285 1.93-.272 7.243-.422 14.486-.816 21.729-.299 5.68.557 11.239 1.319 16.824.87 6.495 3.315 12.488 5.449 18.767-11.075 6.876-16.878 17.815-21.295 29.896-2.935 8.045-6.414 15.886-9.811 23.754-2.867 6.659-5.721 13.358-9.037 19.8-3.261 6.332-6.618 12.719-10.803 18.454-5.341 7.325-10.695 14.731-17.503 20.873-1.849 1.672-3.765 3.275-5.708 4.852-4.878 3.968-9.635 8.112-14.717 11.781-2.772 1.998-6.129 3.194-9.214 4.757-3.003 1.508-3.343 2.228-2.622 5.503.19-.068.53-.149.53-.217-.123-2.473 1.331-3.71 3.438-4.444 6.074-2.106 11.088-5.816 15.79-10.097 2.718-2.486 5.6-4.797 8.52-7.066 5.613-4.362 10.424-9.499 14.745-15.084 8.235-10.654 15.546-21.893 21.295-34.109 2.215-4.702 4.307-9.472 6.319-14.269 4.185-10.002 8.194-20.071 12.407-30.073 3.723-8.847 9.186-16.43 16.986-22.192.422-.312.884-.57 1.617-.543-.448.516-.883 1.046-1.331 1.563-1.835 2.106-3.955 4.036-5.477 6.332-5.177 7.814-8.887 16.348-12.19 25.113-2.989 7.909-6.495 15.628-9.73 23.442-1.983 4.81-3.995 9.607-5.816 14.486-3.954 10.627-9.05 20.683-15.505 29.978-5.612 8.099-12.04 15.628-19.786 21.797-4.145 3.302-8.656 6.156-12.991 9.227-.394.286-.748.625-1.128.938.081.136.177.272.258.408l.014-.027zm95.22-140.106c.992-.381 2.052-.639 2.949-1.169 4.783-2.813 9.268-6.061 13.14-10.069 2.936-3.031 5.667-6.252 8.521-9.363 4.484-4.906 8.235-10.342 11.28-16.24 4.47-8.67 8.791-17.408 13.194-26.105.394-.76.897-1.481 1.414-2.174.448-.598.978-1.141 1.48-1.712-.42 4.783-1.1 9.403-2.54 13.78-1.373 4.185-3.466 8.153-5.395 12.148A86.652 86.652 0 0138.693 128.5c-4.66 5.341-10.205 9.717-15.79 14.011-5.885 4.512-12.244 8.235-19.433 10.328-1.835.53-3.697 1.264-5.925.408.829-5.3 1.196-10.654 2.541-15.737 3.533-13.372 9.445-25.657 18.509-36.215 6.794-7.923 14.703-14.446 24.65-18.115 3.248-1.21 6.55-2.297 9.812-3.438.734-.258 1.454-.516 2.174-.775-1.019 1.4-2.215 2.324-3.302 3.357-7.447 7.053-13.494 15.247-19.242 23.686-3.778 5.545-7.515 11.13-11.28 16.688a667.544 667.544 0 01-2.677 3.913c.19.136.367.259.558.395 3.628-4.825 7.623-9.431 10.817-14.541 5.884-9.417 12.42-18.291 19.894-26.486 1.604-1.752 3.615-3.139 5.898-5.068-5.843 9.553-11.252 18.522-16.796 27.396-3.67 5.857-7.338 11.673-12.027 16.878-5.082 5.639-10.164 11.252-15.709 16.429-.435.408-.666 1.06-.992 1.59l-.04-.082c.87-.57 1.888-1.005 2.608-1.725 4.933-5.015 9.703-10.192 14.731-15.125 4.227-4.159 7.216-9.227 10.464-14.052 4.158-6.183 7.65-12.8 11.537-19.174 1.577-2.596 3.425-5.028 5.137-7.529-1.55 4.254-3.628 8.154-5.572 12.136-2.079 4.28-3.859 8.738-6.074 12.95a101.302 101.302 0 01-11.062 16.729c-7.107 8.738-15.056 16.429-24.773 22.218.068.136.122.286.19.421l-.013-.013zm12.149-90.953l.095-.041c-.3 2.8-.408 5.626-.91 8.385-2.352 12.869-6.85 25.099-11.348 37.316-1.766 4.783-3.954 9.39-5.925 14.092-.34.802-.516 1.658-.774 2.487-1.495 4.62-2.99 9.254-4.498 13.861-.028.081-.313.081-.748.19.38-4.335.612-8.425 2.31-12.611 3.534-8.738 6.55-17.707 8.765-26.92 1.441-6.007 3.099-11.959 4.54-17.979 1.345-5.599.937-11.211-.177-16.796-.082-.38-.313-.72-.476-1.087.666 7.732.258 15.247-1.753 22.775C6.12 92.53 3.674 102.41.317 112.071c-2.147 6.183-5.53 12.026-5.83 18.808-.068 1.589-.367 3.179-.638 5.462-.979-5.87-.789-11.034.163-16.157 1.141-6.183 2.527-12.312 3.71-18.495.815-4.254 1.277-8.589 2.269-12.788C1.173 83.887 1.16 78.86.983 73.804l.109-.041C.86 74.809.534 75.828.426 76.888.249 78.71.385 80.585.072 82.392-.906 88.14-2.034 93.875-3.12 99.61c-.747 3.927-1.508 7.868-2.297 11.781-.462 2.324-1.06 4.634-1.48 6.972-1.156 6.387-1.36 12.855-1.292 19.351-1.372-4.783-2.093-9.662-2.229-14.595-.285-11.157.19-22.286 1.903-33.348 1.821-11.714 5.721-22.68 11.863-32.805 5.287-8.71 10.695-17.326 16.117-25.955.924-1.482 2.202-2.745 3.724-4.62 1.916 4.43 3.846 8.085 5.096 11.958 2.405 7.529 2.745 15.397 2.432 23.197-.353 8.914-2.582 17.557-4.987 26.132-1.332 4.73-3.465 8.888-7.882 11.714 7.705-17.394 6.469-22.762 5.001-28.66-.095.83-.136 1.672-.054 2.487.992 8.915-1.74 16.946-5.939 24.57-1.875 3.41-4.348 6.495-6.17 9.933-3.6 6.781-6.93 13.698-10.64 21.091 1.183-3.955 1.998-7.433 3.248-10.763 2.188-5.775 4.892-11.36 6.903-17.19 2.84-8.208 5.26-16.552 7.828-24.841 1.454-4.689 2.133-9.513 2.201-14.419.014-.87-.38-1.74-.584-2.623l.014.028zm49.75-15.084c.544-1.577.978-2.881 1.427-4.186-.027 1.305-.272 2.541-.57 3.778-.028.109-.313.15-.857.408zM-3.461 146.03h.435c.054.366.177.733.122 1.087-.054.367-.271.706-.42 1.06a1.449 1.449 0 00-.26-.109c.042-.666.069-1.345.11-2.011l.013-.027z" fill="#C2ADD8"/><g style="mix-blend-mode:multiply" fill="#C2ADD8"><path d="M101.71 244.221a383.48 383.48 0 01-2.508 2.818c1.051-.734 1.964-1.587 2.508-2.818zm-17.782 10.002c-1.993 1.199-3.978 2.415-5.98 3.597-4.549 2.702-9.22 3.299-13.948 2.674-.038-.008-.054-.087-.224-.32 8.015-1.292 15.135-5.06 21.728-10.443-7.185 4.903-14.526 9.218-23.09 9.622 2.69-1.323 5.16-2.547 7.648-3.736 2.895-1.38 5.326-3.659 7.972-5.499 3.232-2.259 6.434-4.598 9.74-6.705 3.499-2.212 7.294-3.37 11.133-4.144.344-.071.692-.155 1.037-.359-1.668-.085-3.32.266-4.979.766-4.714 1.394-9.04 3.804-13.13 6.895-2.694 2.039-5.396 4.061-8.13 6.015-2.891 2.068-5.98 3.687-9.169 4.97-.508.212-1.049.266-1.61.301 4.754-2.714 8.533-6.982 12.98-10.141 4.431-3.147 8.866-6.264 13.785-8.283.294-.127.584-.284.817-.738-.546.203-1.109.372-1.65.606-5.26 2.254-10.08 5.491-14.707 9.146-2.374 1.873-4.665 3.87-7.077 5.69-1.452 1.1-3.028 1.992-4.572 2.951-.366.229-.806.307-1.213.452-.007-.24-.053-.4-.01-.45 1.918-1.963 3.431-4.363 5.645-6.019.892-.676 1.706-1.49 2.536-2.27 2.894-2.739 5.884-5.307 9.227-7.36-1.681.225-2.983 1.449-4.271 2.497a230.557 230.557 0 00-9.206 7.903c-1.449 1.31-2.723 2.883-4.069 4.336-.24.258-.493.514-.921.639 2.065-3.453 3.958-7.05 6.244-10.347 4.775-6.862 10.967-11.113 18.547-13.132 5.662-1.505 10.952-1.049 16.307-.235 2.056.309 4.167.392 6.257.544.8.065 1.609.057 2.606.092-2.17 2.174-4.21 4.184-6.199 6.251-.949.991-1.772 2.101-2.663 3.166.974-.941 1.947-1.882 2.933-2.82 2.111-2.024 4.234-4.044 6.362-6.079.249-.241.468-.519.852-.939-.447-.163-.744-.335-1.071-.366-.854-.062-1.721-.127-2.593-.089-2.741.131-5.345-.409-7.983-.792-3.655-.527-7.386-.938-11.14-.264-4.078.72-8.208 1.83-11.976 4.174a36.189 36.189 0 00-8.245 7.005c-3.008 3.46-5.23 7.384-7.515 11.294-.31.527-.66 1.013-.99 1.52-.782 1.194-1.697 2.208-3.463 2.489 1.125 1.11 1.566 2.526 3.238 2.508.662-.012 1.327.275 1.929.548 2.591 1.194 5.423 1.383 8.297 1.432 7.643.146 14.545-2.866 20.75-8.383 2.607-2.327 4.944-5.046 7.389-7.59-.32.166-.714.269-.963.511-2.58 2.677-5.101 5.427-7.985 7.736-.834.659-1.65 1.353-2.538 1.925-5.943 3.83-12.147 5.658-18.651 5.042-.21-.018-.423-.067-.629-.1-.2-.046-.397-.106-.953-.264.746-.112 1.116-.221 1.48-.227 4.584.085 8.764-1.761 12.749-4.593 1.136-.814 2.251-1.648 3.379-2.479l-.05-.101-.004-.03z"/><path d="M84.463 254.113l2.032-1.058c-.033-.111-.078-.225-.11-.337-.339.189-.677.378-1.006.584-.334.219-.635.461-.96.697l.049.1-.005.014zm2.672-1.476c.467-.362.921-.726 1.525-1.188-.98.184-.98.184-1.525 1.188zm3.117-6.977c-.376.464-.734.918-1.11 1.383.06.057.126.101.174.156l1.137-1.304c-.068-.074-.133-.162-.201-.235z"/></g><path d="M106.966 86.456c-.651.594-1.163 1.065-1.679 1.55-3.308 3.11-6.085 6.678-8.476 10.625-2.222 3.676-3.344 7.593-3.691 11.759-.067.822-.14 1.671-.099 2.477.051.866.255 1.698.413 2.689.38-.191.697-.298.951-.505 1.597-1.356 2.875-3.004 3.96-4.841 1.198-2.051 2.442-4.077 3.534-6.168 1.788-3.428 3.274-6.986 4.092-10.75.442-1.996.758-4.008 1.11-6.011.037-.176-.051-.368-.131-.814l.016-.01zm-12.998 23.787c-.29-2.119.42-4.19.911-6.273.166-.713.399-1.437.739-2.079 2.565-4.828 5.629-9.263 9.617-12.932.282-.257.605-.477 1.086-.841-.404 4.862-1.792 9.211-3.791 13.425-2.755 5.806-6.006 10.849-7.528 11.626 1.089-2.078 2.2-4.051 3.188-6.096 1.017-2.096 1.927-4.232 2.85-6.365.872-2.003 2.281-3.79 2.609-6.026-.224.101-.379.234-.441.404-.246.678-.378 1.413-.694 2.06a537.305 537.305 0 01-4.85 9.769c-.886 1.73-1.852 3.425-2.77 5.133-.305.565-.622 1.127-.93 1.705l-.304-.075c.044-.472-.084-1.158.166-1.395.765-.721.946-1.715 1.41-2.567.473-.879.836-1.828 1.296-2.71 1.19-2.294 2.405-4.583 3.591-6.865a1.52 1.52 0 00.166-.442c.041-.146.019-.294.024-.45-1.737 3.071-3.284 6.159-5.213 9.31l-.07-1.481c-.053.001-.109.016-.161.017l-.901 3.148zm-31.717 74.834c10.21-17.699 7.637-39.518-5.181-50.426-.117.305-.263.574-.304.838-.458 4.264-1.863 8.293-3.743 12.225-.485 1.013-.769 2.129-1.057 3.216-.841 3.266-1.59 6.525-1.587 9.857.027 6.209 1.494 11.744 4.811 16.441 1.02 1.45 2.053 2.902 3.206 4.21 1.158 1.294 2.505 2.387 3.839 3.65l.016-.011zm-1.322-38.275a4.718 4.718 0 01-.302.189c1.033 4.107 1.93 8.24 1.873 12.669-.075 6.503-.48 11.703-1.126 13.124-1.015-6.439-1.495-12.941-4.326-18.866.942 3.638 2.017 6.875 2.602 10.286.593 3.427 1.194 6.87 1.276 10.452-1.202-2.559-1.466-5.621-2.998-7.983.72 2.706 1.527 5.376 2.263 8.072.72 2.663 1.363 5.366 1.258 8.371-2.891-2.001-4.98-4.695-6.684-7.689-2.175-3.825-3.508-8.088-3.704-12.879-.222-5.433 1.107-10.662 3.163-15.823 1.096-2.745 2.337-5.456 2.743-8.391.086-.629.365-1.256.58-1.97 11.865 9.617 13.775 31.931 5.096 46.468-.12-.374-.247-.678-.314-1.011-.524-2.459-.34-5.042-.216-7.595.132-2.667.42-5.34.657-8.011.52-5.923.118-11.657-1.18-17.196-.171-.761-.43-1.485-.657-2.23l-.004.013z" fill="#EDEDED"/><path d="M57.715 165.675c-.761-1.403-1.518-2.819-2.291-4.224.477 1.588 1.397 2.909 2.29 4.224z" fill="#EDEDED"/><path opacity=".6" d="M62.55 494.35v-15L150 437.5l.15 10.5H51v-19.5h107.25v23.4l-82.2 39.15v-8.25l82.2 39.15v23.1H51v-19.8h99.15L150 536.2l-87.45-41.85zm12 150.599v-63.6h17.1v63.6h-17.1zM51 666.849v-21.75l93-35.1v6l-93-35.1v-21l107.25 42.3v22.35L51 666.849zm17.55 4.238l13.65 13.65c-3.3 2.6-6.15 5.75-8.55 9.45-2.4 3.7-4.25 7.7-5.55 12-1.3 4.3-1.95 8.7-1.95 13.2 0 4.9.6 9.1 1.8 12.6 1.2 3.6 2.9 6.35 5.1 8.25 2.3 2 4.95 3 7.95 3 4 0 7.2-1.95 9.6-5.85 2.5-3.8 4.5-10.65 6-20.55 1.4-9.7 3.45-17.6 6.15-23.7 2.7-6 6.1-10.45 10.2-13.35 4.1-2.8 8.95-4.2 14.55-4.2 6.5 0 12.25 1.8 17.25 5.4 5 3.7 8.9 8.75 11.7 15.151 2.8 6.4 4.2 13.7 4.2 21.899 0 9.601-1.8 18.151-5.4 25.651-3.6 7.5-8.45 13.85-14.55 19.05l-13.5-13.5c4.9-3.801 8.8-8.351 11.7-13.65 2.9-5.201 4.35-11.001 4.35-17.4 0-6.501-1.35-11.801-4.05-15.901-2.6-4.1-6.1-6.15-10.5-6.15-2.3 0-4.3.8-6 2.4-1.7 1.6-3.15 4.25-4.35 7.95-1.1 3.8-2.15 8.9-3.15 15.3-1.5 9.7-3.7 17.6-6.6 23.7-2.8 6.201-6.4 10.801-10.8 13.8-4.4 3.001-9.65 4.501-15.75 4.501-6.8 0-12.7-1.901-17.7-5.701s-8.9-9.05-11.7-15.75c-2.7-6.7-4.05-14.45-4.05-23.25 0-10.3 1.8-19.5 5.4-27.6 3.7-8.1 8.55-14.9 14.55-20.4zm0 101.954l13.65 13.65c-3.3 2.6-6.15 5.75-8.55 9.45-2.4 3.7-4.25 7.7-5.55 12-1.3 4.3-1.95 8.7-1.95 13.2 0 4.9.6 9.1 1.8 12.6 1.2 3.6 2.9 6.35 5.1 8.25 2.3 2 4.95 3 7.95 3 4 0 7.2-1.95 9.6-5.85 2.5-3.8 4.5-10.65 6-20.55 1.4-9.7 3.45-17.6 6.15-23.7 2.7-6 6.1-10.45 10.2-13.35 4.1-2.8 8.95-4.2 14.55-4.2 6.5 0 12.25 1.8 17.25 5.4 5 3.7 8.9 8.75 11.7 15.15 2.8 6.4 4.2 13.7 4.2 21.9 0 9.6-1.8 18.15-5.4 25.65-3.6 7.5-8.45 13.85-14.55 19.05l-13.5-13.5c4.9-3.8 8.8-8.35 11.7-13.65 2.9-5.2 4.35-11 4.35-17.4 0-6.5-1.35-11.8-4.05-15.9-2.6-4.1-6.1-6.15-10.5-6.15-2.3 0-4.3.8-6 2.4-1.7 1.6-3.15 4.25-4.35 7.95-1.1 3.8-2.15 8.9-3.15 15.3-1.5 9.7-3.7 17.6-6.6 23.7-2.8 6.2-6.4 10.8-10.8 13.8s-9.65 4.5-15.75 4.5c-6.8 0-12.7-1.9-17.7-5.7-5-3.8-8.9-9.05-11.7-15.75-2.7-6.7-4.05-14.45-4.05-23.25 0-10.3 1.8-19.5 5.4-27.6 3.7-8.1 8.55-14.9 14.55-20.4zm6 184.798v-63.6h17.1v63.6h-17.1zM51 979.739v-21.75l93-35.1v6l-93-35.1v-21l107.25 42.3v22.35L51 979.739zm0 109.911v-18.75h14.7l-.75 1.8c-5.2-3.4-9.25-8.05-12.15-13.95-2.8-5.9-4.2-12.55-4.2-19.95 0-7.8 1.35-15.05 4.05-21.75 2.7-6.7 6.55-12.55 11.55-17.548 5-5 10.95-8.9 17.85-11.7 6.9-2.7 14.45-4.05 22.65-4.05 8.1 0 15.55 1.4 22.35 4.2 6.8 2.9 12.7 6.9 17.7 12 5 5.198 8.9 11.298 11.7 18.298 2.8 7 4.2 14.65 4.2 22.95 0 9.4-1.85 18-5.55 25.8-3.7 7.8-8.55 14.1-14.55 18.9l-13.5-13.35c4.8-3.5 8.6-7.95 11.4-13.35 2.9-5.3 4.35-11.3 4.35-18 0-7-1.65-13.25-4.95-18.75-3.3-5.4-7.8-9.65-13.5-12.75-5.7-3.1-12.25-4.65-19.65-4.65-7.5 0-14.15 1.55-19.95 4.65-5.8 3.1-10.35 7.4-13.65 12.9-3.3 5.5-4.95 11.8-4.95 18.9 0 7 1.5 13.25 4.5 18.75s7.3 9.5 12.9 12l-5.85-1.5h15.6v-30.9h16.35v49.8H51zm0 94.14v-75.45h107.25v75.45h-17.1v-55.2H68.1v55.2H51zm45.75-2.85v-53.85h17.1v53.85h-17.1z" fill="url(#paint1_linear_402_9561)"/><defs><linearGradient id="paint0_linear_402_9561" x1="1939.33" y1="937.97" x2="1337.84" y2="891.948" gradientUnits="userSpaceOnUse"><stop stop-color="#E3B9F9" stop-opacity=".18"/><stop offset=".494" stop-color="#EAD5F6" stop-opacity=".26"/><stop offset="1" stop-color="#F2F2F2" stop-opacity=".74"/></linearGradient><linearGradient id="paint1_linear_402_9561" x1="64.03" y1="1197.89" x2="140.63" y2="423.404" gradientUnits="userSpaceOnUse"><stop stop-color="#E3B9F9" stop-opacity=".18"/><stop offset=".494" stop-color="#EAD5F6" stop-opacity=".26"/><stop offset="1" stop-color="#F2F2F2" stop-opacity=".74"/></linearGradient></defs></svg>