<svg width="244" height="38" fill="none" xmlns="http://www.w3.org/2000/svg"><path d="M15.484 30.648h5.31V.035H13.07c-7.78 0-11.855 4.006-11.855 9.91 0 4.708 2.236 7.489 6.23 10.352L.5 30.648h5.763l7.726-11.59-2.676-1.803c-3.252-2.202-4.83-3.923-4.83-7.626 0-3.262 2.278-5.464 6.627-5.464h2.374v26.483zm102.434.44c2.415 0 4.13-.44 5.406-1.376v-4.267c-1.317.922-2.895 1.5-5.091 1.5-3.732 0-5.269-2.904-5.269-7.488 0-4.804 1.88-7.268 5.311-7.268 2.017 0 3.993.703 5.049 1.363V9.106c-1.098-.62-3.032-1.06-5.626-1.06-6.669 0-10.14 4.804-10.14 11.535 0 7.406 3.375 11.508 10.36 11.508zm-32.672-1.94v-4.281c-1.62 1.101-4.336 2.078-6.888 2.078-3.815 0-5.27-1.803-5.489-5.506h12.597v-2.78c0-7.708-3.376-10.613-8.604-10.613-6.367 0-9.4 4.887-9.4 11.59 0 7.709 3.788 11.453 10.457 11.453 3.334 0 5.79-.881 7.327-1.941zm16.686 1.5h5.928L99.476 18.88l7.382-10.392h-5.269L94.206 18.88V8.487h-5.228v22.161h5.228V19.94l7.726 10.71zM66.2 26.505h-2.333V8.487h-15.23v1.9c0 5.409-.358 12.415-2.196 16.118h-1.633v9.209h4.83v-5.066H61.37v5.066h4.83v-9.209zM37.384 8.487v8.768h-6.97V8.487h-5.228v22.161h5.228v-9.25h6.97v9.25h5.228V8.487h-5.228zM76.78 12.19c2.593 0 3.375 2.16 3.375 4.927v.44H72.87c.137-3.523 1.4-5.367 3.91-5.367zM58.64 26.505h-7.37c1.442-3.345 1.84-9.388 1.84-13.214v-.661h5.53v13.875zm91.949 4.143h6.189l-10.84-16.077L155.776.035h-5.406l-9.441 14.095V.035h-5.31v30.613h5.31v-14.37l9.66 14.37zm24.014-15.114c0-5.368-2.717-7.405-8.247-7.405-3.472 0-6.189 1.101-7.78 2.037v4.35c1.413-1.046 4.487-2.203 7.162-2.203 2.498 0 3.65.881 3.65 3.263v1.238h-.837c-7.999 0-11.553 2.643-11.553 7.13 0 4.502 2.73 7.007 6.764 7.007 3.074 0 4.391-1.018 5.407-2.065h.219a7.4 7.4 0 00.385 1.762h5.104a55.542 55.542 0 01-.274-5.423v-9.69zm-5.215 9.829c-.658.963-1.893 1.761-3.732 1.761-2.195 0-3.293-1.238-3.293-3.138 0-2.505 1.797-3.427 6.271-3.427h.754v4.803zm14.271-16.876h-4.83v28.548h5.214v-8.988c1.318 1.982 3.252 3.042 5.489 3.042 5.105 0 8.617-4.102 8.617-11.549 0-7.392-3.43-11.494-8.343-11.494-2.469 0-4.487 1.143-5.886 3.304l-.261-2.863zm4.556 18.459c-2.758 0-4.172-2.244-4.172-7.365 0-5.148 1.496-7.391 4.446-7.391 2.854 0 4.254 2.243 4.254 7.35 0 5.162-1.496 7.405-4.528 7.405zm28.322-14.316V8.487h-17.509v4.143h6.147v18.018h5.214V12.63h6.148zm3.073-4.143v22.161h7.959c5.132 0 8.782-2.643 8.782-7.846 0-4.928-3.252-7.53-8.7-7.53h-2.813V8.488h-5.228zm18.662 0v22.161h5.228V8.487h-5.228zm-11.019 18.018h-2.415v-7.089h2.553c2.236 0 3.554 1.005 3.554 3.565 0 2.547-1.455 3.524-3.692 3.524z" fill="#323030"/></svg>