<svg width="126" height="36" fill="none" xmlns="http://www.w3.org/2000/svg"><path fill-rule="evenodd" clip-rule="evenodd" d="M14.889.035C6.637.035.447 5.073.5 13.823h7.67c-.105-3.5 2.117-6.894 6.719-6.894 3.491 0 5.713 2.333 5.713 5.303 0 3.076-2.433 4.773-6.348 6.682-5.131 2.492-8.2 3.659-13.754 5.515v10.076h28.566V27.61H10.868c2.652-1.108 5.233-2.325 7.565-3.447 6.19-2.97 9.84-6.31 9.84-12.303 0-7.212-5.396-11.826-13.384-11.826zM40.703 7.46h14.812V.565H33.297v33.94h7.406V7.459zM67.153.565h-7.406v33.94H67.1l13.806-21.69v21.69h7.406V.565h-7.406l-13.753 21.69V.565zM125.5 21.778h-7.67c-1.164 3.765-4.708 6.363-8.887 6.363-6.084 0-10.051-5.25-10.051-10.606S102.754 6.93 109.154 6.93c4.232 0 7.512 2.599 8.676 6.364h7.67C124.389 5.709 118.412.035 108.943.035c-10.474 0-17.457 7.371-17.457 17.5s6.983 17.5 17.457 17.5c9.469 0 15.446-5.568 16.557-13.257z" fill="#323030"/></svg>