<svg width="202" height="48" fill="none" xmlns="http://www.w3.org/2000/svg"><path d="M196.843 28.625a4.791 4.791 0 01-.644 1.67 3.602 3.602 0 01-1.197 1.16c-.492.298-1.106.447-1.84.447-.713 0-1.322-.15-1.825-.446a3.537 3.537 0 01-1.212-1.161 5.078 5.078 0 01-.661-1.67 9.28 9.28 0 01-.204-1.938c0-.68.065-1.338.189-1.972a5.038 5.038 0 01.645-1.688 3.689 3.689 0 011.196-1.19c.492-.308 1.105-.464 1.841-.464.713 0 1.315.156 1.807.463a3.76 3.76 0 011.212 1.208 5.13 5.13 0 01.677 1.701c.138.639.206 1.29.205 1.942 0 .656-.064 1.303-.189 1.938zm4.216-5.168c-.294-1.07-.745-2.008-1.353-2.814a6.837 6.837 0 00-2.296-1.94c-.924-.488-2.026-.731-3.305-.731-1.006 0-1.93.2-2.768.603-.839.404-1.531 1.05-2.077 1.941h-.061v-2.1h-4.249v22.2h4.467v-7.792h.064a5.273 5.273 0 002.092 1.828 6.277 6.277 0 002.785.621c1.195 0 2.238-.235 3.131-.7a6.633 6.633 0 002.233-1.877 8.115 8.115 0 001.337-2.703 11.37 11.37 0 00.441-3.18c0-1.166-.146-2.284-.441-3.356zm-22.022 5.168a4.853 4.853 0 01-.646 1.67 3.566 3.566 0 01-1.198 1.16c-.491.298-1.106.447-1.839.447-.714 0-1.32-.15-1.823-.447a3.532 3.532 0 01-1.213-1.16 5.033 5.033 0 01-.66-1.67 9.148 9.148 0 01-.204-1.938c0-.68.061-1.338.187-1.972a5.018 5.018 0 01.646-1.688 3.662 3.662 0 011.197-1.19c.492-.308 1.104-.464 1.839-.464.712 0 1.318.156 1.809.463.49.304.904.717 1.211 1.208.314.498.54 1.066.676 1.701a9.19 9.19 0 01.204 1.942c.001.651-.061 1.3-.186 1.938zm2.861-7.983a6.811 6.811 0 00-2.297-1.939c-.923-.489-2.023-.731-3.302-.731-1.008 0-1.93.2-2.768.603-.842.404-1.532 1.05-2.077 1.94h-.064v-2.1h-4.249v22.201h4.471v-7.792h.06a5.268 5.268 0 002.095 1.828 6.263 6.263 0 002.783.621c1.196 0 2.239-.235 3.13-.7a6.626 6.626 0 002.234-1.877 8.135 8.135 0 001.338-2.703 11.48 11.48 0 00.441-3.18 12.71 12.71 0 00-.441-3.356c-.295-1.07-.745-2.009-1.354-2.815zm-29.385 5.44l2.926-8.334h.063l2.832 8.333h-5.821zm.471-13.931l-8.494 22.708h4.971l1.761-5.057h8.402l1.697 5.057h5.13l-8.4-22.708h-5.067zm-8.872 15.505a4.077 4.077 0 00-1.164-1.305 6.305 6.305 0 00-1.652-.844 19.227 19.227 0 00-1.904-.538 73.146 73.146 0 00-1.855-.415c-.608-.128-1.15-.27-1.622-.428-.471-.16-.853-.365-1.147-.622a1.24 1.24 0 01-.44-.985c0-.34.082-.61.251-.811.167-.2.377-.358.614-.462a2.77 2.77 0 01.802-.207c.293-.031.567-.046.817-.046.798 0 1.49.153 2.079.46.585.308.912.897.973 1.765h4.248c-.084-1.017-.341-1.86-.771-2.529a5.108 5.108 0 00-1.62-1.605 6.73 6.73 0 00-2.219-.858 12.715 12.715 0 00-2.562-.254c-.882 0-1.743.08-2.58.237a7.08 7.08 0 00-2.266.828 4.54 4.54 0 00-1.621 1.605c-.41.679-.614 1.55-.614 2.608 0 .721.148 1.332.442 1.83.291.499.681.91 1.162 1.24a6.47 6.47 0 001.653.794c.626.205 1.261.38 1.902.526 1.596.34 2.839.678 3.73 1.018.891.339 1.337.848 1.337 1.527 0 .403-.093.735-.282 1a2.16 2.16 0 01-.708.637c-.285.16-.6.277-.944.35a4.706 4.706 0 01-.992.111 5.04 5.04 0 01-1.273-.159 3.277 3.277 0 01-1.086-.493 2.61 2.61 0 01-.772-.86c-.198-.35-.299-.766-.299-1.255h-4.247c.043 1.102.288 2.02.74 2.751a5.404 5.404 0 001.73 1.765 7.285 7.285 0 002.408.955 13.727 13.727 0 005.489.016c.892-.18 1.683-.493 2.376-.94a5.18 5.18 0 001.683-1.764c.429-.733.644-1.639.644-2.72 0-.765-.147-1.404-.44-1.923zm-18.468-14.169h-4.468v4.929h-2.705v3.02h2.705v9.702c0 .828.138 1.495.409 2.003a2.94 2.94 0 001.117 1.178 4.61 4.61 0 001.636.556c.618.095 1.276.143 1.966.143.443 0 .892-.012 1.355-.03.46-.023.879-.064 1.257-.13V31.36a5.56 5.56 0 01-.661.095 7.778 7.778 0 01-.724.033c-.754 0-1.258-.128-1.51-.382-.251-.254-.377-.763-.377-1.527v-8.142h3.272v-3.021h-3.272v-4.929zm-12.805 15.01c0 .256-.025.595-.079 1.019a3.43 3.43 0 01-.424 1.256c-.231.413-.589.77-1.07 1.065-.482.298-1.164.446-2.046.446a5.47 5.47 0 01-1.038-.096 2.489 2.489 0 01-.88-.334 1.702 1.702 0 01-.599-.652c-.145-.275-.22-.613-.22-1.016 0-.424.075-.776.22-1.05.142-.27.341-.503.584-.684.24-.18.523-.323.848-.43.325-.106.656-.19.992-.254.355-.062.713-.117 1.069-.16.342-.04.684-.092 1.022-.158.31-.06.615-.14.914-.24.283-.095.518-.226.707-.396v1.684zm4.467 2.704v-8.554c0-.998-.219-1.798-.661-2.401a4.527 4.527 0 00-1.697-1.416 7.566 7.566 0 00-2.298-.683 18.055 18.055 0 00-2.485-.175c-.902 0-1.799.09-2.689.27a7.628 7.628 0 00-2.408.906 5.35 5.35 0 00-1.761 1.686c-.463.7-.725 1.58-.788 2.64h4.467c.084-.891.379-1.528.883-1.91.503-.381 1.194-.57 2.076-.57.398 0 .77.026 1.117.078.345.054.65.159.912.318.263.16.472.381.629.668.157.286.236.674.236 1.16.021.468-.116.821-.408 1.066-.295.245-.693.43-1.196.556-.504.129-1.081.224-1.732.286-.65.065-1.31.151-1.981.256a18.54 18.54 0 00-1.997.43c-.661.178-1.25.45-1.763.81a4.127 4.127 0 00-1.259 1.448c-.325.604-.487 1.373-.487 2.305 0 .848.141 1.58.424 2.194a4.123 4.123 0 001.18 1.526c.504.404 1.091.7 1.762.892.67.19 1.394.286 2.172.286 1.006 0 1.992-.149 2.956-.444a5.826 5.826 0 002.518-1.56 6.535 6.535 0 00.315 1.59h4.531c-.21-.338-.358-.847-.441-1.526a17.13 17.13 0 01-.127-2.132zm-18.405-11.37c-.44-.583-1.044-1.038-1.808-1.368-.767-.327-1.747-.491-2.942-.491-.84 0-1.7.217-2.581.652-.88.434-1.604 1.129-2.17 2.083h-.095v-8.556h-4.468V34.86h4.468v-8.62c0-1.675.272-2.877.818-3.61.545-.73 1.426-1.097 2.643-1.097 1.07 0 1.814.334 2.234 1.003.42.667.63 1.68.63 3.036v9.287h4.467V24.745c0-1.017-.09-1.944-.268-2.783-.178-.836-.487-1.547-.928-2.131zm-23.597 7.968h-.062l-3.838-15.648h-4.626l-3.901 15.457h-.063L59.258 12.15H54.32l5.946 22.708h5.003l3.743-15.457h.063l3.807 15.457h4.908l6.041-22.708h-4.845l-3.682 15.648zM.694 23.324A23.438 23.438 0 003.77 34.967L.5 47.035l12.221-3.238a22.851 22.851 0 0011.017 2.835h.01c12.705 0 23.049-10.449 23.054-23.29.002-6.223-2.394-12.074-6.746-16.477C35.703 2.463 29.915.038 23.748.035 11.04.035.698 10.482.694 23.324zm7.278 11.035l-.457-.732a19.456 19.456 0 01-2.93-10.302c.005-10.673 8.6-19.356 19.17-19.356 5.119.002 9.929 2.018 13.547 5.677 3.618 3.659 5.609 8.522 5.607 13.695-.004 10.673-8.6 19.358-19.161 19.358h-.008A18.987 18.987 0 0113.988 40l-.7-.42-7.253 1.922 1.937-7.143z" fill="#323030"/><path fill-rule="evenodd" clip-rule="evenodd" d="M17.985 13.588c-.431-.97-.885-.99-1.296-1.006-.335-.015-.72-.014-1.104-.014-.384 0-1.008.146-1.536.728-.528.583-2.016 1.991-2.016 4.855 0 2.864 2.065 5.632 2.352 6.02.288.389 3.985 6.454 9.84 8.787 4.866 1.94 5.856 1.553 6.913 1.456 1.056-.096 3.408-1.407 3.888-2.767.48-1.359.48-2.524.336-2.767-.144-.243-.528-.389-1.104-.68-.577-.29-3.409-1.699-3.936-1.893-.528-.194-.912-.291-1.297.292-.384.582-1.487 1.892-1.823 2.28-.336.39-.672.438-1.248.147-.576-.292-2.432-.906-4.633-2.889-1.712-1.543-2.868-3.448-3.204-4.031-.336-.582-.036-.897.252-1.188.26-.26.577-.68.865-1.02.287-.34.383-.582.575-.97.192-.388.096-.729-.048-1.02-.144-.29-1.263-3.17-1.776-4.32z" fill="#323030"/></svg>