<svg width="245" height="54" fill="none" xmlns="http://www.w3.org/2000/svg"><path d="M10.973 29.805V.035h5.62v27.189h-3.747L30.625.035h5.996v29.77H31V2.492h3.705l-17.82 27.313h-5.912zm46.927 0V8.862h5.496v20.943H57.9zm-14.822 0V8.862h5.496v20.943h-5.496zm2.581-8.785v-4.414h15.447v4.414H45.66zm39.429 1.873l3.414 3.331a11.23 11.23 0 01-3.955 3.165c-1.527.721-3.276 1.082-5.246 1.082-2.166 0-4.109-.471-5.83-1.415a10.946 10.946 0 01-4.08-3.956c-.971-1.693-1.457-3.608-1.457-5.746 0-2.165.5-4.08 1.499-5.745a10.543 10.543 0 014.08-3.956c1.749-.971 3.72-1.457 5.912-1.457 1.916 0 3.637.375 5.163 1.124a11.103 11.103 0 013.914 3.081l-3.414 3.373a6.985 6.985 0 00-2.248-2.165c-.889-.556-1.93-.833-3.123-.833-1.194 0-2.248.277-3.165.833-.916.555-1.637 1.332-2.165 2.331-.527 1-.79 2.138-.79 3.414 0 1.25.263 2.374.79 3.373.528 1 1.25 1.776 2.165 2.332.916.555 1.971.832 3.165.832 1.221 0 2.276-.277 3.164-.832a7.138 7.138 0 002.207-2.166zm12.84 6.912v-19.07h5.496v19.07h-5.496zm-7.078-16.53V8.863h19.652v4.413H90.85zm41.514 16.53h-4.996V25.6l-.25-.666v-7.87c0-1.47-.472-2.609-1.416-3.414-.943-.805-2.234-1.207-3.872-1.207a8.16 8.16 0 00-3.372.708 8.027 8.027 0 00-2.707 1.915l-2.873-3.331c1.111-1.11 2.457-1.97 4.039-2.581 1.582-.639 3.303-.958 5.163-.958 2.026 0 3.817.347 5.371 1.04 1.554.695 2.762 1.694 3.622 2.999.861 1.277 1.291 2.845 1.291 4.704v12.866zm-12.116.666c-1.61 0-3.026-.291-4.247-.874s-2.179-1.388-2.873-2.415c-.666-1.027-.999-2.22-.999-3.58 0-1.444.416-2.665 1.249-3.665.833-1.027 2.012-1.818 3.539-2.373 1.554-.555 3.345-.833 5.371-.833h5.371v3.581h-4.955c-1.498 0-2.706.264-3.622.791-.916.528-1.374 1.29-1.374 2.29 0 .916.347 1.638 1.041 2.165.722.528 1.652.791 2.79.791 1.082 0 2.068-.222 2.956-.666a6.012 6.012 0 002.165-1.915c.555-.805.874-1.721.958-2.748l1.582.75c0 1.72-.375 3.233-1.124 4.538-.75 1.304-1.805 2.331-3.165 3.08-1.332.722-2.887 1.083-4.663 1.083zm17.122-.666V8.862h15.405v4.413h-14.156l4.247-3.33v19.86h-5.496zm24.891 8.078h-5.496V8.863h5.454v6.494h-1.166c.195-1.36.652-2.581 1.374-3.664a7.817 7.817 0 012.915-2.54c1.193-.638 2.553-.957 4.08-.957 1.915 0 3.664.472 5.246 1.416 1.582.943 2.832 2.248 3.748 3.913.943 1.666 1.415 3.609 1.415 5.83 0 2.192-.472 4.121-1.415 5.787-.944 1.665-2.207 2.97-3.789 3.914-1.583.944-3.359 1.415-5.33 1.415-1.804 0-3.358-.388-4.663-1.166-1.305-.777-2.29-1.818-2.956-3.122-.666-1.333-.958-2.79-.875-4.372l1.166-.75c.139.944.486 1.79 1.041 2.54a5.84 5.84 0 002.124 1.707 7.083 7.083 0 002.872.583c1.222 0 2.29-.277 3.206-.832.916-.556 1.624-1.333 2.124-2.332.527-1 .791-2.123.791-3.373 0-1.304-.25-2.442-.749-3.414-.472-.999-1.152-1.776-2.041-2.331-.86-.556-1.887-.833-3.081-.833-1.166 0-2.206.277-3.122.833-.889.555-1.596 1.332-2.124 2.331-.5.972-.749 2.152-.749 3.54v18.403zm40.446-8.078h-4.997V25.6l-.249-.666v-7.87c0-1.47-.472-2.609-1.416-3.414-.944-.805-2.234-1.207-3.872-1.207a8.165 8.165 0 00-3.373.708 8.023 8.023 0 00-2.706 1.915l-2.873-3.331c1.11-1.11 2.457-1.97 4.039-2.581 1.582-.639 3.303-.958 5.163-.958 2.026 0 3.816.347 5.371 1.04 1.554.695 2.762 1.694 3.622 2.999.861 1.277 1.291 2.845 1.291 4.704v12.866zm-12.116.666c-1.61 0-3.026-.291-4.247-.874-1.222-.583-2.179-1.388-2.873-2.415-.666-1.027-.999-2.22-.999-3.58 0-1.444.416-2.665 1.249-3.665.832-1.027 2.012-1.818 3.539-2.373 1.554-.555 3.345-.833 5.371-.833h5.371v3.581h-4.955c-1.499 0-2.706.264-3.622.791-.916.528-1.374 1.29-1.374 2.29 0 .916.347 1.638 1.041 2.165.721.528 1.651.791 2.789.791 1.083 0 2.068-.222 2.957-.666a6.02 6.02 0 002.165-1.915c.555-.805.874-1.721.957-2.748l1.582.75c0 1.72-.374 3.233-1.124 4.538-.749 1.304-1.804 2.331-3.164 3.08-1.332.722-2.887 1.083-4.663 1.083zm17.121-.666V8.862h5.621l7.411 14.031h-.791l7.245-14.03h5.829v20.942h-4.913v-19.11l1.915 1.581-8.035 15.364h-3.54l-8.035-15.364 2.04-1.374v18.903h-4.747zM240.143 7.78a15.956 15.956 0 01-.604 1.499c-.208.444-.382.763-.52.958-.222.319-.514.478-.875.478a1.06 1.06 0 01-.749-.291c-.208-.208-.312-.43-.312-.666 0-.264.097-.52.291-.77.125-.195.361-.452.708-.77.361-.334.77-.674 1.228-1.02a20.406 20.406 0 01-1.561-.126 13.2 13.2 0 01-.979-.187c-.513-.153-.77-.472-.77-.958 0-.305.09-.555.271-.75a.931.931 0 01.707-.312c.195 0 .382.035.563.105.208.069.478.208.811.416.334.194.757.479 1.27.853a20.031 20.031 0 01-.395-1.56c-.083-.487-.125-.848-.125-1.083 0-.334.09-.597.271-.792.194-.208.451-.312.77-.312s.569.104.749.312c.195.195.292.458.292.792 0 .235-.049.596-.146 1.082a26.96 26.96 0 01-.375 1.561c.5-.374.916-.659 1.249-.853.347-.208.618-.347.812-.416a1.66 1.66 0 01.562-.105.89.89 0 01.708.313c.194.194.292.444.292.75 0 .485-.264.804-.791.957-.223.055-.556.118-1 .187-.43.056-.943.097-1.54.125.458.347.86.687 1.207 1.02.361.32.611.576.75.77.18.25.27.507.27.77 0 .237-.104.459-.312.667a1.034 1.034 0 01-.729.291.988.988 0 01-.874-.478c-.139-.195-.312-.514-.52-.958a15.69 15.69 0 01-.604-1.499z" fill="#323030"/><path opacity=".2" d="M10.105 42.149c-.191.472-.362.849-.513 1.13-.15.271-.266.462-.346.573-.141.2-.312.301-.513.301a.587.587 0 01-.407-.166.547.547 0 01-.18-.392c0-.13.055-.276.165-.437.08-.11.221-.276.422-.497.201-.221.498-.497.89-.829-.513-.05-.905-.105-1.176-.166a9.202 9.202 0 01-.588-.15c-.311-.09-.467-.277-.467-.558 0-.17.05-.312.15-.422a.553.553 0 01.408-.166c.12 0 .24.025.361.076.14.05.322.135.543.256.23.11.547.296.95.557a15.142 15.142 0 01-.227-1.205 5.61 5.61 0 01-.06-.664c0-.2.05-.356.15-.467a.569.569 0 01.438-.18c.18 0 .321.06.422.18.11.11.166.267.166.467 0 .141-.02.362-.06.664-.04.301-.116.703-.227 1.205.402-.26.714-.447.935-.557.23-.12.417-.206.557-.256.13-.05.252-.076.362-.076.17 0 .306.055.407.166.1.11.15.251.15.422 0 .281-.155.467-.466.558a8.69 8.69 0 01-.603.15 9.86 9.86 0 01-1.16.166c.39.332.687.608.888.829.211.221.352.387.422.497.11.161.166.307.166.437 0 .141-.06.272-.18.392a.587.587 0 01-.408.166c-.2 0-.372-.1-.512-.301a6.236 6.236 0 01-.347-.573c-.14-.281-.311-.658-.512-1.13zM17.853 50a5.533 5.533 0 01-2.396-.528 5.366 5.366 0 01-1.869-1.522l.829-.784c.412.583.91 1.025 1.492 1.327a4.259 4.259 0 001.96.452 3.78 3.78 0 001.506-.286c.443-.201.79-.473 1.04-.814.262-.342.392-.729.392-1.16 0-.624-.246-1.116-.738-1.478-.492-.372-1.15-.557-1.975-.557H15.82v-1.025h2.275c.714 0 1.292-.176 1.734-.528.452-.362.678-.829.678-1.402 0-.562-.246-1.02-.739-1.371-.482-.352-1.115-.528-1.899-.528-.683 0-1.266.131-1.748.392s-.97.709-1.462 1.342l-.814-.739c.563-.713 1.16-1.23 1.794-1.552.643-.332 1.391-.498 2.245-.498.734 0 1.387.126 1.96.377s1.025.593 1.356 1.025c.332.432.498.924.498 1.477a2.41 2.41 0 01-.483 1.477c-.311.422-.748.744-1.311.965.663.22 1.176.562 1.537 1.024a2.52 2.52 0 01.558 1.628c0 .613-.186 1.17-.558 1.673-.361.493-.854.884-1.477 1.176-.623.291-1.326.437-2.11.437zm12.294-.241h-1.07v-1.447l-.015-.422v-2.773c0-.623-.2-1.12-.603-1.492-.401-.372-.944-.558-1.627-.558-.493 0-.94.105-1.342.316a3.523 3.523 0 00-1.04.86l-.783-.754a4.518 4.518 0 011.386-1.025c.523-.241 1.116-.362 1.779-.362.663 0 1.24.126 1.733.377.502.241.89.583 1.16 1.025.282.442.422.965.422 1.567v4.688zm-3.903.24c-.563 0-1.06-.1-1.492-.3a2.57 2.57 0 01-.995-.845 2.146 2.146 0 01-.347-1.205c0-.523.146-.965.438-1.327.291-.371.688-.653 1.19-.844a4.96 4.96 0 011.733-.286h2.442v.904h-2.29c-.674 0-1.237.126-1.689.377-.442.241-.663.623-.663 1.146 0 .442.166.793.497 1.055.332.26.769.392 1.312.392.522 0 .994-.101 1.416-.302a2.592 2.592 0 001.01-.874 2.45 2.45 0 00.437-1.281l.452.256c0 .603-.15 1.14-.452 1.613a3.052 3.052 0 01-1.22 1.115c-.523.271-1.116.407-1.779.407zm6.056-.24v-7.416h6.556v7.416h-1.115v-7.19l.784.724H32.48l.934-.723v7.189H32.3zm10.079 2.924h-1.116v-10.34h1.1v2.246h-.27c.09-.492.286-.924.587-1.296a3.288 3.288 0 011.146-.874 3.55 3.55 0 011.492-.317c.723 0 1.366.176 1.929.528.563.341 1 .809 1.311 1.401.322.593.482 1.267.482 2.02 0 .764-.165 1.442-.497 2.035a3.568 3.568 0 01-1.356 1.401c-.573.342-1.231.513-1.975.513-.673 0-1.266-.136-1.778-.407a2.885 2.885 0 01-1.146-1.13c-.25-.483-.341-1.02-.271-1.613l.211-.301c.04.472.19.899.452 1.28a2.71 2.71 0 001.025.875c.422.21.884.316 1.387.316.552 0 1.035-.125 1.447-.377.411-.26.733-.612.964-1.055.241-.452.362-.964.362-1.537s-.116-1.08-.347-1.522a2.514 2.514 0 00-.934-1.055c-.402-.261-.87-.392-1.402-.392-.543 0-1.025.136-1.447.407a2.798 2.798 0 00-.995 1.13c-.24.473-.361 1.025-.361 1.658v6.406zm14.688-5.034l.784.738a4.33 4.33 0 01-1.417 1.19c-.552.282-1.185.423-1.899.423-.783 0-1.487-.17-2.11-.512a3.802 3.802 0 01-1.447-1.402c-.351-.593-.527-1.271-.527-2.035 0-.764.166-1.442.497-2.035a3.754 3.754 0 011.402-1.401c.593-.342 1.266-.513 2.02-.513.723 0 1.36.171 1.913.513a3.552 3.552 0 011.327 1.371c.321.583.482 1.256.482 2.02v.09h-1.145v-.09c0-.583-.116-1.09-.347-1.522a2.465 2.465 0 00-.92-1.025 2.331 2.331 0 00-1.31-.377c-.543 0-1.02.126-1.432.377a2.604 2.604 0 00-.965 1.04c-.231.442-.347.954-.347 1.537s.126 1.1.377 1.552c.251.453.593.804 1.025 1.056.442.25.95.376 1.522.376 1.045 0 1.884-.457 2.517-1.371zm1.025-1.206h-6.707v-.92h6.466l.241.483v.437zM60 49.76v-7.416h1.115v7.1l-.18-.634h3.782l-.18.633v-7.099h1.115v7.1l-.181-.634h3.783l-.18.633v-7.099h1.115v7.416H60zm10.113 1.929V48.81h1.055v2.879h-1.055zm8.531-4.04l.784.74a4.374 4.374 0 01-1.416 1.19c-.553.281-1.186.422-1.9.422-.783 0-1.487-.17-2.11-.512a3.804 3.804 0 01-1.447-1.402c-.351-.593-.527-1.271-.527-2.035 0-.764.166-1.442.497-2.035a3.753 3.753 0 011.402-1.401c.593-.342 1.266-.513 2.02-.513.723 0 1.361.171 1.914.513a3.552 3.552 0 011.326 1.371c.322.583.482 1.256.482 2.02v.09h-1.145v-.09c0-.583-.116-1.09-.347-1.522a2.466 2.466 0 00-.92-1.025 2.331 2.331 0 00-1.31-.377c-.543 0-1.02.126-1.432.377a2.604 2.604 0 00-.965 1.04c-.23.442-.346.954-.346 1.537s.125 1.1.376 1.552c.252.453.593.804 1.025 1.056.442.25.95.376 1.522.376 1.046 0 1.885-.457 2.517-1.371zm1.025-1.205h-6.706v-.92h6.465l.241.483v.437zm7.636 3.316v-7.416h1.115v7.416h-1.115zm-5.728 0v-7.416h1.115v7.416h-1.115zm.543-3.421v-.95h5.802v.95H82.12zm14.85 3.42H95.9v-1.446l-.016-.422v-2.773c0-.623-.2-1.12-.603-1.492-.402-.372-.944-.558-1.627-.558-.493 0-.94.105-1.342.316a3.523 3.523 0 00-1.04.86l-.784-.754a4.518 4.518 0 011.387-1.025c.523-.241 1.115-.362 1.779-.362.663 0 1.24.126 1.733.377.502.241.889.583 1.16 1.025.282.442.422.965.422 1.567v4.688zm-3.904.242c-.563 0-1.06-.1-1.492-.301a2.57 2.57 0 01-.995-.845 2.146 2.146 0 01-.347-1.205c0-.523.146-.965.437-1.327.292-.371.689-.653 1.191-.844a4.96 4.96 0 011.733-.286h2.442v.904h-2.291c-.673 0-1.236.126-1.688.377-.442.241-.663.623-.663 1.146 0 .442.166.793.497 1.055.332.26.769.392 1.311.392.523 0 .995-.101 1.417-.302a2.59 2.59 0 001.01-.874 2.45 2.45 0 00.437-1.281l.452.256c0 .603-.15 1.14-.452 1.613a3.052 3.052 0 01-1.22 1.115c-.523.271-1.116.407-1.78.407zm14.727-.241v-7.416h1.115v7.416h-1.115zm-5.728 0v-7.416h1.116v7.416h-1.116zm.543-3.421v-.95h5.803v.95h-5.803zm14.849 3.42h-1.07v-1.446l-.015-.422v-2.773c0-.623-.201-1.12-.603-1.492-.402-.372-.944-.558-1.627-.558-.493 0-.94.105-1.342.316a3.528 3.528 0 00-1.04.86l-.783-.754a4.52 4.52 0 011.386-1.025c.523-.241 1.115-.362 1.779-.362.663 0 1.241.126 1.733.377.502.241.889.583 1.16 1.025.282.442.422.965.422 1.567v4.688zm-3.903.242c-.563 0-1.06-.1-1.492-.301a2.57 2.57 0 01-.995-.845 2.147 2.147 0 01-.347-1.205c0-.523.146-.965.437-1.327.292-.371.689-.653 1.191-.844a4.96 4.96 0 011.733-.286h2.442v.904h-2.291c-.673 0-1.236.126-1.688.377-.442.241-.663.623-.663 1.146 0 .442.166.793.497 1.055.332.26.769.392 1.311.392.523 0 .995-.101 1.417-.302a2.591 2.591 0 001.01-.874 2.45 2.45 0 00.437-1.281l.452.256c0 .603-.15 1.14-.452 1.613a3.047 3.047 0 01-1.221 1.115c-.522.271-1.115.407-1.778.407zm10.929-.241v-7.1h1.115v7.099h-1.115zm-2.759-6.466v-.95h6.617v.95h-6.617zm14.028 4.356l.784.738a4.33 4.33 0 01-1.417 1.19c-.553.282-1.186.423-1.899.423-.784 0-1.487-.17-2.11-.512a3.805 3.805 0 01-1.447-1.402c-.352-.593-.527-1.271-.527-2.035 0-.764.165-1.442.497-2.035a3.756 3.756 0 011.402-1.401c.592-.342 1.266-.513 2.019-.513.724 0 1.362.171 1.914.513a3.555 3.555 0 011.327 1.371c.321.583.482 1.256.482 2.02v.09h-1.145v-.09c0-.583-.116-1.09-.347-1.522a2.47 2.47 0 00-.919-1.025 2.333 2.333 0 00-1.312-.377c-.542 0-1.02.126-1.432.377a2.61 2.61 0 00-.964 1.04c-.231.442-.347.954-.347 1.537s.126 1.1.377 1.552c.251.453.593.804 1.025 1.056.442.25.949.376 1.522.376 1.045 0 1.884-.457 2.517-1.371zm1.025-1.206h-6.707v-.92h6.466l.241.483v.437zm3.023 6.24h-1.115v-10.34h1.1v2.246h-.271c.09-.492.286-.924.588-1.296a3.283 3.283 0 011.145-.874 3.55 3.55 0 011.492-.317c.724 0 1.367.176 1.929.528.563.341 1 .809 1.312 1.401.321.593.482 1.267.482 2.02 0 .764-.166 1.442-.498 2.035a3.562 3.562 0 01-1.356 1.401c-.573.342-1.231.513-1.974.513-.674 0-1.266-.136-1.779-.407a2.885 2.885 0 01-1.145-1.13c-.251-.483-.342-1.02-.272-1.613l.211-.301c.041.472.191.899.453 1.28.261.372.602.664 1.024.875.422.21.885.316 1.387.316.553 0 1.035-.125 1.447-.377.412-.26.733-.612.965-1.055.241-.452.361-.964.361-1.537s-.115-1.08-.346-1.522a2.514 2.514 0 00-.935-1.055c-.402-.261-.869-.392-1.402-.392-.542 0-1.024.136-1.446.407a2.797 2.797 0 00-.995 1.13c-.241.473-.362 1.025-.362 1.658v6.406zm9.685 0h-1.115v-10.34h1.1v2.246h-.271c.09-.492.286-.924.587-1.296a3.296 3.296 0 011.146-.874 3.547 3.547 0 011.492-.317c.723 0 1.366.176 1.929.528.563.341 1 .809 1.311 1.401.322.593.483 1.267.483 2.02 0 .764-.166 1.442-.498 2.035a3.562 3.562 0 01-1.356 1.401c-.573.342-1.231.513-1.975.513-.673 0-1.266-.136-1.778-.407a2.894 2.894 0 01-1.146-1.13c-.251-.483-.341-1.02-.271-1.613l.211-.301c.04.472.191.899.452 1.28.262.372.603.664 1.025.875.422.21.884.316 1.387.316.552 0 1.035-.125 1.447-.377.412-.26.733-.612.964-1.055.241-.452.362-.964.362-1.537s-.116-1.08-.347-1.522a2.512 2.512 0 00-.934-1.055c-.402-.261-.869-.392-1.402-.392-.542 0-1.025.136-1.447.407a2.795 2.795 0 00-.994 1.13c-.242.473-.362 1.025-.362 1.658v6.406zm8.569-2.924v-7.416h1.116v5.924l-.121-.046 4.823-5.878h.965v7.416h-1.116v-5.923l.121.045-4.823 5.878h-.965zm11.129 0v-7.1h1.115v7.099h-1.115zm-2.759-6.466v-.95h6.617v.95h-6.617zm11.33 6.707c-.753 0-1.427-.17-2.019-.512a3.757 3.757 0 01-1.402-1.402c-.332-.593-.497-1.271-.497-2.035 0-.764.165-1.442.497-2.035a3.756 3.756 0 011.402-1.401c.592-.342 1.266-.513 2.019-.513.764 0 1.437.171 2.02.513a3.637 3.637 0 011.386 1.401c.342.593.513 1.271.513 2.035 0 .764-.171 1.442-.513 2.035a3.638 3.638 0 01-1.386 1.401c-.583.342-1.256.513-2.02.513zm0-.98c.543 0 1.02-.125 1.432-.377.412-.25.734-.597.965-1.04.231-.452.346-.97.346-1.552 0-.583-.115-1.095-.346-1.537a2.582 2.582 0 00-.965-1.055c-.412-.251-.889-.377-1.432-.377-.542 0-1.02.126-1.432.377a2.58 2.58 0 00-.964 1.055c-.231.442-.347.954-.347 1.537s.116 1.1.347 1.553c.231.442.552.788.964 1.04.412.25.89.376 1.432.376zm6.952 3.663h-1.115v-10.34h1.1v2.246h-.271c.09-.492.286-.924.588-1.296a3.283 3.283 0 011.145-.874 3.55 3.55 0 011.492-.317c.724 0 1.367.176 1.929.528.563.341 1 .809 1.312 1.401.321.593.482 1.267.482 2.02 0 .764-.166 1.442-.498 2.035a3.562 3.562 0 01-1.356 1.401c-.573.342-1.231.513-1.974.513-.674 0-1.266-.136-1.779-.407a2.885 2.885 0 01-1.145-1.13c-.251-.483-.342-1.02-.272-1.613l.211-.301c.041.472.191.899.453 1.28.261.372.602.664 1.024.875.422.21.885.316 1.387.316.553 0 1.035-.125 1.447-.377.412-.26.733-.612.965-1.055.241-.452.361-.964.361-1.537s-.115-1.08-.346-1.522a2.514 2.514 0 00-.935-1.055c-.402-.261-.869-.392-1.402-.392-.542 0-1.024.136-1.446.407a2.797 2.797 0 00-.995 1.13c-.241.473-.362 1.025-.362 1.658v6.406zm8.57-2.924v-7.416h1.115v5.924l-.121-.046 4.823-5.878h.965v7.416h-1.115v-5.923l.12.045-4.823 5.878h-.964zm9.199 0v-7.416h1.115v5.924l-.121-.046 4.823-5.878h.965v7.416h-1.115v-5.923l.12.045-4.823 5.878h-.964zm13.529 0h-1.161V38.984h4.175c.714 0 1.332.125 1.854.376.533.252.945.603 1.236 1.055.301.453.452.98.452 1.583s-.151 1.13-.452 1.582c-.291.453-.703.804-1.236 1.055-.522.252-1.14.377-1.854.377h-3.165v-1.025h3.165c.734 0 1.307-.175 1.718-.527.422-.352.633-.84.633-1.462 0-.623-.211-1.11-.633-1.462-.411-.352-.984-.528-1.718-.528h-3.014v9.752zm13.78-1.115c-1.859 0-3.271-.362-4.235-1.086-.965-.733-1.447-1.798-1.447-3.195 0-1.396.482-2.457 1.447-3.18.964-.723 2.376-1.085 4.235-1.085 1.859 0 3.266.362 4.22 1.085.965.723 1.447 1.784 1.447 3.18 0 1.397-.482 2.462-1.447 3.195-.954.724-2.361 1.086-4.22 1.086zm0-1.056c1.487 0 2.602-.266 3.346-.798.743-.533 1.115-1.342 1.115-2.427 0-1.075-.377-1.879-1.13-2.411-.744-.533-1.854-.8-3.331-.8-1.487 0-2.607.267-3.361.8-.744.522-1.115 1.326-1.115 2.411 0 1.065.376 1.869 1.13 2.412.754.542 1.869.813 3.346.813zm-.588 2.623v-1.779l.045-.663v-6.812l-.045-.588v-1.839h1.161v1.84l-.046.587v6.812l.046.663v1.779h-1.161z" fill="#323030"/></svg>